<?xml version="1.0" encoding="utf-8"?><!-- Uploaded to: SVG Repo, www.svgrepo.com, Generator: SVG Repo Mixer Tools -->
<svg width="800px" height="800px" viewBox="0 0 320 320" fill="none" xmlns="http://www.w3.org/2000/svg">
<path fill-rule="evenodd" clip-rule="evenodd" d="M178.858 86.3654C171.864 92.2457 164.863 98.1319 152.402 102.247C141.996 105.683 130.777 106.456 120.222 107.183C110.944 107.823 102.179 108.427 94.9314 110.773C79.4395 115.789 63.9209 126.571 60.449 144.378C57.0664 161.727 63.237 174.265 75.9411 186.51C77.3524 187.87 78.835 189.099 80.3795 190.205C79.3126 186.081 78.677 181.774 78.5232 177.338C77.4454 146.257 101.476 119.377 131.996 117.729C133.153 117.667 134.319 117.641 135.494 117.652C151.679 117.806 166.066 124.769 176.2 135.807C176.962 123.696 184.47 113.154 195.463 108.776C198.974 107.378 202.841 106.608 206.957 106.617C211.99 106.629 216.934 107.975 221.45 110.198C232.555 115.665 241.071 126.437 241.939 135.708C242.18 138.276 242.209 140.8 242.027 143.252C243.365 142.593 244.645 141.807 245.854 140.867C257.584 131.748 261.846 119.801 261.846 109.77C261.846 99.7387 258.847 88.1416 245.854 78.6729C232.861 69.2043 215.37 65.1307 197.379 73.6573C189.574 77.3566 184.218 81.8593 178.858 86.3654ZM193.131 167.12C201.598 172.449 212.029 174.504 221.45 171.319C225.879 169.822 229.592 167.543 232.594 164.67C234.535 165.727 236.616 167.121 238.857 168.955C249.352 177.542 255.349 189.519 249.352 205.068C243.629 219.906 231.989 227.117 224.857 231.536L224.85 231.541L224.841 231.546C224.505 231.754 224.18 231.956 223.865 232.152C223.062 232.653 222.173 233.217 221.208 233.83L221.208 233.83C213.776 238.548 201.883 246.098 190.382 249.205C177.389 252.716 161.397 252.215 154.901 237.168C153.802 234.624 153.34 232.218 153.374 229.905C175.847 222.029 191.684 200.115 191.465 174.83C191.446 172.61 191.305 170.419 191.048 168.264C191.72 167.863 192.417 167.482 193.131 167.12Z" fill="#E95B47"/>
<path d="M221.45 171.319C211.081 174.825 199.489 171.983 190.638 165.414M221.45 171.319C221.45 171.319 215.498 162.929 213.454 156.774C212.454 153.765 212.454 149.752 219.451 149.752C226.447 149.752 235.955 158.587 239.337 154.768M221.45 171.319C230.186 168.366 236.135 162.373 239.337 154.768M176.2 135.807C166.066 124.769 151.679 117.806 135.494 117.652C134.319 117.641 133.153 117.667 131.996 117.729M176.2 135.807C177.208 136.905 178.174 138.043 179.096 139.219M176.2 135.807C176.962 123.696 184.47 113.154 195.463 108.776M190.638 165.414C191.155 168.479 191.437 171.625 191.465 174.83C191.717 203.858 170.807 228.442 142.99 232.444M190.638 165.414C188.986 155.628 184.934 146.669 179.096 139.219M131.996 117.729C101.476 119.377 77.4454 146.257 78.5232 177.338C79.0197 191.659 84.5386 204.637 93.3744 214.454M131.996 117.729C131.996 117.729 114.005 140.724 115.504 161.288C116.058 168.887 121.913 174.492 129.497 174.83C151.985 175.834 151.486 143.232 179.096 139.219M93.3744 214.454C103.757 225.989 118.719 233.159 135.494 233.012C138.04 232.99 140.542 232.797 142.99 232.444M93.3744 214.454C93.3744 214.454 97.2199 198.83 106.009 193.89C118.503 186.868 129.997 189.193 136.993 195.896C147.988 206.429 136.993 212.448 142.99 232.444M91.5165 157.777L90.0173 166.805M102.011 161.288L101.012 166.805M93.3744 177.338L91.5165 185.865M158.482 202.918V210.943M168.977 195.896V202.918M195.463 108.776C198.974 107.378 202.841 106.608 206.957 106.617C211.99 106.629 216.934 107.975 221.45 110.198M195.463 108.776C202.798 110.54 195.963 127.782 202.959 135.807C206.311 139.651 211.224 140.187 214.953 136.711C221.95 130.191 216.822 111.119 221.45 110.198M221.45 110.198C232.555 115.665 241.071 126.437 241.939 135.708C242.581 142.561 241.719 149.11 239.337 154.768M257.931 149.752C260.481 157.379 260.533 161.488 256.432 168.31M270.924 147.244C272.913 153.393 273.601 156.818 272.424 162.793M67.0291 122.166C63.0265 127.606 62.4861 130.823 63.0311 136.711M51.0373 130.693C47.1137 136.266 46.2902 139.864 47.5391 147.244" stroke="#000000" stroke-width="5" stroke-linecap="round"/>
</svg>