<?xml version="1.0" standalone="no"?>
<!DOCTYPE svg PUBLIC "-//W3C//DTD SVG 20010904//EN"
 "http://www.w3.org/TR/2001/REC-SVG-20010904/DTD/svg10.dtd">
<svg version="1.0" xmlns="http://www.w3.org/2000/svg"
 width="800.000000pt" height="533.000000pt" viewBox="0 0 800.000000 533.000000"
 preserveAspectRatio="xMidYMid meet">

<g transform="translate(0.000000,533.000000) scale(0.100000,-0.100000)"
fill="#000000" stroke="none">
<path d="M0 4495 l0 -835 23 0 c13 0 45 -7 70 -16 37 -13 54 -14 79 -5 46 16
61 -3 61 -76 1 -61 -30 -203 -44 -203 -9 0 -23 20 -24 35 -3 37 -45 65 -45 30
0 -22 -21 -18 -27 5 -3 11 -9 17 -14 14 -5 -3 -12 2 -15 11 -4 9 -19 22 -35
31 l-29 15 0 -115 c0 -99 2 -115 18 -121 16 -6 16 -7 0 -19 -17 -12 -18 -102
-18 -1630 l0 -1616 3018 4 c1659 2 3028 4 3042 4 14 0 256 -2 538 -4 346 -3
512 -1 512 6 0 5 7 10 15 10 8 0 15 -4 15 -10 0 -6 161 -9 424 -9 483 -1 436
-11 436 99 0 65 -1 68 -27 76 -36 9 -173 12 -173 3 0 -17 71 -31 102 -20 45
16 54 2 33 -54 l-18 -46 -22 27 c-29 36 -78 42 -100 12 l-15 -22 0 22 c0 27
-25 39 -45 22 -12 -10 -18 -10 -30 0 -17 14 -114 19 -118 6 -4 -12 -63 8 -60
20 1 5 -17 9 -39 9 -24 0 -43 6 -46 13 -6 18 -42 15 -42 -4 0 -13 -6 -15 -27
-10 -16 3 -43 9 -61 13 -26 4 -32 10 -29 23 3 14 -3 19 -25 22 -16 3 -31 1
-34 -4 -8 -13 -54 -10 -49 5 2 6 -9 22 -26 35 -33 27 -43 7 -10 -22 11 -10 17
-25 14 -36 -4 -15 -9 -17 -30 -9 -14 5 -31 5 -40 1 -13 -8 -11 -12 9 -28 13
-10 27 -28 31 -38 7 -18 9 -18 24 5 27 40 42 49 70 38 13 -5 38 -9 54 -9 18 0
29 -5 29 -14 0 -22 -28 -27 -67 -11 -19 8 -36 15 -37 15 -2 0 -3 -15 -3 -32
-2 -82 -16 -114 -29 -64 -5 20 -12 24 -41 23 -22 -1 -40 5 -48 16 -11 15 -13
14 -23 -9 -10 -21 -15 -23 -32 -14 -11 6 -20 15 -20 21 0 16 -27 39 -44 39
-10 0 -16 9 -16 25 0 25 -14 33 -25 15 -12 -19 -24 -10 -30 23 -6 29 -11 34
-36 34 -31 0 -39 -11 -14 -21 8 -3 15 -13 15 -22 0 -9 -5 -13 -12 -10 -7 3
-21 9 -30 12 -10 4 -18 14 -18 23 0 13 -2 14 -9 1 -6 -8 -7 -18 -5 -22 8 -13
-35 -9 -64 6 -49 24 -80 28 -84 9 -2 -12 -13 -17 -38 -17 -28 -1 -37 -6 -48
-29 -14 -28 -14 -29 -29 -8 -8 12 -23 21 -35 21 -15 0 -18 3 -11 13 14 18 14
57 0 57 -22 0 18 20 43 21 23 1 22 2 -7 11 -18 6 -40 7 -50 3 -30 -12 -126
-15 -139 -4 -7 6 -25 9 -41 7 l-28 -3 25 -23 c19 -18 31 -21 58 -16 29 6 33 4
30 -11 -4 -25 -48 -41 -48 -18 0 14 -2 14 -15 -3 -11 -14 -14 -15 -15 -4 0 8
-9 21 -21 28 -18 12 -23 11 -36 -7 -9 -13 -25 -21 -44 -21 -18 0 -29 -5 -29
-14 0 -15 27 -29 40 -21 5 3 11 1 15 -5 3 -5 17 -10 31 -10 13 0 24 -4 24 -10
0 -18 15 -11 25 13 16 35 40 28 40 -13 0 -30 -3 -34 -20 -31 -11 2 -50 3 -87
2 -65 -2 -67 -1 -82 28 -20 37 -20 71 -2 96 12 17 14 17 37 2 31 -23 57 -23
39 -1 -11 13 -10 16 8 21 31 8 27 23 -5 23 -16 0 -57 9 -93 20 -75 23 -111 25
-108 8 3 -14 3 -14 -55 -4 -25 5 -37 4 -33 -3 9 -14 -14 -25 -27 -12 -6 6 -24
11 -39 11 -29 0 -38 14 -15 23 12 5 -21 10 -93 12 -72 3 -80 5 -80 19 0 11
-10 13 -40 9 -24 -3 -46 -1 -54 6 -9 8 -41 12 -83 10 -37 -1 -77 1 -87 6 -13
6 -17 5 -13 -2 4 -6 -3 -13 -15 -16 -16 -5 -29 2 -48 23 -15 17 -29 27 -32 24
-3 -3 -22 -7 -41 -10 -28 -3 -36 0 -40 16 -6 23 -27 27 -27 5 0 -8 -5 -15 -11
-15 -6 0 -9 7 -5 15 4 11 -1 15 -17 15 -16 0 -18 3 -8 9 19 12 1 21 -59 27
-40 4 -50 2 -44 -8 4 -7 -2 -5 -13 4 -21 19 -53 24 -53 9 0 -5 7 -11 15 -15
30 -11 15 -25 -16 -14 -22 7 -27 14 -20 21 15 15 14 30 -3 24 -7 -3 -18 -1
-24 5 -5 5 -32 11 -60 13 -27 1 -55 5 -61 9 -6 4 -22 1 -36 -6 l-25 -14 35
-13 c19 -7 35 -17 35 -22 0 -14 -26 -11 -39 5 -12 15 -60 30 -68 22 -3 -2 0
-14 6 -25 10 -18 9 -20 -6 -14 -10 3 -22 11 -28 17 -20 23 -80 52 -105 50 -14
-1 -45 -3 -69 -5 -31 -2 -46 1 -49 10 -3 10 3 12 27 9 35 -5 39 2 13 25 -21
19 -39 22 -44 6 -2 -7 -13 -6 -33 2 -40 17 -39 16 -88 18 -24 0 -52 8 -63 17
-18 14 -15 15 34 9 28 -3 52 -2 52 3 0 5 13 9 30 8 20 -1 29 -6 27 -16 -1 -8
6 -16 17 -18 11 -2 16 0 12 7 -10 15 7 14 23 -2 11 -10 13 -9 8 5 -7 20 7 33
24 22 8 -5 8 -8 0 -14 -7 -3 -9 -14 -5 -24 7 -17 18 -17 78 1 10 3 16 1 13 -3
-8 -14 16 -31 41 -29 12 1 22 -1 22 -5 0 -6 45 -30 57 -30 3 0 0 7 -7 15 -15
18 -10 18 25 5 19 -7 33 -6 48 2 12 7 28 11 35 10 27 -6 8 29 -26 47 -20 11
-27 10 -43 -5 -15 -13 -17 -19 -7 -26 10 -6 8 -8 -4 -8 -9 0 -28 12 -42 27
-24 25 -26 26 -44 10 -24 -21 -33 -22 -25 -1 4 12 2 15 -8 12 -7 -2 -23 4 -34
14 -17 16 -18 20 -5 29 12 9 10 10 -7 6 -13 -3 -23 -1 -23 4 0 5 -14 9 -31 9
-17 0 -51 9 -77 19 -61 26 -186 53 -206 45 -9 -3 -16 -2 -16 4 0 16 -33 24
-42 10 -5 -8 -8 -9 -8 -2 0 7 -19 12 -45 12 -25 1 -45 -3 -45 -8 0 -6 -5 -10
-11 -10 -6 0 -8 7 -5 15 3 10 -1 18 -12 22 -9 4 -20 10 -23 15 -3 5 -16 5 -30
0 -17 -7 -28 -6 -37 4 -10 11 -18 11 -38 2 -20 -10 -27 -9 -34 2 -5 8 -12 11
-16 7 -4 -4 1 -14 12 -22 16 -13 17 -16 4 -25 -8 -5 -10 -10 -5 -10 17 -1 -39
-40 -58 -40 -10 0 -20 6 -23 14 -3 8 -25 19 -50 25 -24 6 -65 16 -90 23 -36 9
-45 15 -41 29 4 13 -3 20 -24 24 -16 4 -33 4 -39 0 -5 -3 -10 -2 -10 3 0 5 -8
12 -17 16 -55 19 -73 23 -73 16 0 -4 -12 -7 -27 -5 -36 4 -154 45 -172 59 -16
12 -84 37 -89 32 -7 -7 90 -66 99 -61 14 9 11 -2 -7 -19 -8 -9 -20 -13 -26
-10 -7 4 -6 9 1 13 13 9 -63 61 -87 61 -13 0 -11 -5 8 -20 14 -11 20 -20 14
-20 -5 0 -14 4 -20 9 -5 4 -33 16 -61 27 -56 19 -71 35 -25 26 23 -4 25 -3 15
10 -7 8 -11 17 -8 19 2 3 -6 11 -18 18 -19 13 -21 12 -10 -1 20 -24 2 -30 -18
-6 -22 25 -79 33 -79 11 0 -8 4 -12 9 -8 5 3 13 0 16 -6 12 -19 -3 -22 -27 -5
-25 18 -42 21 -33 6 3 -5 -1 -10 -9 -10 -9 0 -16 6 -16 14 0 7 -15 17 -32 21
-23 5 -27 9 -15 12 19 5 24 25 5 22 -30 -4 -43 2 -23 11 23 9 13 15 -48 25
-39 6 -60 31 -37 45 9 6 8 11 -6 19 -16 10 -11 11 25 7 30 -3 40 -1 30 5 -7 5
-26 9 -41 9 -25 0 -26 2 -22 38 4 27 3 33 -5 22 -5 -8 -8 -17 -5 -21 2 -4 -1
-11 -7 -15 -9 -5 -10 2 -6 24 8 38 -10 44 -19 7 -11 -45 -21 -17 -13 36 5 30
16 57 26 65 17 13 17 14 0 25 -11 7 -16 17 -12 29 4 12 -3 25 -21 39 -35 28
-43 27 -56 -9 -12 -37 -34 -34 -31 3 2 23 -3 27 -33 33 -19 3 -36 10 -39 14
-6 10 24 22 36 14 5 -3 22 8 36 25 33 37 81 41 131 11 35 -21 38 -30 20 -48
-9 -9 -9 -12 0 -12 7 0 12 6 12 13 0 6 12 -1 25 -16 14 -15 25 -33 25 -40 0
-8 -4 -7 -9 2 -15 24 -43 23 -39 -2 3 -22 21 -26 328 -76 69 -12 140 -23 157
-26 24 -4 31 -2 28 7 -6 15 47 48 75 48 9 0 23 -7 30 -15 7 -9 18 -14 24 -12
17 6 46 -12 46 -28 0 -18 -41 -20 -57 -4 -12 12 -63 5 -63 -9 0 -4 37 -16 83
-26 45 -10 118 -26 162 -37 44 -10 96 -21 115 -24 19 -3 62 -12 95 -20 33 -8
70 -14 83 -13 22 2 22 3 5 15 -42 29 -71 66 -77 96 -3 18 -15 40 -26 50 -27
23 -26 55 2 59 13 2 24 12 28 25 8 33 37 63 55 57 17 -7 22 31 5 41 -11 7 10
29 55 61 17 13 18 16 5 24 -8 5 -18 11 -23 12 -4 2 -9 69 -12 149 -4 112 -1
164 11 220 8 41 17 133 19 204 3 72 7 141 10 155 12 56 15 78 20 139 3 35 10
81 16 102 12 39 12 39 -35 81 -51 44 -53 53 -30 135 5 19 1 23 -30 28 -47 9
-49 38 -3 59 38 17 117 30 117 19 0 -5 21 -19 47 -33 87 -46 254 -25 310 40
27 31 23 37 -11 15 -43 -29 -48 -12 -11 42 19 29 35 56 35 60 0 4 15 17 33 27
26 16 29 20 14 24 -27 6 -46 -5 -57 -30 -8 -22 -9 -22 -9 4 -1 32 18 78 32 78
5 0 7 15 4 33 -2 17 0 40 5 51 13 24 -8 39 -33 23 -25 -15 -36 -1 -16 21 14
16 14 19 -2 41 -12 16 -24 22 -35 18 -12 -5 -16 0 -16 23 0 40 -25 51 -102 45
-84 -7 -118 -15 -144 -31 -11 -8 -25 -11 -29 -7 -5 5 -3 0 5 -11 8 -11 16 -14
18 -7 2 6 8 9 13 6 4 -3 22 1 38 10 22 11 45 13 90 9 58 -7 61 -8 80 -47 24
-47 16 -71 -26 -80 -33 -7 -119 -74 -128 -100 -6 -16 -12 -12 -43 25 -21 23
-58 64 -84 90 -27 26 -48 52 -48 57 0 5 -14 15 -30 23 -17 7 -32 20 -35 28 -5
17 -45 45 -45 32 0 -5 9 -17 20 -27 20 -18 27 -45 12 -45 -4 0 -23 11 -42 24
-19 13 -53 32 -75 43 -22 11 -62 32 -89 46 -37 21 -52 24 -62 16 -11 -9 -14
-7 -14 12 0 33 9 43 59 69 36 18 48 20 68 11 14 -6 28 -9 33 -6 5 3 18 -12 30
-35 23 -45 25 -47 34 -24 3 8 2 12 -4 9 -15 -9 -33 46 -20 59 7 7 10 1 11 -20
1 -19 3 -22 6 -9 2 11 6 30 9 43 5 25 44 32 44 7 0 -21 17 -19 30 5 15 27 33
26 25 -2 -7 -23 -7 -23 10 -3 16 20 16 20 12 -3 -7 -30 9 -28 17 2 6 25 38 36
102 36 32 0 49 -6 165 -57 47 -21 64 -24 112 -18 64 8 66 19 6 35 -22 6 -43
18 -46 26 -3 8 -18 14 -37 14 -19 0 -42 9 -54 20 -17 16 -34 21 -75 19 -28 -1
-63 1 -77 5 -73 17 -144 24 -167 15 -31 -12 -100 -12 -107 0 -17 26 -176 -76
-176 -113 0 -7 -11 -21 -24 -30 -14 -8 -27 -24 -30 -34 -6 -19 -64 -42 -104
-42 -12 0 -26 10 -33 21 -10 19 -17 21 -63 17 -62 -6 -76 -2 -76 23 0 17 -7
19 -57 19 -66 0 -74 -4 -90 -43 -19 -41 -55 -37 -77 11 -10 20 -20 46 -22 56
-2 11 -14 30 -26 43 l-23 25 28 -13 c15 -7 27 -18 27 -26 0 -7 5 -13 10 -13
20 0 9 18 -40 64 -27 25 -56 46 -65 46 -9 0 -27 7 -40 16 -13 8 -34 14 -47 12
-19 -3 -12 -9 35 -31 64 -30 72 -54 16 -49 -19 1 -38 7 -43 12 -18 18 -29 10
-13 -8 20 -22 22 -33 5 -31 -44 5 -50 -14 -17 -55 25 -32 18 -46 -27 -46 -33
0 -39 -7 -34 -39 1 -9 -4 -12 -14 -8 -8 3 -23 -1 -32 -10 -14 -15 -13 -17 15
-29 16 -7 44 -11 61 -9 25 3 30 0 30 -16 0 -11 -6 -22 -12 -24 -16 -7 -23 -95
-8 -95 6 0 8 -4 5 -10 -3 -5 2 -10 12 -10 10 0 24 9 31 21 11 17 20 20 47 15
28 -6 36 -3 45 14 18 33 54 23 58 -17 5 -48 -13 -74 -46 -67 -26 5 -26 5 -8
-10 23 -19 18 -20 -19 -6 -23 9 -26 8 -21 -5 9 -23 -19 -18 -38 8 l-17 22 6
-25 c4 -14 11 -35 17 -47 13 -27 40 -39 36 -16 -2 9 3 18 11 21 11 3 12 -3 8
-29 -7 -37 4 -66 22 -55 6 4 11 15 11 24 1 15 2 15 15 -2 21 -27 19 -52 -6
-77 l-22 -22 21 -16 c17 -13 21 -25 19 -58 -2 -28 2 -43 9 -43 18 0 24 -34 31
-172 4 -94 3 -128 -5 -128 -7 0 -12 11 -12 25 0 14 -4 25 -10 25 -5 0 -10 34
-12 75 -3 78 -15 98 -34 55 -7 -17 -8 -64 -1 -155 21 -293 7 -739 -28 -855
-22 -71 -73 -180 -86 -180 -5 0 -18 -9 -29 -20 -17 -17 -21 -18 -26 -5 -4 8
-14 15 -24 15 -10 0 -20 10 -23 22 -6 21 -7 21 -25 4 -19 -16 -21 -16 -41 10
-19 24 -26 24 -22 2 0 -5 -4 -8 -9 -8 -6 0 -10 7 -10 15 0 8 -6 12 -15 9 -8
-3 -13 -11 -12 -17 3 -17 -81 -11 -109 8 -13 9 -29 13 -34 10 -5 -3 -12 0 -15
5 -4 6 -19 10 -33 9 -15 -2 -33 0 -40 4 -7 5 -12 3 -12 -5 0 -9 -3 -9 -10 2
-13 21 -12 56 2 80 16 25 -1 46 -28 33 -11 -5 -30 -8 -44 -8 -23 0 -25 3 -22
38 l3 38 -36 -7 c-22 -4 -41 -2 -50 6 -15 12 -20 4 -16 -23 1 -4 3 -22 5 -40
2 -25 8 -33 27 -35 13 -2 30 -9 38 -15 7 -6 23 -16 35 -22 11 -5 29 -27 39
-48 12 -23 26 -37 37 -37 20 0 50 -35 50 -57 0 -14 -26 -18 -32 -5 -1 4 -22
23 -45 41 -40 32 -44 33 -61 18 -16 -15 -19 -15 -30 3 -8 14 -9 20 -1 20 6 0
9 6 7 13 -6 17 -33 15 -34 -3 -1 -8 -2 -25 -2 -37 -1 -13 -6 -23 -12 -23 -5 0
-10 10 -10 23 0 30 -15 51 -29 42 -8 -4 -10 -18 -6 -36 9 -39 -9 -37 -29 3
-20 39 -20 49 -1 42 8 -4 15 -2 15 3 0 13 -33 13 -42 0 -3 -6 -15 -11 -25 -12
-10 0 -24 -4 -30 -8 -17 -11 -41 28 -68 116 -27 83 -32 132 -15 142 6 4 10 12
8 18 -1 7 2 27 6 45 4 19 4 38 -2 45 -17 22 -35 139 -22 147 8 5 11 43 10 116
-2 135 8 249 25 289 7 17 16 77 20 135 3 58 11 121 16 140 6 22 6 52 0 80 -5
29 -9 36 -10 19 -1 -14 -7 -34 -15 -44 -23 -31 -33 115 -12 174 20 55 20 58
-4 66 -19 6 -19 8 -4 36 11 22 12 34 5 43 -6 7 -8 16 -4 19 3 4 1 7 -5 7 -23
0 -12 31 15 41 20 7 24 12 14 18 -9 6 -10 11 -2 15 6 4 11 12 11 18 0 7 -5 6
-15 -2 -18 -15 -45 -6 -45 15 0 33 62 114 111 145 42 27 56 32 91 27 22 -3 51
-2 63 3 25 9 39 3 48 -24 5 -13 12 -16 25 -10 9 4 35 9 57 12 22 2 45 12 52
21 6 9 15 13 19 9 3 -4 18 2 32 12 13 11 31 20 38 20 8 0 14 5 14 10 0 7 -13
8 -35 4 -23 -4 -35 -2 -35 5 0 9 -5 9 -21 1 -18 -10 -19 -9 -11 7 6 10 27 40
46 68 20 27 36 57 36 65 0 8 7 23 15 33 11 16 11 21 -3 37 -13 16 -19 17 -31
7 -12 -9 -13 -9 -7 1 11 18 -14 15 -38 -5 -20 -18 -20 -18 0 9 10 15 30 28 44
30 19 2 24 9 25 33 0 17 6 36 13 44 11 12 7 19 -25 47 -21 19 -43 32 -49 30
-6 -3 -16 0 -20 4 -5 5 -27 13 -49 18 -23 5 -39 14 -37 21 1 7 -3 11 -10 9 -7
-1 -38 5 -68 15 -30 9 -64 18 -75 20 -11 1 -20 10 -19 18 1 11 -9 15 -32 15
-19 0 -34 -1 -34 -3 0 -1 14 -10 30 -18 17 -9 28 -20 25 -25 -3 -4 14 -27 37
-49 24 -22 45 -36 46 -30 3 6 9 6 18 -2 8 -6 14 -7 14 -3 0 13 128 0 168 -17
65 -27 14 -82 -98 -105 -30 -6 -55 -15 -55 -20 0 -5 -4 -15 -8 -21 -6 -9 -2
-13 12 -13 26 0 27 -9 4 -26 -26 -19 -33 -17 -33 9 0 52 -99 217 -130 217 -6
0 -9 4 -5 10 3 5 12 7 20 3 24 -8 18 2 -25 47 -22 23 -40 38 -40 34 0 -4 12
-21 28 -37 24 -26 25 -29 10 -38 -9 -5 -24 -16 -32 -24 -20 -20 -24 -19 -19 8
5 24 -24 55 -126 135 -51 41 -54 42 -73 25 -10 -9 -35 -51 -56 -92 -36 -72
-37 -79 -37 -180 0 -126 21 -190 90 -273 24 -29 41 -55 39 -58 -3 -3 -10 3
-15 12 -5 10 -17 14 -29 11 -11 -3 -37 2 -59 10 -43 18 -141 21 -299 11 -90
-6 -105 -5 -122 11 -11 10 -20 26 -20 35 0 18 -19 30 -46 30 -9 0 -14 -11 -14
-30 0 -27 -3 -30 -30 -30 -39 0 -93 23 -132 55 -32 27 -58 31 -90 14 -27 -14
-57 -5 -102 30 -32 26 -41 28 -62 19 -20 -10 -24 -18 -24 -59 0 -40 -3 -49
-21 -54 -20 -7 -30 0 -43 30 -9 21 -26 -22 -26 -66 0 -53 -20 -84 -62 -93 -25
-6 -28 -3 -37 31 -5 21 -9 111 -10 201 l0 163 45 21 c74 32 358 88 452 88 68
0 106 17 167 73 28 26 53 47 57 47 3 0 45 16 93 36 80 34 89 41 106 78 10 23
19 55 19 73 0 17 5 44 10 59 23 59 -50 291 -98 313 -30 14 -29 14 -35 -10 -5
-18 -12 -20 -64 -17 -52 3 -59 6 -71 31 -7 15 -19 27 -26 27 -32 0 -45 35 -44
115 1 95 -13 153 -47 193 -28 34 -28 34 -14 85 9 33 13 37 44 37 23 0 65 18
130 55 52 30 102 55 111 55 8 0 23 4 32 9 26 13 80 24 62 12 -8 -6 -12 -13 -8
-16 9 -9 108 43 108 57 0 6 -5 27 -12 45 l-12 33 -422 0 c-329 0 -423 -3 -427
-12 -3 -10 -11 -10 -39 0 -25 9 -124 12 -356 12 l-322 0 0 -835z m740 15 c29
-55 -64 -194 -110 -165 -6 4 -10 25 -10 49 0 49 31 103 70 123 33 17 38 16 50
-7z m-401 -154 c38 -20 89 -80 96 -114 4 -15 10 -35 16 -44 11 -22 12 -65 1
-72 -15 -9 -73 37 -92 74 -30 58 -88 112 -114 104 -23 -7 -36 -22 -36 -41 0
-18 -17 -16 -24 2 -8 21 -26 19 -26 -3 0 -16 -11 -25 -62 -50 -5 -2 -8 5 -8
16 0 12 21 39 53 65 91 77 138 92 196 63z m-33 -177 c18 -20 18 -21 -16 -47
-19 -15 -43 -32 -55 -37 -30 -16 -30 -40 1 -54 19 -8 24 -15 16 -23 -7 -7 -19
-5 -39 10 -54 38 -65 57 -56 92 8 29 15 35 58 45 27 7 51 18 53 24 5 16 17 13
38 -10z m1500 -91 c4 -6 3 -8 -3 -5 -12 8 -34 -16 -58 -63 -10 -19 -20 -30
-22 -23 -5 14 11 46 40 79 23 27 32 29 43 12z m19 -48 c3 -5 2 -10 -4 -10 -5
0 -13 5 -16 10 -3 6 -2 10 4 10 5 0 13 -4 16 -10z m325 -60 c14 -5 38 -11 53
-14 15 -4 25 -11 22 -17 -4 -5 -14 -7 -23 -5 -10 3 -32 7 -50 8 -18 1 -38 8
-44 15 -6 7 -16 13 -24 13 -7 0 -16 4 -19 10 -6 10 40 5 85 -10z m-412 -30
c19 -18 22 -19 22 -4 0 10 3 14 7 11 3 -4 12 -2 19 4 18 15 26 -5 14 -36 -13
-34 -14 -32 18 -38 57 -13 69 -47 16 -47 -19 0 -28 -7 -35 -30 -12 -32 -31
-41 -28 -12 3 31 -1 43 -11 37 -5 -3 -10 1 -10 10 0 15 -2 15 -17 -1 -16 -16
-18 -15 -24 10 -10 34 -9 116 0 116 4 0 17 -9 29 -20z m112 3 c-1 -13 -29 -47
-35 -42 -9 10 8 49 21 49 8 0 14 -3 14 -7z m52 -28 c4 -5 8 -14 8 -20 0 -5 -4
-4 -9 3 -4 8 -11 13 -15 13 -22 -3 -36 0 -36 8 0 13 43 10 52 -4z m68 -44 c0
-5 -7 -14 -15 -21 -16 -14 -18 -10 -9 14 6 17 24 22 24 7z m-220 -88 c0 -30
-9 -27 -15 6 -2 11 0 21 6 21 5 0 9 -12 9 -27z m590 7 c0 -5 -5 -10 -11 -10
-5 0 -7 5 -4 10 3 6 8 10 11 10 2 0 4 -4 4 -10z m-436 -135 c88 -44 89 -44 60
-55 -39 -15 -64 -39 -64 -62 0 -22 18 -23 44 -3 23 17 36 19 36 5 0 -6 -13
-18 -30 -29 -30 -18 -32 -35 -2 -24 13 5 12 2 -3 -18 -19 -26 -26 -26 -112
-13 -18 3 -33 10 -33 16 0 6 12 8 33 4 l34 -6 -28 57 c-28 57 -49 173 -33 173
5 0 49 -20 98 -45z m961 -116 c22 -18 29 -19 35 -8 7 11 10 9 15 -6 4 -11 11
-28 16 -38 9 -17 8 -17 -18 -4 -15 8 -34 12 -41 10 -16 -6 -62 35 -62 54 0 19
24 16 55 -8z m-600 -34 c-31 -25 -45 -31 -45 -17 0 6 57 40 70 41 3 0 -8 -11
-25 -24z m575 -67 c0 -13 -23 -5 -28 10 -2 7 2 10 12 6 9 -3 16 -11 16 -16z
m101 -45 c30 -38 54 -71 54 -75 0 -4 6 -13 13 -19 17 -18 15 -39 -3 -39 -8 0
-15 -4 -15 -10 0 -5 5 -10 10 -10 6 0 15 -10 20 -22 5 -13 9 -17 9 -9 1 11 5
10 17 -5 15 -18 15 -18 9 11 -4 17 -8 40 -10 52 -1 13 -8 31 -16 40 -12 17
-12 17 5 1 10 -9 20 -27 22 -40 9 -58 34 -141 48 -156 19 -22 52 -130 63 -210
13 -89 -4 -62 -26 43 -10 51 -23 89 -29 88 -16 -4 -56 53 -78 110 -13 32 -26
50 -41 53 -16 4 -24 14 -25 33 -1 14 -2 35 -3 46 -2 31 -30 76 -76 124 -33 34
-39 45 -28 52 22 14 25 12 80 -58z m-721 47 c0 -5 -5 -10 -11 -10 -5 0 -7 5
-4 10 3 6 8 10 11 10 2 0 4 -4 4 -10z m-345 -110 c3 -5 -3 -10 -14 -10 -12 0
-21 5 -21 10 0 6 6 10 14 10 8 0 18 -4 21 -10z m946 -27 c13 -15 12 -15 -8 -4
-24 12 -29 21 -14 21 5 0 15 -7 22 -17z m804 -1 c0 -18 -20 -15 -23 4 -3 10 1
15 10 12 7 -3 13 -10 13 -16z m-1795 -6 c0 -8 -6 -16 -14 -19 -7 -3 -13 -17
-13 -32 0 -14 -8 -34 -17 -44 -9 -10 -14 -25 -11 -33 4 -9 -1 -18 -11 -22 -25
-10 -28 -1 -10 35 17 35 23 97 6 68 -5 -8 -16 -37 -26 -64 -9 -27 -22 -55 -30
-62 -8 -8 -14 -21 -14 -29 0 -8 -4 -14 -8 -14 -5 0 -14 -11 -20 -25 -9 -19 -9
-23 3 -19 7 3 19 19 25 35 21 49 27 41 18 -22 -10 -73 -14 -82 -40 -76 -23 6
-30 -9 -47 -110 -7 -39 -19 -80 -26 -90 -13 -16 -14 -15 -15 18 0 19 6 55 14
80 7 24 22 73 32 109 10 36 31 90 46 120 15 30 28 64 28 75 0 36 43 86 77 91
7 1 19 9 28 17 11 12 12 17 2 20 -7 3 -5 6 6 6 9 1 17 -5 17 -13z m1754 -2 c9
-3 16 -11 16 -16 0 -6 -7 -7 -16 -4 -14 5 -16 1 -11 -31 3 -21 3 -32 0 -25 -2
6 -9 10 -14 6 -15 -9 -22 26 -11 52 13 26 13 27 36 18z m76 -9 c0 -9 7 -18 15
-21 25 -10 17 -22 -10 -16 -30 5 -37 15 -29 36 8 20 24 21 24 1z m-3451 -31
c42 -9 41 -34 -1 -34 -61 0 -138 13 -138 23 0 5 14 7 30 5 17 -3 33 -1 36 4 6
10 30 10 73 2z m2895 -75 c10 -28 15 -54 12 -56 -6 -7 -20 28 -31 75 -10 49 1
38 19 -19z m-51 -113 c14 -29 32 -58 41 -65 19 -16 21 -41 3 -41 -20 0 -44 30
-55 70 -5 19 -15 34 -22 32 -17 -4 -52 39 -45 56 3 7 1 22 -5 31 -5 10 -6 22
-2 26 10 10 57 -50 85 -109z m-1267 47 c-10 -10 -19 5 -10 18 6 11 8 11 12 0
2 -7 1 -15 -2 -18z m14 -53 c0 -5 -5 -10 -11 -10 -5 0 -7 5 -4 10 3 6 8 10 11
10 2 0 4 -4 4 -10z m2457 -67 c-3 -10 -5 -4 -5 12 0 17 2 24 5 18 2 -7 2 -21
0 -30z m-1300 -15 c-3 -8 -6 -5 -6 6 -1 11 2 17 5 13 3 -3 4 -12 1 -19z m1213
-38 c-12 -17 -24 -29 -27 -26 -3 2 5 18 18 35 29 40 38 32 9 -9z m-2459 -7
c-8 -15 -10 -15 -11 -2 0 17 10 32 18 25 2 -3 -1 -13 -7 -23z m-12 -100 c-1
-34 -2 -35 -9 -13 -11 36 -11 50 0 50 6 0 10 -17 9 -37z m1976 -24 c-5 -14 -3
-19 3 -15 6 3 13 2 17 -4 3 -6 -1 -13 -9 -16 -20 -8 -21 -34 -1 -34 11 0 12
-5 6 -22 -5 -13 -14 -22 -19 -21 -6 2 -16 -14 -23 -35 -6 -20 -18 -41 -25 -45
-19 -11 -18 -67 1 -67 16 0 20 -34 9 -89 -7 -36 -23 -39 -49 -11 -10 11 -13
20 -7 20 7 0 12 8 12 18 -1 15 -2 15 -15 -2 -16 -21 -21 -61 -6 -52 10 7 24
-104 15 -127 -3 -9 -10 -15 -14 -12 -17 10 -21 -36 -7 -65 9 -17 11 -32 6 -36
-5 -3 -7 -10 -3 -15 3 -6 3 -22 -1 -36 -6 -24 -7 -24 -19 -8 -7 10 -18 15 -24
11 -16 -10 -24 51 -14 106 5 26 7 70 4 99 -3 32 -1 50 5 46 5 -3 15 28 22 71
16 90 49 202 61 202 4 0 12 12 18 28 27 76 76 172 57 111z m-2020 -55 c3 -39
2 -43 -5 -19 -4 17 -9 28 -10 25 -1 -3 -4 -69 -6 -147 -5 -165 11 -297 51
-413 14 -41 21 -70 17 -65 -27 31 -82 242 -82 315 0 21 -5 40 -11 42 -10 3 1
198 17 291 8 51 25 34 29 -29z m1564 -101 c1 -74 -14 -83 -24 -15 -4 26 -11
49 -15 52 -5 3 -6 34 -2 70 l6 65 17 -55 c10 -30 18 -83 18 -117z m-1344 78
c-11 -63 -28 -111 -36 -105 -5 3 -9 -2 -9 -10 0 -9 -4 -16 -10 -16 -5 0 -10
-15 -11 -32 -1 -18 -5 -44 -10 -58 -8 -23 -7 9 6 170 4 48 2 44 31 73 33 34
48 25 39 -22z m1233 -121 c-1 -118 -6 -101 -10 37 -2 50 0 86 4 80 4 -7 7 -59
6 -117z m82 -20 c1 -14 1 -50 0 -80 l-3 -55 -7 55 c-11 79 -11 139 -1 120 5
-8 10 -26 11 -40z m-1500 25 c0 -8 -4 -15 -10 -15 -5 0 -7 7 -4 15 4 8 8 15
10 15 2 0 4 -7 4 -15z m1991 -58 c-8 -8 -11 0 -10 29 1 39 1 39 11 11 7 -21 7
-32 -1 -40z m209 -86 c-6 -42 -14 -91 -16 -110 l-5 -34 -15 28 c-22 43 -16 85
29 200 18 46 22 6 7 -84z m-2190 23 c0 -47 -4 -73 -10 -69 -5 3 -10 37 -10 76
0 39 4 69 10 69 6 0 10 -32 10 -76z m1397 -16 c-3 -8 -6 -5 -6 6 -1 11 2 17 5
13 3 -3 4 -12 1 -19z m24 -85 c-8 -15 -10 -15 -11 -2 0 17 10 32 18 25 2 -3
-1 -13 -7 -23z m-2416 -13 c3 -5 1 -10 -4 -10 -6 0 -11 5 -11 10 0 6 2 10 4
10 3 0 8 -4 11 -10z m2395 -65 c-16 -47 -23 -40 -8 8 6 20 13 35 16 33 2 -3
-1 -21 -8 -41z m27 1 c-7 -52 -47 -169 -71 -212 -19 -32 -15 -19 19 72 13 33
29 88 36 122 15 72 25 83 16 18z m-1420 -48 c-3 -7 -5 -2 -5 12 0 14 2 19 5
13 2 -7 2 -19 0 -25z m2147 7 c-4 -8 -10 -13 -15 -10 -4 3 -6 12 -3 20 4 8 10
13 15 10 4 -3 6 -12 3 -20z m-2266 -52 c11 -15 12 -15 13 3 1 16 2 16 6 2 2
-9 -4 -25 -14 -35 -10 -10 -25 -29 -33 -42 -12 -18 -26 -24 -60 -26 -25 -1
-62 -6 -82 -10 -35 -7 -38 -6 -38 16 0 29 4 34 59 83 41 36 47 38 90 32 25 -3
52 -14 59 -23z m-1318 -28 c0 -7 -7 -16 -15 -19 -18 -7 -30 16 -21 40 5 13 9
14 21 4 8 -7 15 -18 15 -25z m3108 -55 c4 -31 -30 -70 -60 -70 -27 0 -58 27
-58 51 0 27 40 50 80 47 29 -3 36 -7 38 -28z m-1753 -27 c16 -38 10 -52 -24
-53 -11 0 -10 4 3 13 17 12 17 14 2 20 -16 6 -22 38 -9 50 10 11 12 9 28 -30z
m1908 -15 c23 -24 47 -109 37 -127 -8 -14 -9 -14 -10 4 0 11 -7 31 -15 45
l-14 25 -1 -30 c-1 -51 -20 -6 -20 48 0 49 4 55 23 35z m-2553 -43 c14 -8 37
-14 53 -15 15 0 27 -5 27 -11 0 -8 -13 -9 -40 -5 -31 5 -42 3 -46 -9 -8 -20
-17 -19 -58 8 l-34 24 26 10 c37 15 43 14 72 -2z m2053 -12 c-3 -16 -6 -35 -6
-44 1 -8 -7 -21 -18 -27 -24 -15 -24 -12 2 49 24 54 33 64 22 22z m105 -8 c29
-27 38 -30 47 -15 7 11 94 14 119 4 9 -3 16 -13 16 -20 0 -8 10 -28 22 -44 17
-24 19 -32 8 -45 -17 -21 -24 -20 -81 20 -28 19 -76 42 -107 50 -75 22 -99 39
-82 60 17 21 26 19 58 -10z m-2023 -5 c14 -15 15 -20 4 -20 -22 0 -42 17 -35
29 9 14 10 14 31 -9z m-334 -53 c-13 -13 -26 -3 -16 12 3 6 11 8 17 5 6 -4 6
-10 -1 -17z m2779 -124 c0 -13 -5 -22 -12 -20 -9 1 -13 -13 -14 -43 0 -25 -1
-65 -3 -90 l-3 -45 -9 55 c-12 71 -8 253 6 262 10 7 34 -75 35 -119z m-2310
107 c13 -8 12 -12 -6 -31 l-22 -21 -11 21 c-19 35 4 53 39 31z m-650 -10 c0
-5 -5 -10 -11 -10 -5 0 -7 5 -4 10 3 6 8 10 11 10 2 0 4 -4 4 -10z m2483 -23
c25 -9 21 -42 -8 -57 -22 -12 -27 -11 -45 10 -23 26 -26 50 -8 68 9 9 15 9 27
-2 9 -7 24 -16 34 -19z m-1508 -2 c30 -29 31 -46 5 -63 -24 -14 -28 -62 -5
-62 8 0 15 9 15 19 0 25 37 51 72 51 31 0 47 -17 24 -26 -8 -3 -24 -21 -35
-40 -11 -19 -27 -34 -35 -34 -9 0 -18 -11 -22 -24 -7 -29 -29 -40 -54 -26 -28
15 -52 2 -44 -24 4 -11 7 -27 7 -33 0 -7 12 -14 26 -14 82 -5 102 -7 161 -18
36 -7 108 -25 161 -41 53 -17 108 -31 123 -32 14 -1 26 -5 26 -8 0 -3 20 -16
44 -30 32 -17 46 -32 51 -54 6 -25 8 -27 12 -11 9 44 12 48 27 36 10 -8 16 -9
21 -1 3 6 10 8 14 6 4 -3 65 -16 136 -31 207 -42 234 -51 241 -83 10 -41 24
-55 40 -41 9 7 14 8 14 1 0 -5 -7 -12 -15 -16 -8 -3 -15 -13 -16 -23 0 -14 -2
-13 -9 5 -10 23 -30 30 -30 10 0 -15 30 -48 45 -48 6 0 17 16 25 35 8 19 17
35 22 35 12 0 1 -114 -12 -118 -5 -2 -8 -8 -4 -13 3 -5 0 -9 -6 -9 -6 0 -8 -4
-5 -10 4 -6 -8 -10 -29 -10 -29 0 -34 3 -31 20 2 11 0 20 -6 20 -5 0 -9 -7 -9
-15 0 -8 -6 -15 -12 -15 -9 0 -8 -4 2 -10 11 -7 11 -10 2 -10 -7 0 -10 -6 -7
-12 4 -7 0 -5 -8 5 -15 18 -43 24 -32 7 3 -6 -1 -17 -9 -26 -12 -11 -20 -12
-36 -4 -23 12 -105 32 -137 32 -13 0 -23 4 -23 9 0 6 -6 9 -12 7 -20 -3 -61
13 -83 32 -12 11 -62 27 -119 39 -55 12 -111 28 -124 37 -14 9 -37 20 -51 24
-16 5 -19 9 -8 9 20 1 22 12 5 29 -9 9 -9 12 0 12 19 0 14 30 -5 31 -12 1 -10
4 7 9 17 5 19 8 8 9 -10 1 -18 6 -18 12 0 5 -4 8 -9 4 -11 -6 -34 29 -25 37 3
3 -7 8 -21 10 -16 3 -25 1 -25 -7 0 -7 -7 -15 -15 -19 -8 -3 -15 -11 -14 -18
0 -10 2 -10 6 0 7 17 20 15 27 -4 3 -9 2 -12 -5 -9 -6 4 -13 -2 -16 -14 -3
-12 -9 -21 -14 -21 -5 0 -9 -4 -9 -10 0 -5 13 -10 29 -10 37 0 48 -14 13 -17
-31 -1 -69 21 -52 32 16 10 -7 35 -31 35 -13 0 -28 19 -49 63 -48 96 -58 107
-112 111 -26 2 -55 10 -65 17 -15 12 -16 12 -10 -4 5 -12 2 -17 -8 -15 -7 2
-20 -6 -28 -16 -14 -19 -15 -19 -59 2 -49 24 -74 27 -113 12 -16 -6 -25 -16
-23 -26 2 -9 -3 -18 -10 -20 -8 -1 -8 0 -1 3 8 4 8 8 -1 13 -8 5 -28 1 -47 -8
-26 -13 -32 -20 -27 -36 6 -19 5 -19 -10 -7 -15 13 -15 15 1 33 29 33 114 66
187 73 41 4 64 10 56 15 -7 4 -10 12 -6 18 3 6 -10 27 -30 46 -30 29 -34 37
-20 42 9 3 16 17 16 30 0 30 23 31 68 4 30 -19 34 -19 57 -4 13 9 29 13 35 9
13 -8 39 23 40 46 0 20 -20 29 -64 29 -18 0 -36 3 -39 7 -10 10 64 75 79 69 8
-3 11 0 7 10 -9 23 25 17 52 -11z m1760 -105 c9 -15 -14 -40 -36 -40 -24 0
-26 37 -1 43 28 8 31 7 37 -3z m-1581 -56 c10 -25 7 -34 -9 -34 -9 0 -15 9
-15 25 0 28 15 34 24 9z m-594 -14 c0 -5 -2 -10 -4 -10 -3 0 -8 5 -11 10 -3 6
-1 10 4 10 6 0 11 -4 11 -10z m1797 -26 c-3 -3 -12 -4 -19 -1 -8 3 -5 6 6 6
11 1 17 -2 13 -5z m86 -11 c-7 -2 -21 -2 -30 0 -10 3 -4 5 12 5 17 0 24 -2 18
-5z m-112 -29 c9 -11 10 -20 2 -32 -6 -10 -7 -26 -2 -39 14 -38 -1 -92 -30
-107 -35 -18 -71 -5 -64 24 3 11 9 23 14 26 5 3 9 22 9 42 0 37 31 102 49 102
5 0 14 -7 22 -16z m69 -17 c0 -32 -10 -40 -26 -19 -19 25 -17 42 6 42 14 0 20
-7 20 -23z m315 14 c3 -5 1 -12 -5 -16 -5 -3 -10 1 -10 9 0 18 6 21 15 7z
m-2155 -9 c0 -12 -22 -42 -31 -42 -13 0 -39 25 -39 38 0 6 16 10 35 9 19 -1
35 -3 35 -5z m2318 -157 c-4 -26 -33 -31 -63 -11 -26 17 -33 54 -14 73 17 17
80 -35 77 -62z m-2138 61 c0 -3 -4 -8 -10 -11 -5 -3 -10 -1 -10 4 0 6 5 11 10
11 6 0 10 -2 10 -4z m1717 -12 c8 -21 -9 -36 -27 -23 -11 8 -12 12 -2 16 6 2
10 9 6 14 -3 5 0 9 6 9 6 0 13 -7 17 -16z m-1756 -8 c-10 -12 -6 -13 29 -9 33
5 40 3 40 -11 0 -21 43 -21 60 -1 10 13 15 13 21 3 5 -8 -3 -17 -24 -26 l-32
-14 24 -9 c18 -7 21 -13 13 -21 -6 -6 -8 -16 -5 -23 3 -10 -2 -12 -16 -8 -12
3 -22 0 -22 -6 -1 -6 -3 -15 -4 -21 -1 -5 -3 -17 -4 -25 -1 -13 -5 -14 -22 -4
-17 9 -19 13 -8 20 8 5 9 9 4 9 -13 0 -35 -20 -35 -32 0 -4 7 -8 15 -8 8 0 15
-4 15 -10 0 -5 12 -10 26 -10 14 0 23 -4 19 -10 -4 -6 -11 -7 -17 -4 -7 4 -8
2 -4 -5 4 -6 3 -17 -2 -24 -6 -7 -9 -24 -7 -38 2 -22 -1 -26 -21 -26 -29 0
-30 5 -6 24 9 8 12 12 5 9 -7 -4 -17 10 -25 36 l-14 41 -14 -34 c-8 -19 -21
-40 -30 -47 -8 -8 -9 -11 -2 -7 7 4 12 0 12 -9 0 -26 -20 -28 -29 -4 -7 17 -5
26 7 36 14 10 14 12 1 12 -16 0 -19 26 -6 46 3 6 0 19 -7 30 -8 10 -12 24 -9
31 6 15 -13 18 -22 3 -4 -6 -11 -8 -16 -5 -5 4 -9 1 -9 -5 0 -8 -60 -103 -75
-118 -1 -1 -14 2 -29 7 -36 14 -33 -4 3 -18 28 -12 28 -14 18 -53 -9 -35 -8
-43 7 -54 16 -11 15 -14 -11 -28 l-28 -15 28 -1 c15 0 27 -4 27 -10 0 -5 7
-10 16 -10 18 0 14 -24 -4 -26 -49 -5 -48 -5 -27 -14 13 -5 26 -3 36 6 19 17
24 12 57 -47 11 -20 26 -47 34 -60 7 -13 28 -41 46 -62 38 -44 38 -46 12 -99
-11 -23 -20 -48 -20 -55 0 -18 -57 -143 -65 -143 -4 0 -5 7 -1 15 9 25 -8 17
-26 -12 l-17 -28 -10 30 c-15 42 -25 58 -41 63 -7 3 -10 0 -6 -7 4 -6 4 -11
-1 -11 -14 0 -90 124 -96 158 -4 18 -3 31 2 28 5 -3 11 -20 15 -37 6 -30 25
-36 34 -9 3 8 0 10 -8 5 -9 -5 -11 -4 -6 3 4 7 10 12 14 12 8 0 43 -55 42 -65
-1 -22 2 -26 15 -21 8 3 14 0 12 -6 -1 -7 8 -13 21 -14 23 -1 30 11 10 19 -7
2 -10 8 -6 12 11 11 28 -4 28 -26 0 -27 13 -24 27 7 10 22 10 24 -7 19 -13 -4
-24 3 -39 24 -23 32 -26 41 -11 41 6 0 10 -7 10 -15 0 -19 32 -36 49 -26 9 6
5 10 -12 15 -14 3 -29 15 -32 27 -5 15 -10 18 -18 10 -17 -17 -24 -14 -41 19
-8 17 -10 30 -5 30 5 0 12 -7 16 -16 4 -12 8 -13 14 -3 10 17 -9 52 -23 43 -7
-5 -9 -2 -5 9 3 9 -1 18 -10 21 -8 4 -13 13 -9 21 3 8 1 15 -4 15 -6 0 -10 7
-10 15 0 8 5 15 10 15 6 0 5 8 -2 19 -9 15 -16 17 -30 10 -16 -9 -18 -5 -18
30 0 22 5 43 10 46 6 3 10 1 10 -5 0 -7 5 -6 14 2 12 11 12 14 -3 22 -9 5 -19
14 -23 20 -4 6 -9 4 -14 -7 -9 -26 -27 -21 -20 6 4 12 9 31 10 42 5 28 4 27
20 13 7 -7 11 -20 8 -28 -5 -12 -3 -13 10 -3 8 7 19 9 24 5 4 -4 2 1 -5 10 -7
10 -11 24 -8 32 7 17 -11 36 -28 30 -10 -4 -10 7 0 60 6 37 15 69 18 72 4 4
18 -1 31 -10 35 -22 44 -20 18 4 -12 11 -28 20 -37 20 -16 0 -20 12 -7 24 4 4
8 12 8 17 3 20 5 21 17 10 11 -8 13 -4 10 22 -2 19 0 26 4 17 5 -8 16 -16 25
-16 16 -2 16 1 2 34 -14 35 -14 35 5 18 19 -17 20 -17 30 2 6 11 7 23 3 28 -4
5 1 2 11 -5 21 -16 21 -16 1 -35 -8 -9 -12 -16 -7 -16 4 0 31 22 58 49 28 27
58 49 69 50 15 1 16 -2 7 -13z m238 -90 c0 -7 -2 -6 -6 2 -2 6 -9 10 -14 6 -5
-3 -9 2 -9 12 0 13 3 14 15 4 8 -7 15 -18 14 -24z m1631 24 c0 -5 -5 -10 -11
-10 -5 0 -7 5 -4 10 3 6 8 10 11 10 2 0 4 -4 4 -10z m-1640 -77 c0 -8 5 -11
10 -8 6 3 10 -1 10 -10 0 -18 -50 -68 -59 -60 -3 4 -1 9 4 13 16 11 41 47 28
38 -9 -5 -11 -2 -7 9 4 8 1 22 -6 30 -11 13 -10 14 4 9 9 -3 16 -13 16 -21z
m-43 -5 c-3 -8 -6 -5 -6 6 -1 11 2 17 5 13 3 -3 4 -12 1 -19z m159 -15 c-4 -4
-11 -1 -16 7 -9 14 -14 7 -11 -12 0 -5 -3 -8 -9 -8 -13 0 -13 6 2 30 11 17 14
18 27 5 8 -8 11 -18 7 -22z m167 0 c-7 -2 -21 -2 -30 0 -10 3 -4 5 12 5 17 0
24 -2 18 -5z m819 -25 c-7 -7 -12 -8 -12 -2 0 14 12 26 19 19 2 -3 -1 -11 -7
-17z m-1449 -75 c-9 -23 -19 -14 -17 15 2 37 4 40 13 17 5 -11 6 -26 4 -32z
m16 -17 c-9 -8 -10 -5 -5 14 3 14 6 32 7 40 1 8 4 2 6 -14 3 -16 -1 -34 -8
-40z m420 48 c7 9 19 16 25 16 7 0 6 -4 -2 -9 -11 -7 -11 -9 2 -14 9 -4 16 -1
16 5 0 13 71 3 109 -16 14 -8 62 -21 106 -30 86 -18 239 -62 267 -77 78 -40
259 -98 341 -108 47 -6 68 -27 24 -25 -42 3 -142 27 -189 45 -27 10 -48 14
-48 8 0 -5 -7 -9 -16 -9 -10 0 -14 5 -10 15 4 11 -3 19 -22 25 -15 6 -38 16
-52 23 -14 8 -45 19 -70 26 -25 8 -67 20 -94 29 -59 18 -181 32 -216 25 -22
-4 -25 -9 -23 -49 1 -35 -3 -44 -15 -45 -13 0 -13 -2 3 -8 13 -6 23 -4 28 6 5
7 12 11 18 8 5 -4 9 -1 9 6 0 6 8 9 20 6 14 -4 20 0 20 12 0 13 8 18 30 18 20
0 30 -5 30 -15 0 -12 4 -12 20 3 19 17 21 17 33 1 9 -12 30 -18 75 -20 39 -2
69 -9 80 -19 9 -8 35 -17 56 -19 22 -2 41 -9 44 -17 3 -10 -2 -11 -18 -6 -15
5 -20 4 -16 -4 4 -6 3 -11 -3 -11 -5 0 -13 5 -16 10 -3 6 -13 10 -21 10 -13 0
-13 -2 -2 -13 7 -7 22 -19 33 -26 19 -12 19 -12 -4 -7 -17 3 -21 2 -13 -6 11
-11 144 -14 162 -3 6 4 17 -1 25 -11 11 -16 11 -20 -2 -27 -8 -5 -23 -7 -34
-4 -10 3 -22 1 -25 -5 -3 -5 -12 -1 -20 9 -13 16 -14 15 -10 -14 4 -31 2 -33
-27 -34 -28 -1 -26 -2 18 -14 27 -8 51 -12 54 -10 2 3 -1 5 -7 5 -26 0 -10 16
18 18 17 1 30 -2 30 -8 0 -5 -4 -10 -10 -10 -5 0 -10 -7 -10 -15 0 -8 7 -15
16 -15 8 0 12 -4 9 -10 -3 -5 -1 -10 4 -10 6 0 11 -4 11 -9 0 -4 -11 -6 -25
-4 -21 4 -24 2 -20 -17 4 -19 0 -21 -28 -19 -38 3 -59 17 -50 32 3 5 1 7 -5 3
-6 -3 -13 -2 -17 4 -3 5 -10 10 -15 10 -10 0 9 -51 23 -61 5 -3 1 -9 -9 -13
-10 -4 -20 -2 -24 4 -4 6 -15 7 -25 4 -14 -6 -17 -4 -12 9 4 11 1 17 -8 17 -8
0 -15 -4 -15 -10 0 -5 -5 -10 -11 -10 -5 0 -7 5 -4 10 3 6 1 10 -4 10 -6 0
-11 5 -11 10 0 6 7 10 15 10 11 0 14 9 12 35 -1 20 -7 35 -14 35 -7 0 -13 -6
-13 -12 0 -9 -4 -8 -10 2 -8 13 -10 13 -10 -2 0 -9 8 -25 18 -34 15 -16 15
-17 0 -12 -22 9 -31 -2 -16 -20 10 -11 8 -13 -12 -10 -14 2 -24 9 -22 16 1 6
-5 12 -13 12 -8 0 -15 -4 -15 -9 0 -5 -18 -12 -40 -16 -27 -4 -38 -11 -33 -18
5 -9 3 -9 -8 -1 -8 6 -32 17 -53 24 -37 12 -41 11 -58 -10 l-18 -22 0 25 c0
14 -6 28 -12 31 -7 3 -3 3 8 1 12 -3 40 -1 63 4 37 8 66 0 41 -12 -6 -3 -5 -4
2 -3 15 3 34 33 26 41 -3 3 -23 7 -44 8 -26 2 -39 8 -39 17 0 8 -11 17 -25 20
-38 9 -38 39 -1 46 17 4 28 10 25 15 -3 5 -1 9 5 9 5 0 12 -4 15 -9 3 -5 15
-7 26 -4 11 3 17 9 14 14 -3 5 9 9 26 9 32 0 38 -20 9 -28 -11 -3 -11 -1 1 8
10 8 11 10 2 8 -24 -6 -8 -23 21 -22 17 1 27 -3 27 -12 0 -8 7 -14 16 -14 11
0 14 -6 10 -22 -6 -23 -6 -23 6 0 9 19 9 25 -1 32 -8 4 -10 13 -7 19 5 7 -3
11 -20 11 -40 0 -26 7 25 13 25 3 50 12 56 21 7 9 16 12 20 8 5 -4 5 -1 1 6
-4 7 -11 10 -16 7 -5 -3 -20 1 -34 10 -22 14 -24 14 -30 -1 -9 -24 0 -29 21
-13 15 13 15 12 5 -6 -10 -19 -62 -30 -62 -13 0 4 5 8 10 8 6 0 10 11 10 25 0
16 -6 25 -16 25 -14 0 -14 -3 -4 -15 17 -20 -4 -20 -24 0 -13 14 -16 13 -25
-2 -9 -15 -10 -15 -11 -2 0 8 5 20 10 25 7 7 0 9 -22 6 -18 -3 -27 -7 -20 -9
31 -11 -3 -18 -63 -13 -36 3 -70 3 -74 0 -15 -10 -42 -71 -36 -81 4 -5 2 -15
-3 -22 -5 -7 -12 -24 -16 -39 -3 -16 -10 -28 -15 -28 -7 0 -8 24 -3 68 1 6 10
12 20 13 10 0 12 3 5 6 -14 5 -18 33 -5 33 4 0 8 20 10 44 1 24 8 62 16 84 19
52 15 74 -14 89 -29 14 -50 5 -24 -11 29 -17 26 -85 -5 -113 -20 -17 -25 -32
-25 -73 -1 -34 -6 -54 -16 -60 -21 -13 -21 -13 -60 20 -31 27 -33 31 -17 41 9
5 17 15 17 21 0 7 -5 6 -15 -2 -22 -18 -40 -6 -43 28 -2 31 12 51 23 32 3 -5
1 -10 -5 -10 -20 0 1 -20 37 -35 43 -18 43 -18 43 -4 0 7 8 18 18 25 15 12 15
13 -6 9 -17 -3 -31 4 -49 26 -20 23 -28 27 -34 17 -7 -10 -9 -9 -9 5 0 9 7 17
16 17 8 0 12 5 9 10 -4 6 -11 7 -17 4 -7 -5 -9 2 -4 19 3 15 1 29 -5 33 -7 4
-1 15 17 29 24 19 30 21 34 8 5 -13 8 -13 19 1z m-91 -65 c-20 -11 -24 -44 -8
-54 12 -8 13 -25 1 -25 -5 0 -14 14 -21 30 -11 27 -11 32 6 45 11 8 24 14 29
14 6 0 2 -4 -7 -10z m-214 -15 c9 -22 -3 -32 -14 -14 -12 19 -12 30 -1 30 5 0
12 -7 15 -16z m523 -10 c-3 -3 -12 -4 -19 -1 -8 3 -5 6 6 6 11 1 17 -2 13 -5z
m-647 -8 c0 -11 -19 -15 -25 -6 -3 5 1 10 9 10 9 0 16 -2 16 -4z m-395 -18
c19 -9 28 -9 37 0 7 7 22 12 34 12 31 0 76 -124 75 -207 0 -58 -6 -224 -9
-275 -1 -14 -14 -40 -28 -57 -21 -26 -33 -31 -68 -31 -50 0 -74 21 -105 90
-21 46 -26 109 -12 145 4 11 2 39 -6 64 -15 52 -17 188 -3 226 8 20 26 35 57
44 1 1 14 -4 28 -11z m1005 2 c0 -5 -2 -10 -4 -10 -3 0 -8 5 -11 10 -3 6 -1
10 4 10 6 0 11 -4 11 -10z m-615 -20 c3 -5 -1 -10 -9 -10 -9 0 -16 5 -16 10 0
6 4 10 9 10 6 0 13 -4 16 -10z m50 -60 c20 -22 8 -63 -16 -57 -11 3 -19 1 -19
-5 0 -5 -5 -6 -10 -3 -6 4 -5 12 4 21 9 8 12 22 9 31 -4 11 -8 13 -11 5 -4
-14 -32 -16 -32 -2 0 6 5 10 10 10 6 0 18 16 28 37 l17 36 3 -29 c2 -16 10
-36 17 -44z m825 60 c0 -5 -2 -10 -4 -10 -3 0 -8 5 -11 10 -3 6 -1 10 4 10 6
0 11 -4 11 -10z m500 -38 c0 -4 -9 -8 -20 -9 -16 -1 -17 1 -7 12 12 13 27 11
27 -3z m-1042 -39 c-14 -18 -19 -12 -11 16 4 16 8 19 14 10 4 -7 3 -19 -3 -26z
m707 -33 c3 -5 -1 -10 -9 -10 -9 0 -16 5 -16 10 0 6 4 10 9 10 6 0 13 -4 16
-10z m169 -9 c3 -5 16 -7 29 -3 19 5 20 3 9 -10 -17 -21 2 -28 39 -15 21 8 33
6 63 -12 36 -22 119 -33 143 -18 6 4 13 3 15 -3 2 -6 12 -12 23 -14 30 -6 72
-25 57 -25 -7 -1 -10 -5 -7 -11 8 -13 -1 -13 -28 2 -19 9 -20 9 -10 -3 9 -12
4 -14 -30 -13 -23 0 -44 2 -47 3 -14 9 -116 7 -121 -2 -9 -13 -31 2 -23 15 4
6 2 8 -3 5 -6 -4 -16 0 -23 8 -9 10 -9 15 -1 15 6 0 11 4 11 10 0 5 -7 7 -15
4 -8 -4 -15 -1 -15 5 0 7 -8 8 -25 1 -25 -10 -55 -4 -55 10 0 5 6 10 13 13 8
3 7 10 -7 26 -11 11 -14 21 -8 21 6 0 13 -4 16 -9z m-1154 -31 c0 -5 5 -9 11
-7 6 1 14 -4 16 -10 3 -8 -5 -13 -21 -13 -19 0 -24 5 -23 20 1 20 17 29 17 10z
m352 -41 c10 -9 18 -22 18 -29 0 -7 7 -10 16 -6 8 3 12 2 9 -4 -3 -6 -10 -10
-15 -10 -18 0 -65 56 -67 80 -3 24 -2 24 9 5 6 -11 20 -27 30 -36z m-62 31 c0
-5 -4 -10 -10 -10 -5 0 -10 5 -10 10 0 6 5 10 10 10 6 0 10 -4 10 -10z m260
-15 c0 -8 -2 -15 -4 -15 -2 0 -6 7 -10 15 -3 8 -1 15 4 15 6 0 10 -7 10 -15z
m560 -5 c0 -5 -5 -10 -11 -10 -5 0 -7 5 -4 10 3 6 8 10 11 10 2 0 4 -4 4 -10z
m460 6 c0 -3 -4 -8 -10 -11 -5 -3 -10 -1 -10 4 0 6 5 11 10 11 6 0 10 -2 10
-4z m-1753 -40 c-13 -13 -16 -13 -20 -1 -4 8 1 15 11 18 24 5 27 0 9 -17z
m203 14 c0 -5 -4 -10 -10 -10 -5 0 -10 5 -10 10 0 6 5 10 10 10 6 0 10 -4 10
-10z m-691 -32 c5 -18 13 -62 16 -98 3 -36 8 -86 11 -112 4 -39 1 -51 -19 -72
-13 -13 -27 -22 -33 -18 -16 12 -64 141 -64 173 0 70 39 159 70 159 4 0 13
-15 19 -32z m1848 2 c6 0 9 -9 6 -20 -4 -16 0 -20 20 -20 14 0 34 -3 44 -6 15
-5 15 -4 3 5 -29 21 0 22 57 3 54 -19 143 -39 116 -26 -26 11 -13 32 17 29 17
-1 33 -5 36 -8 3 -3 12 -3 20 0 8 3 14 -1 14 -11 0 -17 -12 -21 -24 -9 -20 20
-42 8 -37 -21 1 -5 -5 -16 -14 -26 -8 -9 -12 -20 -8 -25 5 -4 2 -5 -4 -1 -7 4
-13 13 -13 19 0 22 -17 38 -45 43 -25 4 -27 3 -15 -11 10 -12 10 -15 -2 -15
-8 0 -19 5 -25 11 -8 8 -16 7 -30 -1 -16 -10 -29 -8 -76 14 -32 14 -63 26 -70
25 -7 0 -1 -5 12 -10 29 -11 24 -20 -7 -12 -16 4 -21 11 -17 23 3 9 -1 23 -10
30 -11 9 -12 17 -4 32 10 18 12 18 28 4 10 -9 22 -16 28 -16z m-1056 13 c5
-31 2 -53 -6 -52 -5 0 -10 8 -9 19 0 10 -3 17 -8 14 -4 -3 -8 2 -8 10 0 16 29
23 31 9z m479 -13 c0 -5 -4 -10 -10 -10 -5 0 -10 5 -10 10 0 6 5 10 10 10 6 0
10 -4 10 -10z m630 -20 c0 -5 -4 -10 -9 -10 -6 0 -13 5 -16 10 -3 6 1 10 9 10
9 0 16 -4 16 -10z m100 -5 c11 -13 10 -14 -4 -9 -9 3 -16 10 -16 15 0 13 6 11
20 -6z m-1560 -15 c-8 -5 -7 -9 5 -14 9 -3 13 -11 9 -17 -5 -9 -11 -6 -21 6
-18 26 -17 46 3 38 11 -4 12 -8 4 -13z m44 6 c-21 -15 -30 -14 -19 3 3 6 14
11 23 11 13 0 13 -2 -4 -14z m1576 -6 c0 -5 -2 -10 -4 -10 -3 0 -8 5 -11 10
-3 6 -1 10 4 10 6 0 11 -4 11 -10z m-1290 -20 c8 -5 12 -11 10 -14 -3 -2 -14
2 -24 10 -22 15 -10 19 14 4z m340 -30 c-5 -17 -6 -30 -3 -30 3 0 0 -6 -6 -14
-6 -7 -9 -20 -6 -28 6 -15 -22 -34 -33 -23 -3 3 0 5 7 5 7 0 10 10 7 25 -5 28
23 107 35 100 4 -3 4 -19 -1 -35z m1113 27 c17 -6 17 -7 0 -25 -23 -24 -41
-17 -35 13 2 14 7 23 11 21 3 -1 14 -6 24 -9z m-1723 -3 c0 -3 -7 -12 -15 -20
-13 -14 -15 -13 -15 5 0 12 6 21 15 21 8 0 15 -3 15 -6z m718 -4 c6 0 12 -5
12 -10 0 -12 -50 -2 -65 13 -7 6 -2 8 15 3 14 -3 31 -6 38 -6z m-22 -35 c-5
-14 4 -19 29 -16 6 0 23 -10 39 -24 16 -14 40 -25 53 -25 12 0 23 -5 23 -11 0
-5 5 -7 12 -3 8 5 9 2 5 -10 -4 -10 -7 -20 -7 -22 0 -9 -49 -3 -55 6 -3 6 -12
10 -18 10 -7 0 -6 -4 3 -10 10 -6 11 -10 3 -10 -7 0 -18 9 -25 20 -7 11 -22
19 -33 19 -17 -1 -17 -2 -2 -6 9 -2 17 -9 17 -15 0 -6 -9 -8 -22 -4 -13 4 -38
9 -55 13 -18 3 -33 8 -34 12 -7 72 -7 71 17 71 12 0 26 5 29 10 10 16 28 12
21 -5z m1124 0 c31 -16 37 -29 20 -40 -6 -4 -7 -11 -4 -17 4 -6 9 -6 13 -1 3
5 15 15 26 22 11 7 13 10 4 8 -9 -3 -16 1 -16 9 0 24 27 16 37 -11 6 -17 17
-25 32 -25 19 0 20 2 8 10 -21 13 -7 12 74 -5 42 -8 73 -20 79 -30 6 -12 16
-15 34 -10 22 5 24 3 17 -17 -6 -20 -5 -21 10 -9 14 12 16 12 11 0 -4 -10 9
-19 42 -29 27 -8 56 -15 66 -15 22 -2 48 -25 28 -25 -10 0 -10 -4 -3 -12 5 -7
12 -22 14 -33 2 -11 8 -20 13 -20 6 -1 27 -7 48 -14 46 -16 57 -10 22 13 -14
9 -25 21 -25 27 0 15 46 3 79 -20 29 -20 71 -25 71 -9 0 6 15 8 36 6 32 -4 34
-3 18 9 -11 8 -30 11 -44 8 -18 -4 -35 1 -53 15 -32 26 -36 48 -5 26 28 -20
50 -21 25 -2 -12 10 -15 16 -7 21 8 5 6 13 -6 26 -17 19 -16 19 27 0 24 -12
55 -21 69 -21 40 -1 113 -23 144 -44 25 -16 80 -25 154 -26 13 0 33 -7 45 -15
12 -8 39 -15 60 -17 20 -1 37 -6 37 -10 0 -4 21 -8 46 -8 32 0 43 -3 38 -12
-4 -7 -3 -8 5 -4 6 4 18 2 26 -4 8 -6 19 -9 25 -5 5 3 13 -1 16 -9 3 -9 10
-13 15 -10 14 8 90 -16 96 -32 3 -7 13 -14 23 -14 10 0 39 -9 65 -20 33 -14
52 -17 64 -10 12 6 22 5 29 -2 7 -7 12 -8 12 -2 0 5 -12 17 -27 27 l-28 17 28
-5 c15 -3 39 -8 55 -11 l27 -6 -25 -10 c-14 -6 -20 -12 -13 -15 10 -3 8 -9 -4
-21 -12 -12 -18 -13 -21 -4 -2 7 -21 11 -50 11 -28 -1 -37 -4 -22 -6 14 -3 30
-9 37 -15 6 -5 26 -10 43 -10 30 -1 44 -12 45 -33 0 -5 11 -10 25 -11 14 0 36
-2 50 -3 23 -2 23 -3 5 -10 -19 -8 -19 -8 2 -15 12 -4 31 -2 43 4 16 8 20 8
20 -4 0 -8 -8 -20 -17 -25 -14 -8 -14 -10 -4 -11 11 0 12 -3 3 -12 -8 -8 -15
-8 -26 2 -9 7 -14 15 -12 19 2 3 -15 7 -37 8 -23 1 -43 6 -45 12 -2 6 -8 8
-13 5 -14 -8 -41 16 -35 31 3 8 -2 11 -13 8 -10 -2 -23 2 -30 11 -9 11 -19 13
-37 5 -36 -13 -64 -11 -64 5 0 14 -22 27 -43 25 -7 0 -2 -4 11 -10 15 -6 21
-13 15 -21 -4 -7 -8 -17 -8 -23 0 -5 -8 -11 -18 -13 -16 -3 -17 -1 -7 17 9 18
8 22 -7 27 -10 3 -26 10 -35 15 -28 14 -32 11 -9 -8 22 -19 19 -32 -14 -52
-19 -12 -19 -12 2 -8 37 8 37 -11 1 -21 -22 -6 -38 -5 -47 2 -12 9 -12 11 2
14 11 2 15 11 13 25 -3 12 -5 25 -5 30 -1 4 -6 7 -12 7 -6 0 -9 -7 -5 -15 4
-10 -1 -15 -14 -15 -11 0 -20 -5 -20 -10 0 -7 -9 -6 -22 2 -13 7 -27 13 -33
14 -5 0 -18 4 -28 9 -9 4 -29 5 -42 3 -14 -3 -25 -1 -25 3 0 5 -11 9 -25 9
-14 0 -25 5 -25 10 0 7 14 9 38 5 l37 -6 -35 17 c-26 13 -31 18 -17 21 9 3 17
8 17 13 0 4 -9 6 -20 3 -14 -4 -20 0 -20 11 0 25 -33 4 -35 -23 -1 -15 2 -18
11 -10 16 13 31 -8 16 -23 -7 -7 -18 -6 -33 3 -13 7 -33 14 -43 16 -10 2 -29
15 -41 29 -19 22 -23 23 -28 10 -10 -25 3 -48 24 -43 11 3 22 1 25 -4 3 -5 0
-9 -5 -9 -22 0 -10 -18 15 -24 20 -5 24 -10 16 -18 -18 -18 -149 -7 -137 12 7
11 -21 20 -32 9 -5 -5 -20 -2 -37 7 -16 8 -41 16 -56 17 -14 2 -31 7 -38 11
-7 4 -12 3 -12 -2 0 -13 -59 -21 -67 -10 -3 6 -17 7 -32 4 -19 -5 -22 -4 -11
4 8 5 11 10 5 11 -37 5 -58 10 -123 28 -40 11 -78 23 -84 27 -6 4 -45 8 -87
10 -42 1 -79 3 -83 3 -4 1 -12 10 -18 22 -11 19 -10 20 9 9 21 -11 31 3 11 15
-6 4 -8 10 -5 14 2 5 -7 6 -20 3 -14 -2 -25 0 -25 6 0 16 -31 8 -42 -11 -8
-16 -1 -21 23 -19 3 1 6 -5 6 -12 0 -9 -9 -10 -39 -2 -37 10 -52 26 -24 26 8
0 16 7 20 15 4 11 -2 15 -24 15 -17 0 -30 4 -30 10 0 5 -7 6 -17 3 -11 -4 -14
-3 -9 5 4 7 2 12 -6 12 -9 0 -9 3 2 10 8 5 22 9 30 9 10 0 8 -3 -5 -9 -18 -8
-17 -9 7 -9 14 -1 28 -7 31 -13 3 -10 8 -10 21 1 14 12 16 12 11 -1 -5 -12 0
-15 26 -12 18 2 35 8 39 14 5 9 64 6 105 -6 l20 -6 -20 15 c-11 8 -38 17 -60
20 -22 3 -53 9 -70 13 -16 4 -38 6 -48 6 -11 -1 -15 4 -10 11 5 9 3 9 -8 1
-14 -12 -109 1 -136 19 -7 5 -18 5 -24 2 -5 -4 8 -16 31 -27 55 -28 44 -35
-13 -9 -25 12 -52 21 -59 21 -7 1 2 7 20 15 19 9 41 11 50 7 10 -4 24 -7 32
-6 8 1 29 3 45 4 29 1 29 2 8 12 -13 6 -23 15 -23 20 0 8 20 5 75 -9 16 -4 18
-3 8 7 -12 13 -105 32 -153 32 -14 0 -31 4 -37 10 -7 6 -20 8 -28 4 -8 -3 -15
-2 -15 3 0 5 -12 21 -27 36 l-28 28 25 -7 c16 -4 11 1 -13 14 -22 12 -37 23
-34 26 6 6 74 -24 82 -36 5 -7 11 -6 19 5 9 13 17 14 39 6 34 -13 37 -13 37
-2 0 5 -13 11 -30 15 -16 3 -30 10 -30 16 0 14 16 13 50 -5z m436 -11 c18 -14
18 -14 -6 -3 -31 14 -36 19 -24 19 6 0 19 -7 30 -16z m-1916 -4 c0 -5 -4 -10
-10 -10 -5 0 -10 5 -10 10 0 6 5 10 10 10 6 0 10 -4 10 -10z m180 -10 c0 -5
-4 -10 -10 -10 -5 0 -10 5 -10 10 0 6 5 10 10 10 6 0 10 -4 10 -10z m1000 -5
c23 -8 46 -13 50 -10 5 3 10 1 12 -3 1 -5 23 -16 48 -25 40 -15 42 -17 13 -14
-18 2 -33 0 -33 -5 0 -4 9 -8 21 -8 11 0 17 -4 14 -10 -3 -5 -1 -10 4 -10 6 0
11 5 11 11 0 8 5 8 15 -1 16 -13 21 -35 6 -26 -5 4 -12 0 -15 -6 -5 -10 -7
-10 -12 0 -3 6 -19 12 -35 12 -21 0 -28 4 -24 13 4 6 -1 3 -9 -7 -12 -15 -16
-16 -16 -5 0 11 -9 14 -35 11 -22 -3 -35 0 -35 7 0 7 -14 10 -37 8 -23 -2 -37
-8 -35 -15 3 -15 -37 -16 -58 -2 -11 8 -8 9 12 4 24 -5 29 -2 38 21 8 21 15
25 33 21 l22 -6 -22 11 c-13 7 -23 18 -23 25 0 10 5 10 27 -1 32 -17 54 -8 28
12 -24 17 -17 16 35 -2z m748 -21 c32 -22 32 -23 12 -34 -13 -7 -20 -7 -20 -1
0 6 -13 17 -30 26 -16 9 -30 22 -30 30 0 17 21 11 68 -21z m-113 16 c3 -5 1
-10 -4 -10 -6 0 -11 5 -11 10 0 6 2 10 4 10 3 0 8 -4 11 -10z m-1659 -52 c1
-36 -2 -48 -13 -48 -9 0 -13 -6 -9 -15 9 -23 -36 -15 -64 12 -17 17 -20 22 -7
17 19 -7 24 11 5 20 -7 3 2 4 20 3 32 -4 33 -3 29 28 -4 28 -1 32 17 31 18 -1
21 -8 22 -48z m744 42 c0 -5 -4 -10 -10 -10 -5 0 -10 5 -10 10 0 6 5 10 10 10
6 0 10 -4 10 -10z m-956 -39 c-9 -10 -26 18 -18 30 5 9 9 8 14 -7 4 -10 6 -21
4 -23z m2112 30 c-4 -5 7 -12 24 -16 32 -7 51 -25 26 -25 -25 0 -66 22 -66 37
0 7 5 13 11 13 5 0 8 -4 5 -9z m-1117 -27 c3 -4 -5 -4 -19 -1 -14 4 -33 7 -43
7 -10 0 -16 4 -12 9 5 10 62 -2 74 -15z m96 -3 c-7 -12 -75 1 -75 14 0 10 9
11 40 3 22 -6 38 -13 35 -17z m45 25 c0 -11 -13 -36 -19 -36 -4 0 -7 9 -7 20
0 11 6 20 13 20 7 0 13 -2 13 -4z m-1145 -103 c0 -39 -3 -69 -7 -67 -3 2 -12
-12 -18 -31 -9 -28 -16 -34 -33 -31 -13 2 -20 9 -18 17 2 8 3 22 3 32 0 9 3
17 9 17 5 0 9 9 9 21 0 16 4 19 17 15 16 -6 33 8 33 29 0 6 -4 4 -9 -4 -5 -7
-14 -10 -20 -6 -9 5 -9 10 -1 20 7 8 9 18 6 24 -9 14 5 42 18 38 7 -2 11 -31
11 -74z m1420 67 c3 -5 1 -10 -4 -10 -6 0 -11 5 -11 10 0 6 2 10 4 10 3 0 8
-4 11 -10z m-420 -9 c4 -7 -5 -9 -22 -7 -15 2 -20 1 -10 -1 26 -7 21 -23 -8
-23 -14 0 -25 5 -25 10 0 6 -15 10 -32 10 -50 0 -17 15 40 18 28 2 53 -2 57
-7z m-715 -16 c0 -8 -4 -15 -10 -15 -5 0 -7 7 -4 15 4 8 8 15 10 15 2 0 4 -7
4 -15z m427 4 c-23 -13 -11 -30 42 -57 42 -22 80 -30 97 -20 14 9 54 -2 54
-14 0 -6 7 -8 15 -4 8 3 15 1 15 -4 0 -6 3 -9 8 -9 4 1 22 1 40 0 30 -1 32 -3
29 -28 -3 -21 -9 -27 -23 -25 -10 2 -39 5 -64 7 -25 2 -53 6 -62 10 -10 4 -25
4 -34 1 -8 -3 -12 -2 -9 4 3 6 2 10 -4 10 -5 0 -15 -8 -20 -17 -6 -10 -11 -12
-11 -5 0 6 -10 12 -23 12 -13 0 -27 4 -32 9 -6 5 -36 6 -70 1 -33 -4 -53 -8
-45 -9 13 -1 13 -2 0 -12 -12 -8 -10 -9 10 -5 14 3 32 1 40 -4 12 -8 10 -10
-10 -11 -14 -1 -35 0 -47 1 -13 1 -26 -7 -33 -19 -6 -12 -18 -21 -26 -21 -8 0
-12 5 -9 10 4 6 -5 10 -20 10 -19 0 -26 5 -24 18 2 9 -3 28 -10 41 -11 19 -11
22 1 18 7 -2 12 -10 11 -16 -2 -7 14 -11 45 -11 l47 1 -27 20 c-41 30 -34 40
27 38 30 -1 58 1 61 4 12 12 -8 27 -35 27 -27 0 -51 16 -51 33 0 13 93 2 98
-12 5 -14 22 -15 22 -1 0 5 -11 12 -25 16 -39 10 -29 19 23 21 37 2 43 0 29
-8z m1373 -10 c0 -6 -4 -7 -10 -4 -5 3 -10 11 -10 16 0 6 5 7 10 4 6 -3 10
-11 10 -16z m97 -23 c-2 -6 -15 -9 -28 -8 -29 5 -33 8 -25 20 8 13 58 2 53
-12z m-1206 0 c26 0 35 -4 32 -13 -3 -7 -9 -11 -13 -8 -5 3 -11 1 -15 -5 -8
-13 -65 -13 -85 0 -12 7 -8 10 14 10 29 0 29 1 10 16 -19 15 -19 16 1 8 11 -5
36 -8 56 -8z m239 4 c12 -8 11 -10 -7 -10 -13 0 -23 5 -23 10 0 13 11 13 30 0z
m1393 -10 c15 -17 44 -25 95 -23 6 1 12 -4 12 -9 0 -11 -92 -4 -125 8 -13 5
-14 8 -3 15 8 6 2 9 -20 9 -20 0 -31 4 -27 10 10 17 50 11 68 -10z m-2462 -36
c7 -13 17 -24 24 -24 24 0 12 -36 -18 -55 -18 -10 -34 -19 -37 -20 -18 -6 -48
-18 -62 -26 -24 -12 -25 -12 -33 9 -13 32 -15 61 -6 67 6 3 7 13 4 22 -4 11
-3 14 5 9 8 -5 12 1 12 18 0 14 5 26 11 26 6 0 8 -8 4 -19 -3 -11 -2 -22 3
-25 5 -3 12 7 15 23 5 24 10 27 35 23 18 -2 35 -13 43 -28z m666 20 c-3 -3
-12 -4 -19 -1 -8 3 -5 6 6 6 11 1 17 -2 13 -5z m316 -18 c4 -10 1 -13 -9 -9
-7 3 -14 9 -14 14 0 14 17 10 23 -5z m-723 -16 c0 -5 -9 -6 -20 -3 -11 3 -20
9 -20 13 0 5 9 6 20 3 11 -3 20 -9 20 -13z m940 7 c0 -4 0 -12 0 -19 0 -9 -3
-9 -12 0 -7 7 -20 12 -30 12 -10 0 -18 4 -18 9 0 5 14 8 30 7 17 -1 30 -5 30
-9z m71 -5 c-13 -2 -27 0 -32 5 -6 6 3 7 23 4 28 -4 29 -6 9 -9z m-891 -12 c0
-4 -11 -5 -25 -2 -14 2 -31 -1 -38 -7 -10 -8 -19 -7 -33 4 -18 13 -18 14 5 8
14 -4 22 -2 18 3 -3 5 11 8 34 6 21 -2 39 -8 39 -12z m455 10 c19 -8 19 -9 -2
-9 -12 -1 -25 4 -28 9 -7 12 2 12 30 0z m233 -11 c-20 -13 -28 -11 -22 5 3 8
12 12 21 9 12 -5 12 -7 1 -14z m92 -4 c24 -13 24 -14 4 -15 -12 0 -27 7 -34
15 -16 19 -3 19 30 0z m1740 0 c-7 -8 -16 -15 -21 -15 -5 0 -6 7 -3 15 4 8 13
15 21 15 13 0 13 -3 3 -15z m-2626 -16 c41 -11 73 -35 62 -47 -4 -3 -10 -2
-14 4 -4 5 -29 20 -57 32 -55 23 -51 28 9 11z m981 1 c3 -5 2 -10 -4 -10 -5 0
-13 5 -16 10 -3 6 -2 10 4 10 5 0 13 -4 16 -10z m50 -1 c4 -5 8 -21 9 -34 3
-20 -2 -25 -33 -29 -20 -3 -52 -2 -71 3 -30 8 -32 9 -10 11 20 2 21 3 6 7 -15
4 -16 7 -6 13 9 6 19 2 27 -8 12 -16 12 -16 13 0 0 11 5 15 15 12 13 -5 13 -9
3 -22 -11 -13 -10 -14 12 -7 30 9 44 28 27 35 -15 6 -21 30 -8 30 6 0 13 -5
16 -11z m117 -6 c9 -3 19 -11 22 -18 7 -19 -48 0 -66 23 -11 14 -10 15 7 8 11
-5 28 -10 37 -13z m1330 -1 c6 -6 3 -12 -6 -15 -9 -4 -16 -2 -16 4 0 6 -9 8
-20 4 -12 -4 -27 -1 -35 5 -8 6 -19 9 -24 6 -5 -4 -13 -1 -17 5 -9 15 103 6
118 -9z m283 8 c3 -5 2 -10 -4 -10 -5 0 -13 5 -16 10 -3 6 -2 10 4 10 5 0 13
-4 16 -10z m-1935 -15 c0 -1 -13 -5 -30 -7 -32 -5 -42 8 -12 14 16 4 42 -1 42
-7z m43 -10 c-21 -16 -28 -12 -20 9 4 9 13 13 22 10 14 -6 13 -8 -2 -19z
m-113 -5 c17 -17 18 -20 4 -20 -9 0 -23 8 -31 18 -12 14 -14 14 -10 1 3 -9 1
-22 -4 -30 -7 -11 -9 -11 -9 3 0 11 -5 15 -15 12 -8 -4 -12 -11 -8 -18 4 -6
-1 -5 -10 3 -14 11 -20 11 -32 1 -13 -10 -15 -9 -15 10 0 18 4 21 20 17 12 -3
33 1 48 9 35 18 38 18 62 -6z m-950 -13 c0 -2 -17 -19 -37 -38 l-38 -34 34 38
c33 34 41 42 41 34z m1350 -9 c41 -13 58 -34 41 -51 -7 -7 -19 -6 -37 2 -15 6
-24 14 -21 17 3 3 15 0 27 -6 12 -6 24 -9 28 -6 10 11 -12 26 -41 28 -15 1
-27 6 -27 9 0 4 -8 10 -17 12 -10 3 -12 5 -5 6 7 0 30 -5 52 -11z m-40 -28 c0
-5 -8 -10 -17 -10 -15 0 -16 2 -3 10 19 12 20 12 20 0z m1800 0 c0 -5 -4 -10
-10 -10 -5 0 -10 5 -10 10 0 6 5 10 10 10 6 0 10 -4 10 -10z m-1865 -10 c3 -6
-1 -7 -9 -4 -18 7 -21 14 -7 14 6 0 13 -4 16 -10z m301 -36 c2 -12 -1 -13 -12
-3 -7 6 -11 16 -8 21 7 11 17 3 20 -18z m-923 2 c30 -14 19 -28 -15 -21 -45
10 -67 30 -30 29 15 0 35 -4 45 -8z m2717 -36 c8 -5 12 -12 8 -15 -9 -9 -48 4
-48 16 0 12 21 11 40 -1z m-2606 -26 c4 -11 2 -12 -14 -1 -11 6 -20 15 -20 19
0 12 28 -3 34 -18z m2521 -24 c3 -6 -1 -7 -9 -4 -18 7 -21 14 -7 14 6 0 13 -4
16 -10z m-885 -10 c0 -5 -2 -10 -4 -10 -3 0 -8 5 -11 10 -3 6 -1 10 4 10 6 0
11 -4 11 -10z m1047 4 c-3 -3 -12 -4 -19 -1 -8 3 -5 6 6 6 11 1 17 -2 13 -5z
m-1023 -29 c3 -8 1 -15 -4 -15 -6 0 -10 7 -10 15 0 8 2 15 4 15 2 0 6 -7 10
-15z m943 7 c17 -5 20 -11 13 -22 -7 -12 -12 -12 -22 -2 -6 6 -22 12 -35 12
-13 0 -23 5 -23 10 0 11 32 12 67 2z m-894 -48 c-3 -7 2 -17 11 -20 9 -3 16
-11 16 -16 0 -6 -7 -5 -16 3 -12 10 -17 10 -23 0 -6 -10 -15 -6 -35 14 -31 31
-33 38 -7 30 12 -4 21 0 25 11 5 13 9 14 21 4 7 -6 11 -18 8 -26z m1082 15
c15 -6 16 -8 4 -8 -9 -1 -19 -8 -23 -16 -3 -8 -13 -15 -21 -15 -10 0 -13 5 -9
13 6 10 4 10 -7 0 -22 -21 -47 -15 -62 17 l-15 30 56 -6 c31 -4 66 -10 77 -15z
m176 -11 c45 -2 72 -7 69 -13 -3 -6 -34 -9 -72 -7 -65 3 -68 2 -69 -20 -1 -22
-2 -21 -12 5 -6 15 -14 27 -19 27 -4 0 -8 7 -8 15 0 12 4 13 19 6 10 -6 51
-11 92 -13z m-461 2 c0 -12 -8 -12 -35 0 -18 8 -17 9 8 9 15 1 27 -3 27 -9z
m335 -1 c11 -16 1 -19 -13 -3 -7 8 -8 14 -3 14 5 0 13 -5 16 -11z m362 5 c-3
-3 -12 -4 -19 -1 -8 3 -5 6 6 6 11 1 17 -2 13 -5z m-1131 -42 c-3 -18 -46 -31
-46 -13 0 6 7 11 15 11 8 0 14 3 14 8 -3 16 1 23 10 18 5 -4 8 -14 7 -24z
m447 -6 c21 -17 22 -26 1 -26 -14 0 -14 -3 -4 -15 18 -22 9 -26 -25 -10 -17 7
-38 15 -47 18 -11 4 -15 13 -11 26 6 25 57 29 86 7z m577 -7 c0 -5 -7 -9 -15
-9 -8 0 -15 -8 -16 -17 0 -10 -3 -13 -5 -6 -7 16 15 55 27 48 5 -4 9 -10 9
-16z m-900 -11 c11 -6 6 -8 -17 -5 -18 2 -30 0 -28 -3 3 -4 -9 -7 -24 -6 -16
1 -27 4 -24 9 2 4 -2 7 -9 8 -7 0 -4 4 7 9 22 9 71 3 95 -12z m629 13 c8 -5
10 -14 6 -21 -5 -8 -4 -11 3 -7 5 4 21 3 34 -2 21 -9 19 -10 -14 -10 -20 -1
-39 5 -41 12 -4 9 -8 8 -16 -3 -10 -13 -12 -13 -21 0 -7 11 -5 19 7 28 20 14
24 15 42 3z m-454 -19 c-3 -3 -11 0 -18 7 -9 10 -8 11 6 5 10 -3 15 -9 12 -12z
m215 -12 c0 -5 -7 -10 -16 -10 -8 0 -12 5 -9 10 3 6 10 10 16 10 5 0 9 -4 9
-10z m540 0 c8 -5 12 -11 9 -14 -7 -8 -49 5 -49 15 0 12 21 11 40 -1z m424
-25 c15 -22 65 -38 52 -16 -4 5 -1 11 6 13 14 5 38 -15 38 -31 0 -11 13 -15
38 -12 8 1 21 -4 29 -11 13 -10 17 -10 20 0 7 19 27 14 51 -12 18 -21 19 -26
6 -37 -12 -9 -20 -9 -39 1 -14 7 -25 17 -25 21 0 5 -6 6 -14 3 -8 -3 -11 -15
-8 -30 2 -13 0 -24 -7 -24 -5 0 -8 6 -5 13 7 20 -15 34 -66 40 -24 3 -46 11
-48 16 -6 18 -26 12 -41 -10 -10 -18 -15 -19 -22 -8 -7 12 -12 12 -31 0 l-22
-14 18 28 c19 28 18 29 -4 47 -18 14 -19 18 -6 18 9 0 19 7 22 15 9 23 40 18
58 -10z m-787 9 c-3 -3 -12 -4 -19 -1 -8 3 -5 6 6 6 11 1 17 -2 13 -5z m541
-3 c11 -7 11 -9 -1 -14 -9 -3 -21 1 -27 9 -10 11 -10 14 1 14 8 0 20 -4 27 -9z
m-863 -11 c3 -5 -1 -10 -9 -10 -9 0 -16 5 -16 10 0 6 4 10 9 10 6 0 13 -4 16
-10z m1373 -18 c2 -7 -3 -12 -12 -12 -9 0 -16 7 -16 16 0 17 22 14 28 -4z
m-744 -7 c-7 -16 -14 -18 -38 -9 -26 10 -18 24 14 24 22 0 28 -4 24 -15z m96
5 c0 -5 -4 -10 -10 -10 -5 0 -10 5 -10 10 0 6 5 10 10 10 6 0 10 -4 10 -10z
m87 4 c-3 -3 -12 -4 -19 -1 -8 3 -5 6 6 6 11 1 17 -2 13 -5z m205 -18 c4 -6 8
-15 8 -19 0 -9 -54 -4 -85 7 -11 5 -26 10 -32 12 -7 2 -13 7 -13 12 0 12 114
1 122 -12z m685 2 c-3 -8 -6 -5 -6 6 -1 11 2 17 5 13 3 -3 4 -12 1 -19z m-847
-38 c0 -5 -2 -10 -4 -10 -3 0 -8 5 -11 10 -3 6 -1 10 4 10 6 0 11 -4 11 -10z
m1113 -25 c-1 -13 5 -16 24 -12 16 3 21 1 15 -5 -18 -18 -57 -5 -60 21 -3 16
0 22 10 19 7 -3 12 -13 11 -23z m-282 -15 c5 0 9 -4 9 -10 0 -5 -9 -10 -20
-10 -11 0 -20 -4 -20 -10 0 -5 -9 -10 -20 -10 -11 0 -20 7 -20 15 0 17 30 36
48 30 8 -3 18 -5 23 -5z m80 -20 c5 0 9 -8 9 -17 0 -13 -3 -14 -12 -5 -7 7
-22 12 -35 12 -25 0 -29 10 -12 27 9 9 15 8 26 -3 8 -8 19 -14 24 -14z m349
20 c0 -5 -5 -10 -11 -10 -5 0 -7 5 -4 10 3 6 8 10 11 10 2 0 4 -4 4 -10z m480
-31 c0 -6 10 -10 23 -9 35 3 43 0 27 -10 -8 -5 -32 -10 -52 -10 -20 0 -40 -5
-44 -12 -5 -7 -10 -4 -15 10 -5 13 -18 22 -31 23 -18 1 -19 2 -5 6 10 3 24 0
31 -6 10 -9 15 -8 20 4 6 17 46 21 46 4z m-405 -19 c-6 -10 -45 -1 -45 10 0 4
11 5 25 2 14 -2 23 -8 20 -12z m-261 -25 c4 -10 -1 -15 -14 -15 -11 0 -20 7
-20 15 0 8 6 15 14 15 8 0 16 -7 20 -15z m686 -25 c0 -5 -9 -10 -20 -10 -11 0
-20 5 -20 10 0 6 9 10 20 10 11 0 20 -4 20 -10z m550 0 c0 -5 -5 -10 -11 -10
-5 0 -7 5 -4 10 3 6 8 10 11 10 2 0 4 -4 4 -10z"/>
<path d="M3520 1920 c0 -5 5 -10 11 -10 5 0 7 5 4 10 -3 6 -8 10 -11 10 -2 0
-4 -4 -4 -10z"/>
<path d="M1568 1893 c7 -3 16 -2 19 1 4 3 -2 6 -13 5 -11 0 -14 -3 -6 -6z"/>
<path d="M1395 1730 c3 -5 14 -10 23 -10 15 0 15 2 2 10 -20 13 -33 13 -25 0z"/>
<path d="M1703 1470 c-30 -12 -29 -20 0 -20 14 0 24 6 24 15 0 8 -1 15 -1 14
-1 0 -11 -4 -23 -9z"/>
<path d="M1970 1351 c0 -6 4 -13 10 -16 6 -3 7 1 4 9 -7 18 -14 21 -14 7z"/>
<path d="M1326 1505 c25 -19 40 -19 24 0 -7 8 -20 15 -28 15 -13 0 -12 -3 4
-15z"/>
<path d="M1185 1460 c3 -5 8 -10 11 -10 2 0 4 5 4 10 0 6 -5 10 -11 10 -5 0
-7 -4 -4 -10z"/>
<path d="M1242 1431 c-8 -22 -7 -31 1 -34 8 -3 12 8 13 29 1 42 -1 42 -14 5z"/>
<path d="M1060 1334 c0 -8 5 -12 10 -9 6 3 10 10 10 16 0 5 -4 9 -10 9 -5 0
-10 -7 -10 -16z"/>
<path d="M1096 954 c-4 -9 -4 -19 -1 -22 2 -3 7 3 11 12 4 9 4 19 1 22 -2 3
-7 -3 -11 -12z"/>
<path d="M1056 747 c3 -10 9 -15 12 -12 3 3 0 11 -7 18 -10 9 -11 8 -5 -6z"/>
<path d="M1075 710 c3 -5 11 -10 16 -10 6 0 7 5 4 10 -3 6 -11 10 -16 10 -6 0
-7 -4 -4 -10z"/>
<path d="M1590 1246 c0 -9 5 -16 10 -16 6 0 10 4 10 9 0 6 -4 13 -10 16 -5 3
-10 -1 -10 -9z"/>
<path d="M1620 1219 c0 -6 -7 -9 -15 -5 -20 7 -19 4 4 -23 17 -20 19 -20 32
-4 12 15 12 16 -4 10 -15 -6 -17 -3 -12 13 4 11 4 20 1 20 -3 0 -6 -5 -6 -11z"/>
<path d="M1862 1188 c6 -18 25 -20 31 -3 5 10 0 15 -14 15 -12 0 -19 -5 -17
-12z"/>
<path d="M2120 1100 c0 -5 5 -10 11 -10 5 0 7 5 4 10 -3 6 -8 10 -11 10 -2 0
-4 -4 -4 -10z"/>
<path d="M2109 1056 c9 -11 6 -12 -14 -8 -18 3 -25 0 -25 -12 0 -9 5 -16 10
-16 6 0 10 4 10 8 0 4 16 6 35 4 27 -3 35 -1 35 12 0 10 -6 13 -15 10 -8 -4
-15 -1 -15 5 0 6 -7 11 -16 11 -13 0 -14 -3 -5 -14z"/>
<path d="M2193 1015 c0 -8 7 -15 14 -15 8 0 11 5 7 12 -5 8 0 9 14 6 12 -4 20
-2 16 3 -9 15 -51 10 -51 -6z"/>
<path d="M1885 1010 c3 -5 8 -10 11 -10 2 0 4 5 4 10 0 6 -5 10 -11 10 -5 0
-7 -4 -4 -10z"/>
<path d="M1915 1000 c3 -5 8 -10 11 -10 2 0 4 5 4 10 0 6 -5 10 -11 10 -5 0
-7 -4 -4 -10z"/>
<path d="M1935 970 c-4 -6 3 -10 14 -10 25 0 27 6 6 13 -8 4 -17 2 -20 -3z"/>
<path d="M2196 945 c4 -8 8 -15 10 -15 2 0 4 7 4 15 0 8 -4 15 -10 15 -5 0 -7
-7 -4 -15z"/>
<path d="M2036 941 c-3 -5 1 -12 10 -15 20 -8 29 -1 19 13 -8 13 -22 14 -29 2z"/>
<path d="M2250 899 c0 -5 5 -7 10 -4 6 3 10 8 10 11 0 2 -4 4 -10 4 -5 0 -10
-5 -10 -11z"/>
<path d="M2556 994 c-5 -14 39 -32 51 -20 4 3 -1 6 -11 6 -9 0 -15 4 -12 9 3
5 0 11 -8 14 -8 3 -17 -1 -20 -9z"/>
<path d="M2370 977 c0 -8 7 -17 15 -21 8 -3 15 -2 15 3 0 5 -7 14 -15 21 -12
10 -15 10 -15 -3z"/>
<path d="M2515 920 c3 -5 14 -10 23 -10 15 0 15 2 2 10 -20 13 -33 13 -25 0z"/>
<path d="M2807 799 c7 -7 15 -10 18 -7 3 3 -2 9 -12 12 -14 6 -15 5 -6 -5z"/>
<path d="M3061 796 c31 -16 87 -31 76 -20 -8 9 -77 34 -92 34 -5 0 2 -6 16
-14z"/>
<path d="M3078 733 c7 -3 16 -2 19 1 4 3 -2 6 -13 5 -11 0 -14 -3 -6 -6z"/>
<path d="M3332 684 c-7 -8 -8 -14 -3 -14 10 0 25 19 20 25 -2 1 -10 -3 -17
-11z"/>
<path d="M3605 670 c28 -12 37 -12 30 0 -3 6 -16 10 -28 9 -21 0 -21 -1 -2 -9z"/>
<path d="M3904 601 c3 -5 17 -11 31 -13 20 -4 23 -3 14 8 -12 15 -54 20 -45 5z"/>
<path d="M3130 596 c0 -2 7 -7 16 -10 8 -3 12 -2 9 4 -6 10 -25 14 -25 6z"/>
<path d="M3175 580 c3 -5 8 -10 11 -10 2 0 4 5 4 10 0 6 -5 10 -11 10 -5 0 -7
-4 -4 -10z"/>
<path d="M3335 580 c3 -5 8 -10 11 -10 2 0 4 5 4 10 0 6 -5 10 -11 10 -5 0 -7
-4 -4 -10z"/>
<path d="M3415 570 c-3 -5 -2 -10 4 -10 5 0 13 5 16 10 3 6 2 10 -4 10 -5 0
-13 -4 -16 -10z"/>
<path d="M3507 573 c-4 -3 -19 -8 -34 -9 -44 -5 -46 -26 -5 -46 l37 -18 -47 5
c-30 4 -49 2 -53 -6 -5 -8 -1 -9 14 -4 16 5 32 -1 56 -19 33 -25 34 -26 44 -7
8 14 7 21 -2 24 -6 3 1 6 17 6 23 1 27 5 23 21 -3 11 -1 20 4 20 5 0 4 9 -3
20 -13 20 -38 26 -51 13z"/>
<path d="M3990 571 c0 -11 26 -22 34 -14 3 3 3 10 0 14 -7 12 -34 11 -34 0z"/>
<path d="M3617 541 c3 -12 9 -21 13 -21 12 0 5 33 -8 38 -6 2 -8 -5 -5 -17z"/>
<path d="M3186 541 c-3 -5 1 -12 10 -15 20 -8 29 -1 19 13 -8 13 -22 14 -29 2z"/>
<path d="M3840 530 c0 -6 5 -10 12 -10 6 0 20 -7 30 -17 10 -9 18 -11 18 -5 0
7 7 9 18 5 15 -6 15 -5 3 10 -7 9 -17 15 -21 12 -5 -3 -20 -1 -34 5 -17 6 -26
6 -26 0z"/>
<path d="M4122 515 c-11 -12 -10 -15 2 -15 8 0 22 -8 32 -17 20 -20 41 -25 50
-12 3 6 20 8 37 5 25 -5 27 -4 12 3 -18 9 -17 10 7 10 32 1 45 16 21 25 -9 4
-20 1 -25 -6 -5 -9 -8 -8 -8 5 0 12 -6 17 -17 15 -10 -2 -17 -11 -17 -20 1
-14 -5 -16 -30 -11 -39 7 -44 12 -26 23 12 8 11 10 -5 9 -11 0 -26 -6 -33 -14z"/>
<path d="M3692 507 c-13 -16 19 -40 42 -31 8 3 23 1 33 -6 15 -10 14 -10 -9
-5 -35 7 -36 -8 -3 -23 33 -15 58 -15 49 -1 -4 8 1 9 17 4 16 -4 20 -3 11 3
-8 5 -13 13 -11 18 3 14 -53 38 -88 37 -18 -1 -30 3 -27 8 8 14 -2 11 -14 -4z"/>
<path d="M3655 500 c-4 -6 -13 -9 -21 -6 -7 3 -16 1 -19 -3 -3 -5 2 -12 11
-15 15 -6 51 20 41 30 -3 3 -8 0 -12 -6z"/>
<path d="M3956 488 c5 -8 0 -9 -14 -6 -12 4 -22 2 -22 -4 0 -14 43 -5 48 10 2
6 -1 12 -8 12 -6 0 -8 -5 -4 -12z"/>
<path d="M4040 490 c8 -5 20 -10 25 -10 6 0 3 5 -5 10 -8 5 -19 10 -25 10 -5
0 -3 -5 5 -10z"/>
<path d="M3556 464 c-5 -12 -1 -14 15 -9 13 5 19 3 15 -3 -3 -5 1 -12 9 -16
21 -8 19 14 -2 30 -23 17 -30 17 -37 -2z"/>
<path d="M4250 446 c0 -2 11 -6 25 -8 14 -3 25 -1 25 3 0 5 -11 9 -25 9 -14 0
-25 -2 -25 -4z"/>
<path d="M4335 430 c-3 -5 -1 -10 4 -10 6 0 11 5 11 10 0 6 -2 10 -4 10 -3 0
-8 -4 -11 -10z"/>
<path d="M4620 351 c0 -5 5 -13 10 -16 6 -3 10 -2 10 4 0 5 -4 13 -10 16 -5 3
-10 2 -10 -4z"/>
<path d="M2631 800 c-18 -11 0 -19 23 -10 16 5 17 8 4 12 -8 4 -21 3 -27 -2z"/>
<path d="M1945 720 c3 -5 11 -10 16 -10 6 0 7 5 4 10 -3 6 -11 10 -16 10 -6 0
-7 -4 -4 -10z"/>
<path d="M1985 650 c3 -5 11 -10 16 -10 6 0 7 5 4 10 -3 6 -11 10 -16 10 -6 0
-7 -4 -4 -10z"/>
<path d="M2038 643 c6 -2 18 -2 25 0 6 3 1 5 -13 5 -14 0 -19 -2 -12 -5z"/>
<path d="M2088 633 c7 -3 16 -2 19 1 4 3 -2 6 -13 5 -11 0 -14 -3 -6 -6z"/>
<path d="M1888 593 c7 -3 16 -2 19 1 4 3 -2 6 -13 5 -11 0 -14 -3 -6 -6z"/>
<path d="M5817 203 c3 -7 9 -13 13 -13 4 0 10 6 13 13 3 7 -3 13 -13 13 -10 0
-16 -6 -13 -13z"/>
<path d="M5905 180 c3 -5 8 -10 11 -10 2 0 4 5 4 10 0 6 -5 10 -11 10 -5 0 -7
-4 -4 -10z"/>
<path d="M2592 5276 c-23 -30 -54 -83 -69 -118 -22 -51 -47 -82 -132 -166 -58
-57 -125 -117 -150 -134 -64 -43 -151 -129 -151 -149 0 -24 -48 -79 -70 -79
-9 0 -34 13 -55 30 -45 36 -75 46 -85 30 -15 -25 18 -100 108 -244 53 -85 56
-88 87 -83 43 7 247 -10 254 -21 3 -5 17 -12 31 -15 87 -20 153 -47 198 -79
28 -21 77 -52 109 -69 82 -46 145 -90 139 -97 -3 -3 3 -12 15 -20 11 -8 18
-20 15 -28 -3 -8 -1 -14 4 -14 10 0 72 -88 74 -107 1 -7 11 -22 22 -35 l19
-22 -30 18 c-16 11 -44 34 -61 52 -18 19 -39 34 -47 34 -8 0 -23 3 -33 7 -13
5 -16 3 -11 -10 3 -9 2 -17 -4 -17 -6 0 -7 -5 -4 -10 4 -6 11 -8 16 -4 17 10
59 -5 59 -21 0 -8 3 -15 8 -15 15 0 83 -66 86 -82 1 -10 15 -31 31 -48 25 -26
36 -30 79 -30 95 1 271 29 381 59 192 54 282 71 418 81 73 5 159 16 192 25 75
21 173 13 206 -16 36 -31 61 -33 238 -19 l166 14 32 33 c57 60 214 107 408
122 72 6 207 21 300 33 161 21 198 22 695 19 469 -3 531 -5 585 -21 33 -10 98
-26 145 -35 47 -9 110 -26 140 -37 50 -18 223 -67 420 -118 96 -25 346 -62
573 -84 l57 -6 0 775 0 775 -337 0 c-281 -1 -341 -3 -357 -15 -25 -19 -60 -19
-80 0 -13 13 -90 15 -569 15 l-554 0 -6 -29 c-5 -22 -13 -29 -39 -34 -18 -4
-42 -9 -54 -12 -17 -5 -24 1 -39 34 l-18 41 -104 0 c-56 0 -103 -3 -103 -7 -1
-5 -5 -80 -10 -167 -6 -124 -5 -175 5 -231 8 -40 12 -88 8 -108 -5 -31 -2 -37
24 -50 17 -9 75 -18 147 -23 115 -7 118 -8 147 -38 21 -22 29 -39 27 -60 -3
-28 -6 -30 -48 -31 -30 0 -56 -8 -77 -23 -26 -18 -36 -20 -58 -12 -41 16 -100
12 -156 -10 -29 -12 -58 -19 -65 -16 -7 3 -18 -2 -24 -9 -10 -12 -8 -23 8 -53
l20 -39 -29 -26 c-16 -14 -29 -21 -29 -15 0 6 -12 8 -27 5 -15 -3 -37 1 -49
10 -16 10 -24 11 -29 2 -4 -6 -1 -15 6 -20 11 -6 11 -9 1 -9 -7 0 -18 11 -24
25 -9 19 -18 25 -36 23 -20 -2 -28 -13 -40 -51 -8 -26 -22 -52 -31 -57 -9 -4
-47 -5 -86 0 -58 6 -76 4 -107 -11 -50 -25 -65 -24 -82 9 l-15 27 -1 -28 c0
-16 -4 -26 -10 -22 -5 3 -10 2 -10 -2 0 -5 12 -16 28 -25 l27 -17 -38 -1 c-23
0 -40 5 -43 14 -3 8 -27 17 -55 21 -51 7 -75 29 -59 55 5 9 27 12 69 11 59 -2
61 -1 97 39 20 22 41 40 48 40 6 0 29 14 50 30 38 29 96 41 96 20 0 -5 5 -10
11 -10 5 0 7 5 4 10 -4 6 11 29 33 51 32 34 47 42 84 45 26 2 73 18 112 38
131 68 150 98 120 188 -13 40 -15 70 -10 137 4 66 1 108 -14 181 -11 52 -20
116 -20 143 l0 47 -155 0 -155 0 0 -162 c0 -130 -4 -173 -19 -222 -10 -34 -24
-87 -29 -119 -7 -36 -21 -70 -37 -88 -14 -17 -25 -36 -25 -43 0 -15 -54 -56
-72 -56 -7 0 -22 13 -33 27 -33 46 -25 199 20 383 7 30 16 80 20 111 3 31 13
78 21 104 7 27 14 52 14 57 0 4 -65 8 -144 8 l-145 0 -5 -52 c-19 -206 -28
-265 -46 -316 -12 -31 -25 -71 -29 -88 -5 -17 -18 -41 -31 -54 -30 -30 -46
-73 -55 -145 -11 -92 -58 -130 -103 -82 -34 36 -44 70 -62 212 -6 44 -19 116
-30 160 -11 44 -20 108 -20 142 0 84 -25 114 -114 137 -86 21 -135 20 -166 -4
-14 -11 -30 -20 -37 -20 -18 0 -34 -35 -36 -79 -1 -35 5 -44 85 -122 55 -53
89 -95 94 -114 4 -16 27 -72 50 -123 50 -106 56 -163 25 -234 -35 -80 -60 -95
-228 -135 -25 -6 -32 -23 -10 -23 8 0 51 -18 97 -41 70 -34 88 -39 107 -30 22
10 23 8 23 -24 0 -19 7 -49 16 -68 22 -47 6 -102 -49 -163 -37 -40 -47 -46
-69 -41 -16 4 -28 16 -32 32 -7 27 -7 27 -109 8 -23 -4 -35 2 -65 34 -48 50
-137 196 -159 260 -7 17 -28 57 -47 87 -20 31 -37 71 -38 89 -3 30 -1 32 27
30 17 -1 44 -5 62 -8 l31 -7 7 67 c10 86 2 157 -19 189 -15 24 -22 26 -92 26
-74 0 -75 0 -85 30 -9 24 -17 30 -39 30 -16 0 -31 -4 -34 -8 -3 -5 -31 -15
-63 -22 -40 -9 -69 -23 -93 -47 -42 -39 -44 -39 -76 -14 -23 18 -25 18 -61 0
-43 -22 -53 -35 -53 -70 0 -34 -23 -53 -68 -56 -19 -1 -40 -7 -46 -13 -5 -5
-34 -10 -63 -10 -50 0 -53 -2 -53 -25 0 -39 -54 -44 -116 -11 -27 14 -54 26
-60 26 -6 0 -29 20 -52 44 -23 25 -51 47 -62 51 -24 8 -26 40 -4 53 12 7 15
17 10 35 -5 20 -13 26 -38 29 -30 3 -34 8 -50 58 -24 78 -23 85 22 134 44 48
84 62 145 50 52 -9 120 -75 140 -133 29 -87 100 -133 230 -147 66 -7 80 11 58
76 -12 36 -13 50 -3 82 7 20 17 35 21 32 5 -3 16 11 26 30 22 47 9 99 -27 104
-31 5 -50 -21 -50 -70 0 -26 -5 -41 -16 -45 -18 -7 -56 27 -59 54 -6 63 -60
100 -127 88 -24 -4 -41 0 -63 15 -16 11 -45 30 -62 41 -29 18 -33 26 -33 65
l0 44 -163 0 -162 0 -43 -54z m1169 -469 c-1 -12 -15 -9 -19 4 -3 6 1 10 8 8
6 -3 11 -8 11 -12z m-62 -16 c7 -5 16 -29 18 -55 7 -57 -13 -63 -41 -12 -10
19 -25 37 -32 40 -8 3 -14 12 -14 21 0 17 45 21 69 6z m906 -332 c92 -45 114
-60 143 -97 60 -76 70 -148 25 -194 l-26 -27 -59 89 c-62 95 -115 140 -164
140 -69 0 -128 50 -111 94 12 31 125 28 192 -5z m1463 -192 c31 -28 28 -44
-17 -87 -53 -52 -86 -57 -147 -25 -27 14 -53 30 -58 35 -12 12 22 45 84 79 61
33 99 33 138 -2z"/>
<path d="M1585 5065 c-59 -21 -95 -65 -95 -118 0 -23 7 -53 16 -66 15 -20 22
-23 60 -17 62 8 109 36 184 107 l65 61 -28 24 c-24 20 -38 24 -95 24 -37 -1
-85 -7 -107 -15z"/>
<path d="M2041 4316 c-14 -8 -31 -12 -38 -9 -7 3 -13 -2 -13 -11 0 -9 -4 -16
-10 -16 -5 0 -10 7 -10 16 0 9 -3 14 -7 12 -109 -51 -141 -70 -159 -94 -36
-52 -37 -51 15 -46 29 2 57 -1 72 -9 13 -7 32 -12 42 -10 9 1 17 -4 17 -11 0
-9 3 -9 10 2 8 12 10 10 10 -10 1 -23 2 -23 15 8 17 39 34 42 28 5 -3 -25 -2
-26 6 -7 14 33 35 42 26 13 -8 -24 -8 -24 14 -5 16 15 21 16 21 5 0 -8 -6 -21
-12 -29 -15 -16 7 -2 55 37 52 42 127 23 221 -56 27 -23 58 -43 70 -46 48 -9
122 -18 139 -16 9 1 24 -5 33 -13 8 -9 23 -16 32 -16 15 0 15 2 2 10 -13 8
-13 10 2 10 9 0 19 6 22 13 3 6 3 0 0 -14 -7 -32 24 -50 42 -24 9 12 23 14 68
10 34 -4 56 -3 56 4 0 13 -67 34 -87 27 -8 -4 -35 4 -60 16 -25 12 -40 24 -34
26 24 8 9 22 -30 28 -22 4 -47 13 -55 21 -8 8 -22 12 -33 8 -13 -4 -21 0 -25
12 -3 10 -24 37 -47 61 -23 23 -36 42 -28 42 7 0 9 3 5 7 -4 4 -17 -5 -29 -19
-20 -24 -27 -25 -67 -19 -28 4 -40 9 -32 14 26 17 -1 28 -56 23 -32 -3 -49 -3
-39 0 20 6 23 24 4 24 -6 0 -27 -4 -45 -9 -26 -8 -34 -7 -39 5 -3 7 -11 14
-19 14 -8 0 -14 7 -14 15 0 18 -8 18 -39 1z m396 -132 c-8 -9 -57 4 -57 15 0
16 34 18 49 5 8 -8 12 -16 8 -20z m193 -128 c0 -11 -19 -15 -25 -6 -3 5 1 10
9 10 9 0 16 -2 16 -4z"/>
<path d="M2150 4136 c-19 -24 -8 -60 23 -70 23 -9 31 -6 50 14 l22 24 -22 -18
c-33 -27 -75 -15 -71 21 2 15 9 28 16 31 7 2 10 -2 6 -11 -6 -17 11 -31 26
-22 12 7 -10 45 -26 45 -6 0 -17 -7 -24 -14z"/>
<path d="M2210 4146 c0 -2 7 -7 16 -10 8 -3 12 -2 9 4 -6 10 -25 14 -25 6z"/>
<path d="M1860 4132 c0 -5 7 -15 15 -22 8 -7 15 -8 15 -2 0 5 -7 15 -15 22 -8
7 -15 8 -15 2z"/>
<path d="M1940 4107 c0 -10 8 -17 18 -17 9 0 13 4 7 8 -5 4 -13 11 -17 16 -5
5 -8 2 -8 -7z"/>
<path d="M2057 4093 c-4 -3 -7 -11 -7 -17 0 -6 5 -5 12 2 6 6 9 14 7 17 -3 3
-9 2 -12 -2z"/>
<path d="M1980 4070 c-9 -6 -10 -10 -3 -10 6 0 15 5 18 10 8 12 4 12 -15 0z"/>
<path d="M2309 4065 c-4 -3 -21 -7 -39 -10 -18 -2 -38 -9 -44 -15 -8 -8 -3 -9
19 -3 38 10 71 9 114 -1 24 -6 32 -5 27 3 -4 6 -20 11 -36 11 -15 0 -30 5 -32
11 -2 5 -6 8 -9 4z"/>
<path d="M2101 4029 c8 -5 34 -8 59 -8 53 1 44 6 -24 12 -30 3 -43 1 -35 -4z"/>
<path d="M2326 4006 c7 -18 32 -28 39 -16 4 6 -1 10 -10 10 -9 0 -13 5 -10 10
3 6 -1 10 -9 10 -9 0 -13 -6 -10 -14z"/>
<path d="M2268 4003 c7 -3 16 -2 19 1 4 3 -2 6 -13 5 -11 0 -14 -3 -6 -6z"/>
<path d="M2785 3860 c3 -5 11 -10 16 -10 6 0 7 5 4 10 -3 6 -11 10 -16 10 -6
0 -7 -4 -4 -10z"/>
<path d="M2825 3840 c3 -6 21 -17 38 -26 l32 -17 -24 27 c-23 25 -59 37 -46
16z"/>
<path d="M2750 3810 c0 -5 9 -10 21 -10 12 0 50 -27 87 -62 37 -34 83 -76 102
-93 l34 -30 -27 35 c-15 19 -36 52 -47 72 -11 20 -30 40 -42 44 -13 4 -37 17
-54 30 -31 24 -74 32 -74 14z"/>
<path d="M2694 3788 c-3 -4 6 -8 20 -8 14 0 26 4 26 8 0 4 -9 8 -21 8 -11 0
-23 -4 -25 -8z"/>
<path d="M6315 3793 c-22 -2 -50 -9 -63 -15 -18 -9 -33 -9 -68 0 -75 20 -144
12 -104 -13 6 -3 10 -11 10 -16 0 -13 -128 -6 -156 8 -65 34 -273 15 -460 -42
-28 -9 -84 -18 -125 -20 -135 -7 -208 -17 -220 -31 -6 -8 -16 -14 -21 -14 -6
0 -18 -11 -29 -24 -19 -24 -115 -51 -143 -40 -8 3 -31 1 -52 -5 -25 -7 -42 -7
-48 -1 -15 15 -59 12 -82 -5 -25 -19 -73 -19 -80 0 -4 8 -11 15 -16 15 -6 0
-33 14 -61 31 -52 32 -97 34 -97 4 0 -8 -5 -15 -11 -15 -6 0 22 -35 61 -77 39
-43 78 -93 86 -112 8 -19 31 -54 50 -78 27 -33 34 -47 25 -56 -17 -17 -14 -32
20 -103 22 -47 28 -74 24 -94 -7 -31 30 -110 51 -110 20 0 95 -72 113 -109 50
-97 92 -310 91 -456 -1 -29 -1 -29 -16 -10 -16 19 -16 19 -9 -5 4 -14 13 -28
19 -32 18 -12 3 -350 -21 -445 -8 -34 -25 -15 -21 23 3 26 1 31 -9 22 -16 -13
-16 -4 0 50 7 23 17 39 21 35 4 -4 5 10 1 32 -12 65 -14 62 -35 -38 -20 -98
-20 -58 0 58 24 136 25 185 6 185 -18 0 -26 25 -28 84 0 38 -3 44 -14 35 -8
-6 -21 -9 -29 -5 -13 4 -14 2 -5 -14 12 -22 13 -80 2 -80 -13 0 -44 108 -37
130 7 21 -11 63 -24 55 -18 -10 -24 -78 -26 -290 -2 -132 -9 -268 -19 -340 -9
-66 -16 -137 -16 -157 0 -26 -5 -38 -14 -38 -9 0 -16 -18 -20 -51 -4 -28 -18
-76 -32 -106 -26 -60 -20 -89 12 -62 16 13 17 10 10 -48 -9 -78 -29 -158 -62
-239 -24 -61 -25 -65 -9 -98 10 -20 14 -44 10 -55 -6 -19 -2 -21 32 -22 68 -3
84 -6 96 -21 44 -56 159 -106 342 -148 50 -11 108 -25 130 -30 138 -34 297
-53 508 -61 161 -7 240 -14 270 -25 23 -8 79 -26 125 -39 85 -24 116 -40 106
-56 -3 -5 2 -9 11 -9 9 0 26 -10 38 -23 33 -35 52 -38 81 -16 30 23 40 19 61
-22 9 -16 20 -29 25 -29 13 0 13 33 -1 47 -6 6 -7 13 -1 17 5 3 18 -10 28 -29
10 -19 27 -38 37 -41 14 -4 16 -9 7 -20 -10 -11 -7 -16 13 -25 16 -7 23 -17
20 -29 -3 -12 2 -20 17 -25 17 -5 20 -12 16 -31 -4 -16 -2 -24 7 -24 13 0 47
90 47 125 0 17 -2 17 -23 -3 -29 -27 -52 -29 -42 -4 27 65 27 73 10 92 -22 24
-43 26 -51 5 -4 -8 -10 -15 -15 -15 -5 0 -2 11 6 24 16 23 15 25 -7 28 -32 4
-36 43 -6 59 27 14 48 41 42 51 -3 4 -13 3 -22 -2 -30 -15 -110 -30 -129 -23
-10 4 -31 16 -48 29 -16 12 -47 27 -68 34 -38 12 -39 13 -32 48 8 45 35 88 45
72 6 -9 13 -9 29 -1 23 13 26 22 11 37 -6 6 -3 22 10 47 16 30 17 37 6 37 -8
0 -16 -10 -18 -22 -4 -29 -24 -34 -31 -8 -8 30 -34 24 -46 -10 -12 -35 -20
-37 -51 -10 -29 26 -46 25 -61 -1 l-11 -21 -23 22 c-13 12 -26 38 -30 58 -8
42 -21 62 -41 62 -10 0 -14 -16 -14 -64 0 -63 -14 -93 -36 -78 -16 10 -74 160
-74 191 0 14 -7 51 -15 81 -20 75 -19 196 5 380 23 175 25 236 9 277 -23 60
-38 173 -28 201 6 15 8 44 4 66 -4 30 0 47 20 82 l26 44 -18 49 c-15 43 -15
53 -3 75 10 20 11 29 2 38 -21 21 -13 37 23 44 57 10 46 23 -32 39 -24 5 -33
12 -33 27 0 11 -5 18 -12 15 -7 -2 -12 -10 -10 -17 4 -16 -25 -60 -39 -60 -7
0 -6 6 2 16 9 12 14 47 14 110 1 83 3 97 23 116 28 29 38 18 17 -21 l-16 -31
36 0 c30 0 37 4 49 35 8 19 20 35 26 35 7 0 9 10 5 28 -5 23 -1 31 20 42 24
13 25 15 8 21 -22 8 -104 -31 -98 -48 6 -18 -18 -33 -43 -26 -30 8 -28 25 10
62 34 33 69 48 88 36 6 -4 18 -1 26 6 8 6 17 9 21 5 4 -3 12 7 19 24 8 17 25
34 41 40 15 6 37 14 48 19 11 5 39 12 62 14 36 4 57 17 123 76 45 39 86 72 93
73 7 1 35 2 62 3 28 1 79 5 115 9 51 6 66 5 75 -7 9 -13 15 -13 50 1 22 8 73
17 112 19 72 5 73 4 84 -23 5 -16 8 -36 6 -46 -3 -10 8 -43 24 -73 30 -55 54
-155 37 -155 -5 0 -21 26 -35 58 -15 31 -39 78 -54 104 -26 43 -27 48 -11 57
9 6 12 11 6 11 -13 0 -92 -55 -114 -79 -8 -9 -32 -30 -53 -45 -21 -15 -42 -39
-47 -52 -10 -25 -24 -31 -35 -15 -3 6 4 19 17 30 12 12 19 23 16 27 -11 10
-57 -27 -52 -41 3 -7 -8 -42 -25 -77 -16 -36 -33 -77 -36 -91 -4 -15 -11 -30
-16 -33 -5 -3 -9 -20 -9 -39 0 -19 -4 -36 -9 -39 -5 -4 -33 13 -61 36 -29 24
-68 53 -88 65 -43 26 -55 53 -46 102 7 36 7 36 -14 18 -29 -26 -38 -91 -18
-122 9 -14 23 -25 31 -25 26 0 26 -20 1 -44 -25 -23 -25 -23 -7 -40 11 -10 32
-43 47 -73 40 -84 127 -163 111 -103 -6 23 2 24 71 9 45 -11 51 -10 71 10 11
11 32 21 46 21 40 0 92 26 100 49 3 12 13 21 22 21 13 0 14 -13 10 -85 -4 -70
-1 -91 14 -120 20 -36 24 -67 12 -79 -11 -11 -14 -144 -4 -205 9 -51 7 -59
-15 -94 -22 -33 -25 -51 -26 -120 0 -45 10 -147 22 -227 25 -163 24 -312 -4
-389 -18 -50 -21 -97 -6 -106 6 -4 8 -15 5 -25 -3 -10 -12 -63 -20 -117 -13
-98 -76 -275 -110 -313 -18 -20 -20 -64 -2 -78 13 -10 203 -20 572 -28 215 -6
487 6 673 28 l92 10 0 1463 0 1463 -34 12 c-21 7 -90 9 -191 6 -160 -4 -199 1
-242 34 -13 10 -52 21 -90 25 -38 4 -81 14 -98 23 -16 8 -52 16 -80 17 -110 5
-225 32 -375 89 -52 20 -105 36 -117 36 -12 0 -55 7 -95 16 -40 9 -113 15
-163 15 -74 -1 -95 3 -120 19 -16 11 -32 19 -35 18 -3 -1 -23 -3 -45 -5z m322
-99 c-3 -3 -12 -4 -19 -1 -8 3 -5 6 6 6 11 1 17 -2 13 -5z m-920 -240 c44 -27
53 -123 26 -264 -6 -30 -16 -104 -23 -165 -10 -96 -9 -118 5 -175 9 -36 19
-75 22 -88 6 -23 -41 -185 -60 -210 -14 -18 -86 -6 -112 19 -46 41 -60 246
-25 346 15 43 17 60 8 76 -6 12 -14 48 -18 82 -4 33 -16 116 -25 185 l-18 126
34 36 c52 56 128 69 186 32z m345 -1 c16 -33 8 -85 -17 -113 -22 -24 -72 -26
-103 -4 -18 13 -22 25 -22 74 l0 59 53 4 c28 2 57 4 64 5 6 1 18 -10 25 -25z
m-939 -112 c19 -7 27 -20 32 -50 7 -44 29 -59 55 -36 22 20 40 19 40 -2 0 -10
7 -31 15 -47 12 -23 13 -36 3 -70 -13 -47 -44 -86 -68 -86 -25 0 -110 108
-110 139 0 8 -16 38 -36 67 -44 64 -41 94 11 94 19 0 45 -4 58 -9z m1636 -116
c60 -20 86 -38 104 -74 l14 -29 -51 23 c-41 19 -69 24 -146 24 -173 2 -248 -6
-281 -30 -20 -14 -39 -19 -57 -16 -28 5 -49 -2 -97 -32 -16 -11 -35 -20 -42
-20 -7 -1 -28 -16 -49 -35 -23 -21 -43 -32 -55 -29 -22 6 -27 -22 -6 -31 9 -5
9 -7 0 -12 -7 -3 -24 -14 -38 -26 -20 -16 -23 -23 -14 -34 9 -11 5 -17 -22
-28 -19 -7 -49 -16 -66 -19 -39 -8 -44 10 -12 39 12 10 29 35 39 54 10 19 37
50 61 69 45 34 83 69 154 139 103 101 367 133 564 67z m792 16 c52 -11 102
-23 111 -26 25 -10 30 -33 14 -68 -53 -118 -195 -418 -241 -507 -18 -36 -54
-127 -80 -204 -25 -76 -55 -152 -66 -170 -10 -17 -24 -57 -30 -88 -13 -63 -27
-72 -63 -39 -32 29 -125 91 -136 91 -5 0 -23 14 -40 30 -35 34 -35 40 10 130
15 30 33 73 40 95 7 22 16 45 20 50 4 6 15 42 25 80 23 94 31 114 87 229 26
55 48 105 48 111 0 36 125 276 155 297 16 12 46 9 146 -11z m-661 -347 c0 -8
-4 -12 -10 -9 -5 3 -10 10 -10 16 0 5 5 9 10 9 6 0 10 -7 10 -16z m-340 -446
c0 -18 -112 17 -136 43 -16 18 -10 17 59 -8 42 -15 77 -30 77 -35z m-750 -18
c0 -5 -7 -10 -16 -10 -8 0 -12 5 -9 10 3 6 10 10 16 10 5 0 9 -4 9 -10z m-46
-150 c-3 -57 -1 -68 11 -63 24 9 18 -31 -7 -54 -38 -33 -48 -36 -63 -17 -27
35 -36 -2 -33 -131 3 -96 8 -126 22 -148 17 -24 18 -37 10 -94 -5 -37 -14 -68
-20 -70 -7 -2 -19 23 -29 61 -10 35 -26 77 -37 93 l-20 28 7 -85 c4 -47 9
-105 11 -128 2 -24 8 -60 14 -80 20 -75 8 -129 -20 -84 -9 14 -10 12 -6 -13
28 -160 29 -165 16 -180 -7 -8 -16 -13 -20 -10 -14 8 -20 109 -20 353 -1 208
1 247 15 268 11 17 14 35 9 58 -3 19 -1 49 4 68 6 18 18 60 27 93 10 33 40
107 67 165 50 103 51 104 58 72 4 -19 6 -65 4 -102z m1134 83 c40 -52 81 -124
93 -165 19 -63 59 -291 59 -334 0 -23 -4 -45 -9 -48 -4 -3 -14 -33 -20 -66
-14 -71 -33 -81 -25 -12 4 35 3 43 -5 32 -6 -8 -11 -26 -12 -40 -2 -36 -18 44
-18 93 -1 26 3 36 11 31 8 -5 9 2 2 27 -4 19 -9 77 -10 129 -2 128 -1 123 -24
117 -25 -6 -32 4 -59 85 -23 71 -37 188 -22 188 5 0 23 -17 39 -37z m-2022
-119 c-4 -9 -9 -15 -11 -12 -3 3 -3 13 1 22 4 9 9 15 11 12 3 -3 3 -13 -1 -22z
m834 -166 c0 -16 -3 -19 -11 -11 -6 6 -8 16 -5 22 11 17 16 13 16 -11z m-747
-238 c-5 -35 -31 -86 -39 -77 -2 2 3 21 11 42 9 20 14 44 10 53 -3 8 -2 24 1
36 7 21 7 21 15 1 4 -11 5 -36 2 -55z m1879 -32 c-9 -9 -12 -7 -12 12 0 19 3
21 12 12 9 -9 9 -15 0 -24z m213 -336 c-4 -85 -20 -152 -35 -152 -5 0 -16 -21
-25 -47 -8 -27 -23 -59 -31 -73 -11 -17 -13 -19 -9 -5 51 157 86 299 84 345
l-1 35 -10 -42 c-5 -24 -13 -43 -17 -43 -4 0 -13 -18 -20 -41 -15 -48 -88
-209 -96 -209 -3 0 2 17 11 38 9 20 29 71 43 113 15 42 31 83 37 90 6 8 14 40
17 72 3 32 14 101 24 153 l18 95 7 -123 c4 -68 5 -161 3 -206z m-80 176 c-8
-60 -26 -130 -32 -124 -5 5 29 176 35 176 2 0 1 -24 -3 -52z m-2055 -23 c0 -8
-4 -15 -10 -15 -5 0 -7 7 -4 15 4 8 8 15 10 15 2 0 4 -7 4 -15z m-144 -72
c-10 -10 -19 5 -10 18 6 11 8 11 12 0 2 -7 1 -15 -2 -18z m142 -156 c3 -31 0
-37 -15 -37 -11 0 -28 6 -38 14 -18 13 -18 15 -1 40 25 38 50 30 54 -17z
m2200 20 c2 -11 -3 -17 -16 -17 -15 0 -19 5 -15 20 6 24 26 21 31 -3z m-1605
-74 c2 -5 7 -25 11 -46 l7 -38 -28 17 c-53 33 -64 46 -52 61 12 14 55 18 62 6z
m-243 -18 c17 -21 8 -60 -15 -63 -19 -3 -100 60 -90 69 11 11 95 7 105 -6z
m280 -95 c0 -5 -4 -10 -10 -10 -5 0 -10 5 -10 10 0 6 5 10 10 10 6 0 10 -4 10
-10z m98 -68 c6 -33 7 -73 2 -92 -5 -21 -9 -27 -10 -15 -1 11 -3 40 -4 65 -2
25 -7 57 -11 73 -4 16 -3 27 3 27 5 0 14 -26 20 -58z m-504 26 c41 -11 86 -43
86 -60 0 -19 -26 -34 -55 -33 -22 1 -34 9 -43 28 -7 15 -19 27 -27 27 -18 0
-28 17 -21 35 7 18 8 18 60 3z m1845 -72 c-29 -78 -33 -66 -7 19 12 39 23 63
25 54 2 -9 -6 -42 -18 -73z m-1985 58 c9 -3 13 -10 10 -15 -8 -14 -21 -11 -28
6 -6 17 -4 18 18 9z m956 -253 c5 -11 10 -28 10 -39 0 -11 8 -30 19 -43 10
-13 21 -43 23 -67 5 -36 3 -42 -13 -42 -42 0 -79 76 -79 164 0 50 20 63 40 27z
m-510 -32 c0 -18 -2 -19 -15 -9 -8 7 -15 16 -15 21 0 5 7 9 15 9 9 0 15 -9 15
-21z m20 -100 c0 -5 -7 -6 -15 -3 -8 4 -15 13 -15 21 0 13 3 13 15 3 8 -7 15
-16 15 -21z"/>
<path d="M6980 1841 c0 -6 5 -13 10 -16 6 -3 10 1 10 9 0 9 -4 16 -10 16 -5 0
-10 -4 -10 -9z"/>
<path d="M2940 3750 c11 -20 30 -28 30 -12 0 11 -22 32 -32 32 -5 0 -4 -9 2
-20z"/>
<path d="M2798 3730 c18 -16 37 -30 43 -30 17 0 1 17 -38 39 l-38 22 33 -31z"/>
<path d="M4290 3710 c-13 -9 -13 -11 0 -20 8 -5 20 -10 25 -11 6 0 17 -2 26
-4 20 -4 19 23 -2 36 -18 11 -30 11 -49 -1z"/>
<path d="M2885 3680 c10 -11 20 -20 23 -20 3 0 -3 9 -13 20 -10 11 -20 20 -23
20 -3 0 3 -9 13 -20z"/>
<path d="M3928 3549 c-10 -5 -18 -17 -18 -26 0 -9 3 -13 7 -10 3 4 12 2 20 -5
20 -16 41 5 24 26 -10 12 -8 15 11 19 22 4 22 4 -2 5 -14 1 -33 -3 -42 -9z"/>
<path d="M2970 3501 c11 -22 30 -37 30 -24 -1 11 -26 43 -34 43 -4 0 -2 -9 4
-19z"/>
<path d="M3852 3480 c-18 -29 -15 -33 8 -10 21 21 25 30 12 30 -4 0 -13 -9
-20 -20z"/>
<path d="M3620 3483 c0 -5 9 -18 20 -28 11 -10 20 -14 20 -8 0 5 -9 18 -20 28
-11 10 -20 14 -20 8z"/>
<path d="M3910 3480 c0 -5 5 -10 11 -10 5 0 7 5 4 10 -3 6 -8 10 -11 10 -2 0
-4 -4 -4 -10z"/>
<path d="M4040 3469 l-25 -21 28 16 c15 9 33 14 39 10 7 -4 8 -3 4 4 -10 16
-17 15 -46 -9z"/>
<path d="M4378 3483 c7 -3 16 -2 19 1 4 3 -2 6 -13 5 -11 0 -14 -3 -6 -6z"/>
<path d="M2517 3463 c-4 -3 -7 -13 -7 -21 0 -12 3 -12 15 -2 8 7 15 16 15 21
0 11 -14 12 -23 2z"/>
<path d="M3765 3450 c-3 -5 -1 -10 4 -10 6 0 11 5 11 10 0 6 -2 10 -4 10 -3 0
-8 -4 -11 -10z"/>
<path d="M3796 3429 c-11 -11 -15 -19 -9 -19 12 0 38 28 32 34 -2 2 -13 -5
-23 -15z"/>
<path d="M3973 3440 c-13 -5 -23 -12 -23 -15 0 -10 27 -5 46 10 21 16 11 18
-23 5z"/>
<path d="M4077 3434 c-3 -3 -23 -12 -44 -19 -29 -11 -32 -14 -15 -15 13 0 39
7 57 16 30 14 36 14 64 0 16 -9 36 -16 43 -16 19 1 -62 40 -82 40 -9 0 -19 -3
-23 -6z"/>
<path d="M3755 3420 c3 -5 8 -10 11 -10 2 0 4 5 4 10 0 6 -5 10 -11 10 -5 0
-7 -4 -4 -10z"/>
<path d="M3894 3414 c-17 -14 -17 -15 -1 -10 10 3 23 6 28 6 5 0 9 5 9 10 0
14 -13 12 -36 -6z"/>
<path d="M3820 3410 c0 -5 5 -10 11 -10 5 0 7 5 4 10 -3 6 -8 10 -11 10 -2 0
-4 -4 -4 -10z"/>
<path d="M3812 3380 c9 -6 30 -24 47 -40 16 -17 36 -30 44 -30 9 0 23 -3 33
-7 12 -4 7 7 -16 35 -18 23 -38 42 -43 42 -5 0 -4 -7 3 -15 9 -11 9 -15 1 -15
-6 0 -19 9 -28 20 -10 11 -27 20 -38 20 -18 -1 -18 -2 -3 -10z"/>
<path d="M3987 3379 c7 -7 15 -10 18 -7 3 3 -2 9 -12 12 -14 6 -15 5 -6 -5z"/>
<path d="M4480 3380 c0 -5 5 -10 10 -10 6 0 10 5 10 10 0 6 -4 10 -10 10 -5 0
-10 -4 -10 -10z"/>
<path d="M2600 3370 c0 -5 7 -10 15 -10 8 0 15 5 15 10 0 6 -7 10 -15 10 -8 0
-15 -4 -15 -10z"/>
<path d="M4617 3323 c-4 -3 -7 -11 -7 -17 0 -6 5 -5 12 2 6 6 9 14 7 17 -3 3
-9 2 -12 -2z"/>
<path d="M4700 3071 c0 -11 14 -50 30 -87 19 -41 27 -70 21 -74 -7 -4 -1 -24
15 -54 14 -26 27 -66 30 -89 2 -23 7 -58 11 -77 3 -19 7 -39 8 -45 9 -64 53
-163 77 -171 10 -3 18 -13 19 -22 0 -14 2 -13 8 3 11 27 1 96 -16 113 -12 13
-17 50 -14 117 1 17 -9 66 -23 109 -25 78 -26 106 -3 76 19 -23 40 -25 28 -1
-11 19 -35 33 -61 35 -8 1 -16 10 -19 21 -2 11 -15 34 -30 50 -14 17 -35 49
-45 73 -20 44 -36 55 -36 23z m136 -238 c-10 -10 -19 5 -10 18 6 11 8 11 12 0
2 -7 1 -15 -2 -18z m34 -93 c0 -5 -4 -10 -10 -10 -5 0 -10 5 -10 10 0 6 5 10
10 10 6 0 10 -4 10 -10z"/>
<path d="M6757 3042 c-19 -21 -22 -32 -8 -32 5 0 16 11 25 25 19 29 7 34 -17
7z"/>
<path d="M6435 3020 c-8 -26 2 -41 22 -33 11 4 14 3 9 -5 -10 -17 -46 -15 -52
3 -8 19 -24 19 -24 0 0 -8 9 -19 20 -25 30 -16 25 -31 -6 -20 -41 16 -63 12
-31 -6 28 -15 37 -27 14 -18 -7 2 -28 -7 -47 -21 -36 -26 -34 -33 3 -13 12 6
39 10 61 9 24 -2 36 1 32 8 -4 6 13 13 46 17 48 7 50 8 28 18 -34 14 -34 14
-21 30 10 12 10 20 0 38 -21 41 -44 49 -54 18z"/>
<path d="M6677 3027 c-11 -29 -9 -53 4 -40 6 6 9 21 7 34 -3 21 -4 22 -11 6z"/>
<path d="M4660 3006 c0 -8 5 -18 10 -21 6 -3 10 1 10 9 0 8 -4 18 -10 21 -5 3
-10 -1 -10 -9z"/>
<path d="M6596 2964 c-8 -21 -3 -26 18 -18 18 7 17 25 -1 31 -6 2 -13 -4 -17
-13z"/>
<path d="M4700 2941 c0 -5 7 -12 16 -15 14 -5 15 -4 4 9 -14 17 -20 19 -20 6z"/>
<path d="M4673 2915 c7 -14 16 -25 20 -25 9 0 -9 36 -22 44 -5 4 -4 -5 2 -19z"/>
<path d="M6590 2920 c0 -5 5 -10 11 -10 5 0 7 5 4 10 -3 6 -8 10 -11 10 -2 0
-4 -4 -4 -10z"/>
<path d="M6565 2890 c-3 -5 -1 -10 4 -10 24 0 9 -21 -19 -26 -34 -7 -42 -36
-9 -31 25 4 49 33 49 59 0 19 -15 24 -25 8z"/>
<path d="M6460 2870 c0 -5 5 -10 10 -10 6 0 10 5 10 10 0 6 -4 10 -10 10 -5 0
-10 -4 -10 -10z"/>
<path d="M6520 2869 c0 -5 5 -7 10 -4 6 3 10 8 10 11 0 2 -4 4 -10 4 -5 0 -10
-5 -10 -11z"/>
<path d="M4356 2862 c-3 -3 -6 -9 -6 -14 0 -11 37 -10 44 1 6 10 -30 22 -38
13z"/>
<path d="M6367 2833 c-26 -25 36 -33 69 -8 18 13 16 14 -22 15 -22 0 -44 -3
-47 -7z"/>
<path d="M6467 2833 c-12 -11 -8 -23 7 -23 8 0 16 7 20 15 5 15 -14 21 -27 8z"/>
<path d="M4925 2718 c-4 -9 0 -29 8 -45 17 -33 36 -128 40 -198 2 -27 4 -5 5
50 2 103 -7 156 -32 190 -13 18 -15 18 -21 3z"/>
<path d="M5899 2581 c-13 -11 -21 -22 -17 -26 10 -10 48 14 48 30 0 19 -3 19
-31 -4z"/>
<path d="M2235 2119 c-11 -17 0 -20 21 -4 17 13 17 14 2 15 -9 0 -20 -5 -23
-11z"/>
<path d="M2701 1919 c-2 -23 28 -79 42 -79 7 0 22 3 35 6 25 7 30 24 7 24 -8
0 -15 5 -15 10 0 6 6 10 13 10 8 0 7 4 -3 10 -8 5 -24 10 -35 10 -16 0 -17 -2
-5 -10 18 -11 8 -23 -13 -14 -9 3 -18 15 -20 27 -2 12 -5 15 -6 6z"/>
<path d="M2040 1909 c-8 -5 -37 -9 -65 -9 -36 0 -46 -3 -35 -10 8 -5 41 -10
73 -10 43 0 57 4 57 14 0 20 -13 27 -30 15z"/>
<path d="M4127 1873 c-4 -3 -7 -16 -6 -27 0 -19 1 -19 10 3 10 24 8 36 -4 24z"/>
<path d="M4166 1856 c2 -11 -5 -28 -17 -39 -14 -13 -19 -29 -17 -58 2 -40 -11
-58 -39 -59 -7 0 -13 -7 -13 -15 0 -8 -6 -16 -12 -16 -7 -1 -20 -2 -28 -3 -8
0 -14 -7 -12 -14 4 -22 -17 -50 -40 -54 -26 -3 -38 -38 -14 -38 23 0 20 -27
-4 -40 -14 -8 -20 -21 -20 -45 0 -19 4 -35 8 -35 12 0 32 -70 32 -108 0 -17
-4 -42 -10 -56 -9 -23 -7 -26 15 -26 13 0 27 -4 30 -10 3 -5 -3 -10 -14 -10
-11 0 -23 -4 -26 -10 -3 -5 3 -10 14 -10 11 0 23 5 26 10 10 17 55 11 96 -12
22 -12 39 -26 39 -30 0 -5 20 -18 45 -29 42 -19 59 -32 34 -27 -18 5 -21 -19
-3 -26 11 -4 18 0 21 14 3 11 10 20 15 20 5 0 6 10 3 21 -10 31 15 139 31 139
13 0 15 -5 13 -27 0 -5 10 -11 23 -15 46 -12 77 -8 98 14 25 27 25 21 0 -34
-47 -99 -63 -117 -76 -83 -9 24 -25 17 -19 -7 3 -13 1 -30 -4 -38 -8 -12 -14
-12 -34 -1 -30 16 -51 6 -44 -21 4 -14 2 -18 -9 -14 -8 3 -14 1 -14 -4 0 -6
-5 -10 -11 -10 -6 0 -9 6 -6 13 3 7 -4 19 -14 25 -10 7 -19 18 -19 25 0 8 -12
14 -30 14 -23 0 -30 -5 -30 -20 0 -15 -3 -17 -14 -8 -7 6 -11 22 -9 35 4 21 2
24 -16 19 -14 -3 -23 0 -27 11 -5 12 -20 16 -60 16 -30 0 -54 -4 -54 -10 0 -5
-19 -10 -42 -11 -24 0 -38 -2 -33 -4 6 -2 51 -15 100 -30 50 -15 106 -37 125
-48 46 -28 112 -98 106 -114 -3 -6 9 -27 26 -45 17 -18 29 -25 25 -16 -7 19
-3 21 27 9 11 -4 21 -18 23 -32 5 -35 11 -49 22 -49 15 0 24 76 13 112 -6 18
-13 50 -15 70 -5 35 -4 36 16 29 12 -5 47 -16 77 -26 30 -10 67 -31 82 -46 15
-16 32 -29 39 -29 7 0 9 -8 6 -21 -6 -23 20 -39 33 -20 6 11 20 -18 24 -51 1
-3 4 -10 8 -13 4 -4 3 -17 -3 -28 -7 -13 -7 -17 -1 -13 6 3 13 -2 17 -13 8
-26 44 -71 57 -71 7 0 7 4 0 13 -12 14 -13 67 -2 67 14 0 24 -84 11 -88 -18
-6 -12 -22 9 -22 14 0 22 11 31 40 10 33 9 48 -5 95 -18 54 -31 66 -53 44 -8
-8 -14 -5 -23 11 -14 26 2 43 34 36 14 -4 16 -2 7 7 -16 16 -14 30 4 23 8 -3
15 -1 15 4 0 19 -39 10 -45 -10 -9 -28 -21 -17 -29 25 -4 20 -14 39 -22 42 -8
3 -12 13 -9 22 6 20 -25 61 -46 61 -8 0 -24 11 -37 24 l-22 24 25 6 c21 5 24
11 21 32 -7 37 15 135 31 141 8 3 23 23 34 44 l19 39 -25 0 c-25 0 -26 1 -20
53 4 28 8 63 11 77 4 23 3 23 -9 8 -21 -26 -37 -22 -49 13 l-10 30 -22 -20
c-28 -26 -72 -37 -78 -19 -3 8 -1 40 4 71 9 53 8 61 -13 92 -14 20 -30 33 -37
30 -8 -3 -33 3 -57 14 -36 16 -45 26 -60 67 -23 63 -28 67 -69 69 -29 0 -33
-2 -30 -19z m124 -151 c0 -8 -4 -15 -10 -15 -5 0 -10 7 -10 15 0 8 5 15 10 15
6 0 10 -7 10 -15z m-120 -626 c0 -5 -7 -9 -15 -9 -15 0 -20 12 -9 23 8 8 24
-1 24 -14z m361 -5 c7 -9 25 -21 39 -27 23 -9 23 -11 5 -15 -11 -2 -24 -8 -29
-12 -14 -14 -66 42 -54 58 14 16 23 15 39 -4z m-288 -94 c3 -11 1 -18 -4 -14
-5 3 -9 12 -9 20 0 20 7 17 13 -6z"/>
<path d="M4670 1820 c0 -16 5 -30 10 -30 6 0 10 14 10 30 0 17 -4 30 -10 30
-5 0 -10 -13 -10 -30z"/>
<path d="M3938 1736 c-22 -16 -23 -26 -2 -26 15 0 44 23 44 34 0 10 -25 6 -42
-8z"/>
<path d="M6400 1710 c0 -5 -15 -13 -32 -18 -23 -6 -34 -15 -36 -30 -3 -19 1
-22 33 -22 32 0 38 4 51 35 18 43 17 45 -1 45 -8 0 -15 -4 -15 -10z"/>
<path d="M2120 1624 c0 -14 3 -14 15 -4 8 7 15 14 15 16 0 2 -7 4 -15 4 -8 0
-15 -7 -15 -16z"/>
<path d="M2730 1599 c0 -5 5 -7 10 -4 6 3 10 8 10 11 0 2 -4 4 -10 4 -5 0 -10
-5 -10 -11z"/>
<path d="M2600 1490 c0 -5 5 -10 11 -10 5 0 7 5 4 10 -3 6 -8 10 -11 10 -2 0
-4 -4 -4 -10z"/>
<path d="M6287 1209 c-22 -25 -19 -29 11 -18 12 5 22 15 22 24 0 21 -12 19
-33 -6z"/>
<path d="M3895 1195 c-16 -7 -25 -14 -18 -14 6 -1 18 -4 26 -7 8 -3 17 2 21
12 9 23 6 24 -29 9z"/>
<path d="M2765 1120 c3 -5 11 -10 16 -10 6 0 7 5 4 10 -3 6 -11 10 -16 10 -6
0 -7 -4 -4 -10z"/>
<path d="M2825 1090 c-3 -5 1 -10 9 -10 9 0 16 5 16 10 0 6 -4 10 -9 10 -6 0
-13 -4 -16 -10z"/>
<path d="M2976 1075 c-3 -8 -1 -15 4 -15 6 0 10 7 10 15 0 8 -2 15 -4 15 -2 0
-6 -7 -10 -15z"/>
<path d="M3171 981 c-11 -7 -9 -13 8 -30 11 -11 29 -21 39 -21 16 1 16 1 0 11
-10 5 -18 16 -18 24 0 19 -13 26 -29 16z"/>
<path d="M3120 950 c0 -5 7 -10 16 -10 8 0 12 5 9 10 -3 6 -10 10 -16 10 -5 0
-9 -4 -9 -10z"/>
<path d="M4510 930 c0 -5 5 -10 10 -10 6 0 10 5 10 10 0 6 -4 10 -10 10 -5 0
-10 -4 -10 -10z"/>
<path d="M3470 900 c0 -5 5 -10 11 -10 5 0 7 5 4 10 -3 6 -8 10 -11 10 -2 0
-4 -4 -4 -10z"/>
<path d="M3424 879 c0 -22 21 -25 29 -5 3 8 -2 16 -12 19 -11 3 -17 -2 -17
-14z"/>
<path d="M3710 879 c0 -6 -7 -9 -15 -6 -8 4 -17 2 -20 -3 -4 -6 0 -10 8 -10 8
0 30 -3 48 -7 l34 -6 -19 21 c-21 24 -36 28 -36 11z"/>
<path d="M4425 870 c3 -5 11 -10 16 -10 6 0 7 5 4 10 -3 6 -11 10 -16 10 -6 0
-7 -4 -4 -10z"/>
<path d="M4850 857 c14 -6 31 -17 38 -24 7 -7 21 -13 30 -13 10 0 0 11 -23 25
-22 13 -47 24 -55 24 -8 0 -4 -6 10 -12z"/>
<path d="M4477 839 c7 -7 15 -10 18 -7 3 3 -2 9 -12 12 -14 6 -15 5 -6 -5z"/>
<path d="M3778 823 c6 -2 12 -11 12 -19 0 -8 8 -14 18 -15 11 -1 9 -4 -8 -9
-23 -7 -23 -8 -3 -9 25 -1 56 26 47 41 -3 5 -15 8 -25 5 -10 -3 -22 -1 -25 4
-3 5 -11 9 -17 8 -9 0 -9 -2 1 -6z"/>
<path d="M3801 739 c27 -21 38 -23 59 -9 17 11 6 16 -49 23 l-33 4 23 -18z"/>
<path d="M5358 723 c7 -3 16 -2 19 1 4 3 -2 6 -13 5 -11 0 -14 -3 -6 -6z"/>
<path d="M6610 710 c0 -5 5 -10 10 -10 6 0 10 5 10 10 0 6 -4 10 -10 10 -5 0
-10 -4 -10 -10z"/>
<path d="M5490 697 c-25 -4 -52 -9 -59 -11 -50 -10 38 -56 133 -69 46 -7 98 2
90 15 -3 5 -19 6 -35 3 -15 -4 -35 -2 -44 3 -14 7 -14 10 -1 21 11 10 19 10
34 0 11 -7 28 -9 38 -5 16 6 16 9 4 16 -11 7 -6 10 18 10 17 0 32 5 32 11 0 6
-7 8 -16 5 -9 -3 -41 -9 -71 -13 -43 -5 -59 -3 -67 8 -9 12 -21 13 -56 6z m50
-41 c0 -2 -7 -6 -15 -10 -8 -3 -15 -1 -15 4 0 6 7 10 15 10 8 0 15 -2 15 -4z"/>
<path d="M4900 690 c0 -5 6 -10 14 -10 8 0 18 5 21 10 3 6 -3 10 -14 10 -12 0
-21 -4 -21 -10z"/>
<path d="M5836 680 c-28 -10 -6 -17 29 -10 25 5 27 7 10 11 -11 3 -29 3 -39
-1z"/>
<path d="M5735 670 c3 -5 17 -10 31 -10 13 0 24 5 24 10 0 6 -14 10 -31 10
-17 0 -28 -4 -24 -10z"/>
<path d="M4615 619 c7 -11 35 -12 35 -1 0 4 -9 8 -20 9 -11 1 -18 -2 -15 -8z"/>
<path d="M6172 611 c13 -22 28 -28 28 -11 0 5 -9 14 -20 20 -19 10 -20 10 -8
-9z"/>
<path d="M4692 606 c13 -14 28 -12 28 5 0 5 -9 9 -20 9 -17 0 -19 -2 -8 -14z"/>
<path d="M5682 598 c5 -15 48 -24 48 -10 0 10 -23 22 -42 22 -5 0 -8 -6 -6
-12z"/>
<path d="M6200 540 c20 -13 33 -13 25 0 -3 6 -14 10 -23 10 -15 0 -15 -2 -2
-10z"/>
<path d="M4935 510 c3 -5 10 -10 16 -10 5 0 9 5 9 10 0 6 -7 10 -16 10 -8 0
-12 -4 -9 -10z"/>
<path d="M6345 510 c3 -5 16 -10 28 -10 18 0 19 2 7 10 -20 13 -43 13 -35 0z"/>
<path d="M7283 483 c9 -2 25 -2 35 0 9 3 1 5 -18 5 -19 0 -27 -2 -17 -5z"/>
<path d="M6230 360 c-12 -8 -11 -10 7 -10 12 0 30 -3 40 -7 16 -6 16 -5 4 10
-15 19 -29 21 -51 7z"/>
<path d="M7858 309 c-10 -5 -36 -11 -59 -14 -23 -2 -44 -6 -46 -9 -11 -11 7
-36 27 -36 12 0 20 -7 20 -16 0 -14 7 -16 48 -9 26 4 61 7 77 6 57 -3 75 7 75
39 0 24 -5 31 -27 36 -15 4 -34 2 -46 -6 -17 -10 -22 -9 -29 4 -10 18 -16 19
-40 5z m107 -49 c-3 -5 -13 -10 -21 -10 -8 0 -12 5 -9 10 3 6 13 10 21 10 8 0
12 -4 9 -10z m-130 -10 c3 -5 -1 -10 -9 -10 -9 0 -16 5 -16 10 0 6 4 10 9 10
6 0 13 -4 16 -10z"/>
<path d="M6795 290 c-3 -6 1 -13 10 -16 19 -8 30 0 20 15 -8 14 -22 14 -30 1z"/>
<path d="M7431 248 c6 -23 5 -34 -3 -39 -18 -11 -5 -19 20 -13 43 12 40 84 -3
84 -22 0 -23 -2 -14 -32z"/>
<path d="M6550 255 c-11 -13 -11 -19 3 -33 20 -19 41 -5 35 24 -4 24 -22 28
-38 9z"/>
<path d="M6716 235 c-3 -10 1 -15 14 -15 25 0 34 16 14 24 -21 8 -21 8 -28 -9z"/>
<path d="M7028 243 c7 -3 16 -2 19 1 4 3 -2 6 -13 5 -11 0 -14 -3 -6 -6z"/>
<path d="M6920 210 c0 -5 7 -7 15 -4 8 4 15 8 15 10 0 2 -7 4 -15 4 -8 0 -15
-4 -15 -10z"/>
<path d="M6500 185 c0 -8 4 -15 10 -15 5 0 7 7 4 15 -4 8 -8 15 -10 15 -2 0
-4 -7 -4 -15z"/>
<path d="M7611 179 c-32 -13 -24 -17 23 -11 26 3 34 7 25 13 -17 10 -17 10
-48 -2z"/>
<path d="M7740 170 c0 -5 5 -10 10 -10 6 0 10 5 10 10 0 6 -4 10 -10 10 -5 0
-10 -4 -10 -10z"/>
</g>
</svg>
