<?xml version="1.0" standalone="no"?>
<!DOCTYPE svg PUBLIC "-//W3C//DTD SVG 20010904//EN"
 "http://www.w3.org/TR/2001/REC-SVG-20010904/DTD/svg10.dtd">
<svg version="1.0" xmlns="http://www.w3.org/2000/svg"
 width="800.000000pt" height="473.000000pt" viewBox="0 0 800.000000 473.000000"
 preserveAspectRatio="xMidYMid meet">

<g transform="translate(0.000000,473.000000) scale(0.100000,-0.100000)"
fill="#000000" stroke="none">
<path d="M6310 4717 c-8 -7 -28 -32 -44 -57 -17 -25 -35 -50 -40 -55 -6 -6
-22 -31 -35 -55 -13 -25 -42 -66 -63 -92 -22 -26 -37 -52 -34 -57 15 -24 -8
-40 -64 -47 -36 -4 -61 -12 -64 -20 -3 -8 -19 -14 -37 -14 -19 0 -46 -10 -65
-25 -18 -14 -37 -25 -42 -25 -5 0 -17 -9 -27 -20 -9 -10 -32 -24 -50 -30 -17
-6 -38 -22 -45 -35 -7 -13 -16 -22 -20 -20 -4 3 -22 -2 -39 -11 -34 -17 -156
-22 -351 -15 -104 4 -148 14 -163 38 -4 7 -14 13 -20 13 -17 0 -47 36 -39 46
4 4 1 4 -6 0 -7 -4 -15 -1 -18 8 -4 11 -19 15 -52 15 -26 -1 -60 4 -77 11 -58
23 -130 38 -158 33 -15 -3 -35 -15 -45 -28 -10 -12 -27 -27 -40 -34 -12 -6
-22 -20 -22 -31 0 -10 -6 -25 -13 -32 -12 -12 -48 -98 -64 -153 -4 -11 -9 -22
-12 -25 -4 -3 -25 -27 -46 -55 -22 -27 -44 -52 -48 -54 -5 -2 -25 -18 -45 -37
-68 -62 -97 -84 -114 -90 -10 -3 -18 -12 -18 -20 0 -23 -18 -16 -23 9 -3 16
-5 14 -6 -9 0 -20 17 -67 47 -125 42 -84 51 -96 85 -108 37 -14 42 -13 100 16
34 17 77 34 95 38 36 7 305 -11 362 -26 34 -8 333 -53 430 -65 25 -3 61 -9 80
-14 32 -8 431 -39 735 -58 66 -4 168 -6 226 -4 l107 3 -3 32 c-1 18 2 40 7 50
5 9 13 64 18 122 10 115 39 191 85 221 14 9 25 24 25 34 0 11 16 25 43 38 24
11 70 48 103 82 32 34 73 68 89 77 43 23 186 38 301 31 45 -3 58 1 97 30 25
17 50 32 56 32 6 0 11 9 11 19 0 11 9 23 22 27 12 3 31 15 42 25 11 11 26 20
33 20 7 1 16 3 21 4 4 2 17 6 29 10 13 4 21 11 18 15 -3 5 5 20 18 34 17 18
23 34 19 51 -3 16 0 25 8 25 10 0 10 3 0 15 -11 13 -10 14 4 9 9 -3 16 -2 17
2 0 5 2 23 4 39 1 17 4 52 6 78 1 27 8 54 14 61 17 17 13 75 -8 114 -15 27
-23 32 -54 32 -41 0 -95 -32 -114 -67 -7 -13 -16 -23 -21 -23 -4 0 -8 -9 -8
-20 0 -20 -8 -24 -47 -20 -12 0 -34 -5 -50 -13 -37 -19 -263 -15 -263 4 0 4
-24 20 -54 35 -30 15 -54 30 -53 34 1 3 -14 20 -34 38 l-37 32 -273 0 c-200
-1 -278 -4 -289 -13z"/>
<path d="M1311 4707 c-19 -6 -43 -24 -53 -38 -19 -25 -19 -28 -3 -65 20 -47
36 -149 41 -264 3 -47 9 -103 14 -125 16 -62 8 -195 -13 -225 -9 -13 -17 -28
-17 -33 0 -5 -11 -22 -25 -39 -14 -16 -25 -36 -25 -44 0 -8 -10 -34 -21 -57
-35 -67 -41 -98 -24 -123 13 -20 11 -25 -28 -69 -98 -111 -179 -180 -218 -183
-18 -1 -38 -7 -44 -12 -14 -11 -93 -11 -101 1 -2 4 -35 17 -72 30 -77 25 -245
112 -282 146 -14 13 -41 26 -60 30 -47 8 -102 32 -96 41 7 12 -16 36 -66 67
-27 17 -48 33 -48 38 0 9 -38 47 -48 47 -4 0 -20 14 -36 30 -15 16 -41 33 -57
39 l-29 10 0 -1919 0 -1919 35 -7 c21 -4 45 -18 59 -35 l25 -29 474 0 474 0
37 40 c20 22 35 44 32 49 -3 5 10 44 30 87 19 44 42 93 50 111 8 17 14 37 14
43 0 22 66 95 104 115 20 11 36 25 36 32 0 7 6 13 13 13 8 0 19 11 25 25 6 14
16 25 21 25 19 0 53 70 47 96 -9 33 41 124 58 107 3 -4 6 0 6 9 0 15 63 78 79
78 4 0 26 8 47 17 53 23 94 28 94 11 0 -8 5 -6 11 5 6 10 8 24 6 31 -9 23 68
121 86 109 5 -3 6 4 2 17 -6 18 -4 22 8 17 10 -4 33 11 62 39 26 24 50 44 54
44 4 0 17 7 30 16 21 15 22 18 7 26 -26 15 -3 35 49 43 25 3 45 10 45 15 0 15
73 33 143 35 65 2 69 1 83 -26 7 -15 22 -34 32 -41 42 -31 59 -66 61 -126 1
-42 -3 -65 -14 -75 -18 -19 -19 -34 -3 -39 18 -6 -6 -58 -27 -58 -8 0 -15 -7
-15 -15 0 -8 7 -15 15 -15 28 0 15 -35 -18 -50 l-32 -15 3 -95 c2 -52 6 -108
8 -125 12 -81 21 -161 18 -166 -2 -4 5 -14 16 -24 17 -16 20 -31 20 -122 0
-91 -2 -103 -17 -104 -14 0 -13 -2 5 -9 31 -13 26 -39 -10 -53 -14 -5 -18 -18
-18 -52 l0 -45 871 0 872 0 -7 31 c-6 32 20 93 104 244 22 39 49 98 61 133 11
34 26 68 33 75 19 19 38 73 35 99 -4 36 9 64 37 77 l25 11 -1 -47 c-4 -102 0
-133 14 -133 15 0 31 28 26 45 -12 43 -21 98 -21 143 -1 43 -4 52 -18 50 -12
-2 -17 7 -19 41 -4 52 11 84 44 99 31 15 40 66 20 113 -12 28 -13 45 -5 73 10
38 -2 171 -20 204 -5 9 -14 43 -22 75 -7 32 -16 60 -21 63 -11 7 -10 61 1 82
6 11 4 40 -5 81 -8 35 -13 66 -10 68 3 3 -1 17 -8 32 -10 18 -14 70 -14 176 0
83 -3 160 -7 173 -12 35 20 28 36 -9 12 -32 13 -32 29 -11 10 12 20 49 24 88
6 59 4 69 -14 89 -24 26 -25 41 -4 49 13 5 14 9 4 21 -9 10 -9 15 -1 15 6 0
11 7 11 15 0 8 2 15 3 15 10 0 67 -32 72 -41 4 -5 10 -9 16 -9 20 0 7 16 -35
43 -57 36 -63 59 -24 92 30 26 31 26 52 7 17 -15 106 -38 106 -27 0 1 -18 15
-40 30 -22 15 -37 31 -35 36 3 4 -13 13 -35 20 -43 13 -53 37 -19 46 16 5 19
11 14 30 -5 23 -4 24 27 18 59 -12 327 -104 441 -151 257 -106 515 -231 618
-300 80 -53 189 -183 189 -225 0 -34 -12 -43 -85 -62 -33 -9 -79 -22 -103 -29
-32 -9 -50 -10 -73 -1 -27 11 -29 10 -17 -4 12 -15 10 -16 -16 -9 l-29 7 40
-48 c61 -73 75 -106 71 -170 -2 -44 -7 -59 -25 -70 -29 -19 -222 -37 -277 -25
l-42 9 18 -36 c10 -19 18 -52 18 -72 0 -37 -24 -109 -38 -110 -4 0 -25 -2 -47
-4 -57 -6 -212 23 -260 48 -22 12 -53 33 -69 47 -25 22 -28 23 -23 5 17 -61
18 -153 3 -190 -24 -58 -66 -98 -66 -64 0 17 -91 181 -97 175 -3 -2 3 -18 13
-35 10 -17 15 -33 12 -36 -9 -9 -118 39 -118 53 0 6 -7 12 -16 12 -13 0 -15
-7 -9 -37 8 -43 21 -63 41 -63 8 0 14 -4 14 -10 0 -5 13 -7 30 -3 34 6 39 -1
10 -17 -15 -8 -27 -7 -50 5 -34 17 -36 12 -19 -44 14 -46 -1 -88 -33 -94 -23
-4 -23 -4 1 -6 16 -1 43 -21 76 -56 43 -46 56 -55 86 -55 24 0 46 -9 69 -29
33 -27 34 -29 22 -68 -17 -57 -16 -113 3 -113 8 0 27 -19 42 -42 39 -60 126
-143 241 -230 49 -36 56 -39 85 -29 17 6 41 20 52 31 17 16 39 21 120 24 69 3
107 0 125 -9 14 -7 37 -11 53 -9 15 1 25 -1 22 -6 -3 -5 4 -11 15 -15 11 -4
18 -11 15 -16 -4 -5 0 -9 9 -9 8 0 17 -6 20 -12 5 -10 7 -10 12 0 4 9 14 3 30
-19 17 -24 24 -46 24 -81 0 -26 5 -48 10 -48 6 0 10 -18 10 -40 0 -22 4 -40
10 -40 5 0 7 -21 3 -50 l-6 -50 1162 0 1161 0 0 1198 -1 1197 -37 25 c-20 14
-52 32 -69 39 -24 10 -33 20 -33 37 0 36 -56 56 -170 60 -140 6 -209 15 -185
24 17 6 16 8 -10 12 -42 8 -127 40 -159 62 -15 9 -34 15 -42 12 -9 -4 -31 10
-55 35 -40 41 -51 66 -24 55 8 -3 15 -3 15 0 0 13 -25 50 -42 62 -10 7 -18 25
-18 41 0 33 -46 63 -61 39 -8 -12 -13 -4 -10 15 1 8 -12 10 -51 7 -16 -1 -28
3 -28 8 0 12 -319 4 -373 -9 -30 -8 -41 -18 -57 -52 -19 -41 -24 -44 -88 -60
-37 -10 -73 -18 -79 -19 -7 -1 -13 -4 -13 -7 0 -3 -12 -7 -26 -7 -14 -1 -33
-9 -42 -17 -16 -14 -35 -19 -119 -34 -18 -3 -33 -9 -33 -14 0 -5 -46 -9 -102
-9 -95 1 -106 3 -142 28 -36 25 -78 82 -92 123 -3 9 -19 19 -35 23 -21 4 -29
11 -29 26 0 11 6 20 13 21 6 0 3 4 -8 8 -16 7 -14 9 15 14 18 4 31 10 28 13
-9 8 -102 -18 -113 -33 -14 -18 -110 -49 -199 -64 -41 -7 -73 -16 -70 -20 6
-11 -58 -27 -147 -38 -39 -5 -75 -15 -79 -21 -9 -14 -77 -29 -137 -30 -41 0
-65 -14 -41 -23 30 -11 -20 -36 -89 -45 -40 -6 -82 -17 -95 -26 -14 -10 -43
-16 -75 -16 -29 0 -53 -4 -53 -10 0 -5 -18 -15 -41 -21 -32 -10 -53 -10 -97
-1 -65 14 -89 2 -46 -22 l29 -15 -36 -1 c-30 0 -43 7 -68 35 -35 41 -34 34
-21 106 5 30 12 76 16 103 4 35 8 45 15 35 8 -12 11 -11 19 2 5 9 21 20 35 23
23 6 24 8 11 21 -8 8 -19 15 -25 15 -5 0 -13 9 -16 20 -7 23 -16 25 -33 8 -9
-9 -13 -7 -18 5 -8 22 4 89 16 82 5 -3 10 3 13 12 2 10 2 1 -1 -21 -6 -53 21
-44 29 10 3 21 7 32 8 25 0 -9 4 -11 10 -5 5 5 6 33 2 62 -5 30 -4 55 2 59 5
3 4 8 -2 13 -8 4 -9 14 -2 31 7 17 10 19 10 7 1 -23 28 -12 37 14 7 23 -26
138 -40 138 -4 0 -5 -20 -2 -45 6 -37 4 -45 -8 -45 -10 0 -16 -9 -16 -26 0
-14 -4 -23 -10 -19 -5 3 -10 1 -10 -4 0 -24 -21 -9 -26 19 -7 34 -29 57 -39
40 -3 -5 -2 -10 4 -10 6 0 9 -13 8 -28 -1 -16 -8 -29 -14 -29 -8 0 -10 9 -6
26 6 24 5 25 -11 12 -11 -9 -15 -23 -12 -40 7 -31 -26 -76 -49 -67 -10 3 -15
-1 -15 -14 0 -39 -17 -27 -30 20 -12 44 -30 68 -30 39 0 -5 -4 -8 -9 -5 -5 4
-7 -12 -4 -36 3 -24 2 -40 -2 -35 -14 12 -34 78 -29 92 3 7 1 16 -5 19 -20 12
-25 -14 -30 -156 -1 -9 -10 -20 -21 -23 -11 -4 -21 -16 -21 -28 -1 -16 -3 -14
-8 8 l-7 30 -11 -32 c-13 -35 -32 -44 -34 -15 0 9 -5 4 -10 -13 -5 -19 -5 -31
1 -33 15 -6 12 -31 -8 -60 -10 -15 -22 -35 -25 -44 -10 -27 -22 -21 -23 10 -1
119 -4 146 -16 134 -9 -9 -14 -7 -24 6 -12 16 -13 16 -19 -1 -4 -9 -1 -27 8
-40 15 -23 9 -52 -9 -45 -5 1 -10 -16 -12 -39 -2 -24 1 -43 7 -43 5 0 8 -10 6
-21 -6 -31 -15 -36 -15 -10 0 12 -5 32 -12 44 -14 26 -11 99 4 108 6 4 7 16 3
29 -7 21 -8 22 -17 5 -8 -14 -12 -15 -19 -4 -6 9 -9 -1 -9 -28 0 -24 -5 -43
-11 -43 -6 0 -10 -10 -9 -22 3 -38 0 -54 -8 -43 -14 20 -32 15 -32 -10 0 -23
31 -51 43 -38 4 3 9 -1 13 -10 3 -9 12 -13 20 -10 8 3 14 0 14 -7 0 -6 4 -9 9
-6 10 6 25 -24 16 -32 -3 -3 -5 1 -6 9 -1 8 -5 3 -9 -11 -8 -24 -8 -24 -9 -2
-1 12 -6 21 -13 20 -6 -2 -17 8 -24 22 -13 25 -13 25 -12 -11 2 -64 -13 -65
-38 -2 -13 32 -24 64 -24 71 0 8 -5 10 -12 6 -10 -6 -10 -4 0 7 20 22 15 59
-8 59 -11 0 -23 -8 -26 -17 -3 -10 -9 -25 -13 -33 -9 -16 12 -92 34 -127 19
-28 19 -33 0 -33 -8 0 -15 -7 -15 -15 0 -8 -5 -15 -11 -15 -7 0 -9 11 -6 28
12 63 -17 104 -51 70 -6 -6 -15 -8 -19 -4 -10 9 12 42 26 38 16 -3 13 40 -5
77 -15 31 -34 34 -34 5 0 -8 -5 -14 -11 -14 -7 0 -9 8 -4 23 9 27 9 59 1 92
-4 15 -2 25 4 25 6 0 9 -3 6 -8 -6 -10 22 -47 30 -39 4 4 1 13 -6 22 -14 17
-6 50 10 40 14 -9 12 7 -5 29 -7 10 -18 15 -24 11 -7 -3 -11 3 -11 16 0 17 3
19 14 10 18 -15 34 5 17 22 -8 8 -11 8 -11 -1 0 -7 -5 -11 -12 -10 -6 2 -16
-17 -21 -42 l-10 -45 -8 35 c-5 19 -9 53 -10 75 0 22 -3 49 -6 60 -13 44 -21
-23 -18 -144 2 -120 2 -121 -21 -127 -26 -7 -34 -44 -10 -44 8 0 17 -6 20 -12
5 -10 7 -10 12 0 12 25 24 0 25 -51 0 -29 4 -75 8 -104 7 -48 5 -54 -25 -95
-18 -24 -38 -43 -43 -42 -6 1 -18 2 -27 3 -13 1 -14 4 -5 14 17 21 4 26 -36
15 -19 -5 -51 -7 -71 -4 -21 3 -39 5 -41 6 -2 0 3 8 10 17 13 15 11 16 -17 10
-37 -7 -104 7 -115 25 -5 7 -4 14 1 16 6 2 10 20 10 39 0 30 -2 34 -15 23 -19
-16 -190 -9 -207 8 -9 9 -7 13 5 18 32 12 17 24 -30 24 -51 0 -146 22 -166 38
-7 5 -43 13 -82 16 -38 4 -88 12 -110 18 l-40 11 44 13 c52 16 197 97 183 102
-6 2 -48 -17 -94 -41 -45 -25 -95 -48 -111 -51 -50 -12 -276 37 -297 64 -3 4
-43 14 -90 24 -73 16 -170 48 -170 58 0 2 37 4 83 4 60 1 119 11 222 38 136
37 186 55 115 43 -19 -3 -102 -20 -185 -37 -123 -26 -163 -31 -223 -25 -91 7
-300 59 -316 78 -6 7 -54 21 -106 31 -52 10 -114 26 -137 36 -23 10 -88 26
-145 35 -57 9 -112 22 -124 30 -11 7 -47 16 -80 20 -32 3 -95 12 -139 20 -44
7 -106 16 -138 20 -32 4 -56 9 -54 12 3 3 115 4 249 4 228 -1 595 15 913 39
346 27 614 51 665 61 209 40 282 57 254 58 -24 1 -64 36 -64 55 0 8 -8 31 -17
52 -9 22 -18 45 -19 52 -1 7 -16 34 -33 61 -25 38 -40 50 -74 61 -52 15 -132
55 -172 85 -16 12 -46 29 -65 39 -19 9 -55 35 -80 57 -109 98 -122 109 -129
109 -4 0 -27 18 -51 40 -23 22 -51 42 -61 45 -11 4 -19 12 -19 19 0 17 -43 53
-58 48 -7 -2 -12 1 -12 7 0 6 -19 11 -44 11 -30 0 -46 5 -50 15 -3 9 -18 15
-40 15 -27 0 -40 6 -51 24 -19 28 -80 60 -100 52 -19 -7 -31 13 -34 53 -1 19
-6 40 -11 47 -6 6 -9 22 -7 35 5 31 -11 67 -34 74 -10 4 -16 12 -13 20 3 8 -3
29 -14 47 -11 18 -18 40 -17 49 2 14 -16 17 -134 23 -75 4 -154 9 -176 11 -22
3 -55 -1 -74 -8z m3159 -1552 c0 -14 5 -25 10 -25 6 0 10 -8 10 -17 0 -15 -2
-16 -10 -3 -7 12 -10 8 -10 -14 0 -16 -3 -26 -7 -22 -11 10 -12 106 -1 106 4
0 8 -11 8 -25z m-226 -40 c3 -8 1 -15 -4 -15 -6 0 -10 7 -10 15 0 8 2 15 4 15
2 0 6 -7 10 -15z m191 -25 c-3 -10 -2 -21 3 -24 10 -6 4 -54 -8 -61 -10 -6
-24 90 -15 105 10 16 26 0 20 -20z m-105 -26 c0 -8 -4 -12 -10 -9 -5 3 -10 10
-10 16 0 5 5 9 10 9 6 0 10 -7 10 -16z m-86 -29 c-4 -8 -8 -15 -10 -15 -2 0
-4 7 -4 15 0 8 4 15 10 15 5 0 7 -7 4 -15z m206 -52 c0 -5 -5 -15 -10 -23 -8
-12 -10 -11 -10 8 0 12 5 22 10 22 6 0 10 -3 10 -7z m-783 -45 c-3 -8 -6 -5
-6 6 -1 11 2 17 5 13 3 -3 4 -12 1 -19z m370 -170 c-3 -8 -6 -5 -6 6 -1 11 2
17 5 13 3 -3 4 -12 1 -19z m-109 -61 c5 -37 -15 -34 -20 3 -3 19 -1 29 6 27 6
-2 12 -16 14 -30z m-71 -19 c-3 -8 -6 -5 -6 6 -1 11 2 17 5 13 3 -3 4 -12 1
-19z m-117 -59 c0 -31 -4 -48 -10 -44 -17 11 -12 95 7 95 2 0 3 -23 3 -51z
m114 25 c3 -8 1 -14 -3 -14 -5 0 -7 -8 -4 -19 6 -23 -16 -39 -28 -20 -16 26
-10 65 10 66 11 1 22 -5 25 -13z m3321 -41 c5 -1 11 -6 13 -11 4 -12 -82 -28
-130 -24 -29 2 -38 8 -38 22 0 14 9 20 38 22 20 2 53 0 72 -3 19 -3 39 -6 45
-6z m-165 -13 c0 -5 -4 -10 -10 -10 -5 0 -10 5 -10 10 0 6 5 10 10 10 6 0 10
-4 10 -10z m-3497 -27 c-7 -2 -19 -2 -25 0 -7 3 -2 5 12 5 14 0 19 -2 13 -5z
m137 -72 c0 -5 -9 -13 -20 -16 -27 -9 -25 -22 5 -29 34 -9 33 -42 -1 -50 -26
-7 -114 -86 -96 -86 19 0 78 24 94 38 14 12 20 12 33 2 8 -7 15 -20 15 -30 0
-10 7 -23 15 -30 13 -11 9 -16 -25 -41 -47 -34 -50 -44 -12 -36 42 9 59 -5 44
-38 -17 -36 -15 -38 13 -19 22 15 25 15 25 1 0 -9 -4 -18 -9 -21 -17 -11 -53
-99 -43 -105 6 -3 12 -22 14 -41 3 -30 7 -35 31 -38 15 -2 27 1 27 6 0 6 6 12
14 15 18 7 71 -94 62 -118 -3 -9 1 -32 10 -51 13 -28 14 -40 5 -60 -6 -14 -11
-34 -11 -45 0 -11 -4 -18 -9 -15 -4 3 -11 -38 -16 -92 -4 -53 -9 -119 -12
-147 -2 -27 1 -75 6 -105 15 -81 21 -181 10 -174 -5 3 -9 20 -10 37 -1 18 -4
43 -8 57 -6 23 -8 22 -33 -20 -22 -37 -102 -130 -112 -130 -1 0 0 23 4 50 4
28 3 51 -2 51 -4 1 -16 2 -25 2 -10 1 -24 9 -31 19 -7 10 -21 18 -30 18 -21
-1 -52 -23 -52 -39 0 -6 -4 -11 -8 -11 -4 0 -23 -29 -42 -65 -19 -35 -36 -63
-38 -60 -5 5 17 73 35 107 9 19 13 58 12 130 -1 57 1 126 6 155 4 29 4 60 1
70 -7 17 -8 17 -22 -1 -8 -11 -15 -34 -15 -50 -1 -20 -3 -24 -6 -12 -8 32 -83
-145 -84 -201 -1 -26 -8 -75 -15 -108 l-12 -60 -1 58 c-1 31 -3 57 -6 57 -3 0
-22 -11 -43 -25 -42 -28 -145 -65 -176 -64 -15 0 -16 2 -6 6 8 3 39 15 68 25
51 19 73 41 86 85 6 19 2 22 -46 28 -29 4 -64 11 -76 16 -20 8 -30 2 -72 -41
-53 -55 -72 -65 -43 -22 11 15 34 63 52 107 18 44 44 99 57 123 14 23 22 42
19 42 -4 0 8 19 26 43 39 50 52 71 26 42 -54 -60 -176 -180 -202 -200 -45 -33
-102 -45 -207 -45 -90 0 -96 1 -103 23 -6 19 -8 19 -12 5 -5 -21 -23 -23 -46
-5 -14 11 -11 18 34 67 63 70 62 69 98 127 30 49 73 93 91 93 6 0 10 7 10 15
0 8 4 14 8 12 4 -1 29 21 54 49 25 28 64 68 87 89 23 21 39 40 36 43 -3 3 -31
-20 -63 -51 -32 -31 -61 -57 -64 -57 -4 0 -34 -17 -66 -37 -32 -21 -81 -49
-110 -62 -29 -14 -52 -30 -52 -37 0 -7 -4 -16 -10 -19 -5 -3 -7 0 -4 8 4 11
-12 16 -73 21 -162 14 -242 36 -211 58 10 8 10 11 1 15 -47 19 68 167 222 284
175 135 831 470 992 508 21 5 39 9 41 10 1 1 2 -3 2 -8z m205 -146 c7 -11 16
-31 19 -45 6 -25 6 -25 -5 -2 -7 12 -16 22 -21 22 -13 0 -9 -23 7 -44 8 -11
15 -28 15 -38 0 -11 5 -15 15 -12 8 4 15 17 15 29 0 13 5 27 11 31 6 3 9 14 6
24 -3 11 1 21 9 24 8 3 14 -1 14 -9 0 -7 7 -20 15 -28 19 -19 32 -97 16 -97
-6 0 -11 -9 -11 -19 0 -28 -37 -16 -55 18 -10 19 -14 21 -15 9 0 -30 -20 -20
-27 12 -7 38 -20 47 -28 19 -4 -13 -1 -27 9 -38 9 -10 16 -25 16 -33 0 -9 11
-19 25 -22 30 -8 49 -49 41 -89 -3 -16 -2 -26 3 -22 6 3 16 -4 24 -15 31 -44
57 0 57 96 0 44 0 44 38 46 20 1 47 1 60 1 24 0 27 9 12 38 -11 20 -36 26 -42
9 -1 -5 -18 0 -37 12 -19 12 -29 24 -23 26 7 2 12 10 12 18 0 19 39 18 78 -2
40 -20 53 -74 28 -117 -9 -16 -16 -40 -16 -53 0 -13 -4 -24 -10 -24 -5 0 -10
5 -10 10 0 6 -4 10 -10 10 -5 0 -10 -6 -10 -14 0 -23 -48 -17 -53 8 -2 11 -5
2 -6 -22 -2 -68 -26 -102 -73 -102 -28 0 -39 15 -16 22 18 6 18 36 -1 34 -10
-1 -16 6 -15 20 0 16 -5 20 -23 16 -13 -2 -23 0 -23 6 0 6 -12 10 -27 9 -26
-2 -28 0 -25 33 2 19 8 43 13 52 10 18 -5 36 -16 18 -14 -23 -21 -7 -20 48 1
36 -3 63 -12 73 -12 14 -12 17 2 22 8 4 15 17 15 30 0 29 37 31 55 2z m385
-35 c0 -5 -4 -10 -10 -10 -5 0 -10 5 -10 10 0 6 5 10 10 10 6 0 10 -4 10 -10z
m0 -51 c0 -15 -5 -19 -15 -15 -11 4 -19 -3 -25 -19 -13 -33 -24 -32 -15 2 5
23 4 25 -9 14 -25 -21 -21 8 5 35 17 18 26 21 40 13 11 -5 19 -19 19 -30z
m-29 -92 c-13 -13 -15 1 -4 30 7 17 8 17 11 -1 2 -10 -1 -23 -7 -29z m-221 3
c0 -11 -2 -20 -4 -20 -2 0 -6 9 -9 20 -3 11 -1 20 4 20 5 0 9 -9 9 -20z m187
-22 c-3 -8 -6 -5 -6 6 -1 11 2 17 5 13 3 -3 4 -12 1 -19z m-27 -22 c0 -3 -4
-8 -10 -11 -5 -3 -10 -1 -10 4 0 6 5 11 10 11 6 0 10 -2 10 -4z m96 -31 c-4
-14 -11 -25 -16 -25 -5 0 -7 7 -5 15 3 8 7 22 10 31 9 26 18 8 11 -21z m-374
-82 c22 -20 23 -36 2 -53 -13 -11 -19 -9 -42 14 -26 26 -27 27 -8 42 25 18 25
18 48 -3z m132 -89 c3 -8 20 -23 37 -33 l32 -19 -42 -12 c-22 -6 -41 -15 -41
-20 0 -6 -7 -10 -15 -10 -11 0 -12 5 -5 26 12 32 12 34 0 34 -5 0 -10 -9 -10
-20 0 -24 -28 -70 -42 -70 -5 0 -7 13 -3 29 5 25 3 30 -22 39 l-28 10 27 1
c18 1 36 12 54 35 27 34 47 37 58 10z m60 -80 c18 -7 22 -59 5 -69 -15 -10
-19 -3 -26 39 -6 38 -4 40 21 30z m-159 -84 c9 7 16 5 25 -5 7 -8 26 -15 42
-15 24 0 28 -3 23 -19 -5 -15 -2 -18 14 -14 16 4 20 -2 24 -44 9 -87 8 -116
-8 -133 -9 -10 -24 -16 -34 -13 -15 4 -18 -14 -30 -189 -15 -225 -24 -297 -32
-283 -4 6 -2 39 3 75 10 73 5 124 -14 147 -16 19 -48 218 -48 293 1 34 8 67
19 85 17 29 17 31 -1 49 -20 22 -27 89 -6 68 8 -8 15 -8 23 -2z m210 -29 c3
-5 1 -12 -5 -16 -5 -3 -10 1 -10 9 0 18 6 21 15 7z m204 -53 c25 -126 43 -290
45 -413 1 -56 3 -60 24 -59 25 1 29 -20 10 -61 -14 -32 -30 -33 -22 0 4 15 1
30 -8 38 -12 12 -15 10 -24 -19 -9 -27 -8 -37 2 -45 19 -16 18 -25 -8 -49
l-23 -21 -7 33 c-4 18 -17 85 -28 148 -26 143 -38 190 -50 190 -5 0 -11 -15
-13 -32 -2 -18 -5 10 -7 62 -1 52 -2 99 -1 104 4 22 14 93 16 116 3 39 4 40
24 40 11 0 23 5 26 10 16 25 34 7 44 -42z m-1252 -554 c-3 -3 -12 -4 -19 -1
-8 3 -5 6 6 6 11 1 17 -2 13 -5z m573 -19 c0 -10 -82 -56 -88 -49 -4 4 -2 8 3
10 6 2 26 12 45 23 19 10 36 19 38 20 1 0 2 -1 2 -4z m1035 -15 c-3 -5 0 -10
8 -10 8 0 20 -7 27 -16 12 -13 10 -14 -16 -3 -16 7 -31 14 -33 15 -4 3 9 24
15 24 3 0 2 -4 -1 -10z m-1200 -70 c-3 -5 -12 -10 -18 -10 -7 0 -6 4 3 10 19
12 23 12 15 0z"/>
<path d="M3526 2245 c-16 -14 -37 -25 -47 -25 -21 0 -99 -41 -99 -52 0 -11 2
-10 46 8 52 22 144 77 144 86 0 14 -14 8 -44 -17z"/>
<path d="M2472 1820 c-27 -26 -27 -30 -1 -23 11 3 23 12 26 20 9 23 -2 24 -25
3z"/>
<path d="M2424 1718 l-19 -23 23 19 c21 18 27 26 19 26 -2 0 -12 -10 -23 -22z"/>
<path d="M2702 1430 c-11 -18 -9 -21 20 -34 36 -15 54 -7 44 20 -5 13 -9 15
-18 6 -17 -17 -26 -15 -30 8 l-3 21 -13 -21z"/>
<path d="M3930 2225 c0 -9 6 -12 15 -9 8 4 12 10 9 15 -8 14 -24 10 -24 -6z"/>
<path d="M3970 1655 c0 -14 8 -29 20 -35 19 -10 20 -9 14 17 -9 35 -13 43 -25
43 -5 0 -9 -11 -9 -25z"/>
<path d="M3956 4174 c-9 -24 -8 -25 22 -18 22 5 25 4 15 -7 -19 -19 -16 -33 3
-15 27 28 36 17 9 -11 -14 -15 -25 -32 -25 -38 0 -5 4 -4 9 4 5 7 14 11 20 7
7 -4 9 -1 5 8 -7 18 31 42 41 25 4 -6 14 -8 22 -5 9 4 21 2 27 -3 6 -5 34 -12
62 -16 42 -5 52 -4 58 10 8 23 -50 47 -79 33 -16 -9 -18 -8 -7 3 15 16 16 29
1 29 -5 0 -7 -4 -4 -10 10 -17 -17 -11 -38 8 -11 9 -17 11 -13 5 8 -15 -3 -17
-24 -3 -9 5 -19 5 -27 -2 -10 -8 -21 -8 -39 1 -31 14 -31 14 -38 -5z"/>
<path d="M3895 4170 c3 -5 8 -10 11 -10 2 0 4 5 4 10 0 6 -5 10 -11 10 -5 0
-7 -4 -4 -10z"/>
<path d="M3830 4146 c0 -2 9 -6 20 -9 11 -3 18 -1 14 4 -5 9 -34 13 -34 5z"/>
<path d="M4039 4128 c0 -2 -2 -11 -4 -21 -3 -15 -1 -16 11 -6 7 6 11 15 8 20
-5 9 -13 12 -15 7z"/>
<path d="M3784 4092 c-37 -32 -55 -111 -32 -139 11 -15 11 -16 -6 -10 -16 6
-17 5 -6 -8 10 -12 10 -18 -1 -32 -8 -9 -9 -14 -3 -10 8 5 10 -7 6 -38 -5 -50
3 -59 19 -19 5 15 12 24 15 22 6 -7 -17 -58 -27 -58 -8 0 -2 -46 7 -62 3 -5
11 -5 17 -2 9 5 9 4 0 -6 -11 -12 -10 -17 14 -59 2 -2 9 2 18 9 12 10 15 10
15 -4 0 -9 -4 -16 -10 -16 -5 0 -10 -4 -10 -10 0 -5 7 -10 15 -10 8 0 15 5 15
10 0 6 7 10 15 10 8 0 15 5 15 11 0 5 -4 8 -9 4 -19 -11 -24 18 -6 32 24 16
39 17 28 1 -4 -7 -8 -30 -8 -51 0 -44 16 -53 68 -39 32 9 34 8 29 -10 -4 -19
-1 -20 49 -17 30 2 58 9 62 14 6 7 10 6 13 -2 4 -9 20 -7 62 9 31 11 60 23 64
27 6 6 14 44 24 120 2 19 7 38 10 42 3 5 1 9 -4 9 -13 0 -10 53 3 62 7 5 6 14
-1 26 -13 20 -8 69 9 89 19 26 136 53 193 47 46 -6 54 -4 54 9 0 9 -13 23 -30
32 -48 25 -81 22 -280 -31 -24 -6 -24 -6 -6 8 13 10 15 17 8 22 -7 4 -12 2
-12 -4 0 -6 -4 -8 -10 -5 -5 3 -17 -3 -27 -15 -20 -23 -33 -26 -33 -7 0 7 -9
18 -21 25 -12 8 -18 9 -14 3 3 -6 2 -11 -4 -11 -5 0 -13 5 -16 10 -9 15 -25
12 -25 -5 0 -18 -16 -20 -23 -2 -4 9 -6 8 -6 -2 -1 -11 -4 -11 -17 0 -13 10
-17 10 -24 -1 -7 -12 -10 -11 -16 3 -3 9 -10 14 -15 11 -5 -3 -9 2 -9 10 0 9
-8 16 -17 16 -15 0 -16 -2 -3 -10 8 -5 11 -10 5 -10 -5 0 -23 9 -40 20 -39 26
-44 25 -81 -8z m31 -32 c3 -5 1 -10 -5 -10 -8 0 -11 -14 -8 -39 2 -29 0 -37
-8 -30 -10 8 -11 31 -6 77 2 14 18 16 27 2z m39 4 c13 -5 13 -8 1 -20 -19 -19
-25 -18 -25 6 0 22 1 23 24 14z m204 -59 c-3 -3 -9 2 -12 12 -6 14 -5 15 5 6
7 -7 10 -15 7 -18z m-8 -39 c0 -2 -9 -6 -20 -9 -11 -3 -20 -1 -20 4 0 5 9 9
20 9 11 0 20 -2 20 -4z m30 -17 c0 -6 -4 -7 -10 -4 -5 3 -10 11 -10 16 0 6 5
7 10 4 6 -3 10 -11 10 -16z m-286 -5 c4 -9 5 -17 4 -18 -2 -1 -10 -7 -18 -13
-13 -10 -16 -8 -16 8 0 10 4 19 9 19 4 0 5 5 2 10 -3 6 -2 10 3 10 6 0 13 -7
16 -16z m75 -115 c-15 -9 -32 -2 -24 11 3 5 13 6 21 3 12 -4 13 -8 3 -14z
m-66 -24 c-3 -9 -8 -14 -10 -11 -3 3 -2 9 2 15 9 16 15 13 8 -4z m98 -138
c-13 -12 -20 -15 -16 -7 14 26 28 41 33 35 3 -3 -5 -16 -17 -28z m21 -39 c-12
-12 -35 -1 -27 12 3 5 13 6 21 3 10 -4 12 -9 6 -15z"/>
<path d="M4088 4108 c-4 -10 -4 -18 0 -19 4 0 15 -2 25 -4 9 -2 15 1 11 6 -3
5 -9 7 -14 4 -5 -3 -10 3 -12 12 -3 17 -4 17 -10 1z"/>
<path d="M3880 3550 c0 -5 5 -10 11 -10 5 0 7 5 4 10 -3 6 -8 10 -11 10 -2 0
-4 -4 -4 -10z"/>
<path d="M3705 3500 c3 -5 8 -10 11 -10 2 0 4 5 4 10 0 6 -5 10 -11 10 -5 0
-7 -4 -4 -10z"/>
<path d="M4000 3490 c0 -5 5 -10 11 -10 5 0 7 5 4 10 -3 6 -8 10 -11 10 -2 0
-4 -4 -4 -10z"/>
<path d="M4890 3480 c20 -13 33 -13 25 0 -3 6 -14 10 -23 10 -15 0 -15 -2 -2
-10z"/>
<path d="M3935 3470 c-3 -5 1 -10 10 -10 9 0 13 5 10 10 -3 6 -8 10 -10 10 -2
0 -7 -4 -10 -10z"/>
<path d="M5436 3418 c10 -16 88 -46 139 -53 71 -10 614 -31 609 -24 -2 3 -83
11 -181 18 -264 17 -447 32 -456 38 -18 11 -116 30 -111 21z"/>
<path d="M2655 3403 c-22 -9 -65 -22 -95 -29 l-55 -14 60 4 c38 2 74 12 98 26
20 12 37 24 37 26 0 5 3 6 -45 -13z"/>
<path d="M4855 3410 c3 -5 8 -10 11 -10 2 0 4 5 4 10 0 6 -5 10 -11 10 -5 0
-7 -4 -4 -10z"/>
<path d="M2493 3403 c9 -2 23 -2 30 0 6 3 -1 5 -18 5 -16 0 -22 -2 -12 -5z"/>
<path d="M4475 3390 c5 -14 2 -20 -10 -20 -9 0 -13 5 -10 10 3 6 1 10 -4 10
-16 0 -13 -29 4 -46 12 -13 15 -12 25 5 13 25 13 61 -1 61 -6 0 -8 -9 -4 -20z"/>
<path d="M2373 3393 c9 -2 25 -2 35 0 9 3 1 5 -18 5 -19 0 -27 -2 -17 -5z"/>
<path d="M2263 3383 c15 -2 37 -2 50 0 12 2 0 4 -28 4 -27 0 -38 -2 -22 -4z"/>
<path d="M4991 3361 c-9 -6 -8 -10 6 -13 10 -3 27 -9 37 -14 14 -5 17 -4 12 4
-12 19 -41 31 -55 23z"/>
<path d="M2453 3353 c9 -2 25 -2 35 0 9 3 1 5 -18 5 -19 0 -27 -2 -17 -5z"/>
<path d="M2298 3343 c7 -3 16 -2 19 1 4 3 -2 6 -13 5 -11 0 -14 -3 -6 -6z"/>
<path d="M2133 3333 c20 -2 54 -2 75 0 20 2 3 4 -38 4 -41 0 -58 -2 -37 -4z"/>
<path d="M4595 3330 c-3 -5 0 -19 8 -31 18 -25 33 -8 17 21 -12 23 -16 24 -25
10z"/>
<path d="M2538 3313 c6 -2 18 -2 25 0 6 3 1 5 -13 5 -14 0 -19 -2 -12 -5z"/>
<path d="M3015 3299 c-16 -10 -25 -19 -19 -19 7 0 22 9 35 20 30 24 23 24 -16
-1z"/>
<path d="M4940 3315 c0 -7 54 -55 78 -69 10 -6 12 -5 8 2 -9 15 -86 75 -86 67z"/>
<path d="M5765 3310 c-116 -6 -114 -6 69 -8 104 -1 187 0 185 2 -10 9 -143 12
-254 6z"/>
<path d="M2230 3300 c-72 -6 -71 -6 35 -7 68 -1 100 2 85 7 -14 4 -29 8 -35 7
-5 0 -44 -3 -85 -7z"/>
<path d="M2433 3303 c15 -2 37 -2 50 0 12 2 0 4 -28 4 -27 0 -38 -2 -22 -4z"/>
<path d="M4300 3279 c0 -5 5 -7 10 -4 6 3 10 8 10 11 0 2 -4 4 -10 4 -5 0 -10
-5 -10 -11z"/>
<path d="M5092 3263 c9 -10 18 -25 21 -33 4 -12 6 -11 6 3 1 11 9 17 24 18 17
0 15 3 -13 14 -48 18 -56 18 -38 -2z"/>
<path d="M4366 3234 c-13 -19 -15 -29 -7 -37 6 -6 13 -8 16 -5 6 5 17 68 12
68 -1 0 -10 -12 -21 -26z"/>
<path d="M3951 3224 c0 -11 3 -14 6 -6 3 7 2 16 -1 19 -3 4 -6 -2 -5 -13z"/>
<path d="M1658 3223 c7 -3 16 -2 19 1 4 3 -2 6 -13 5 -11 0 -14 -3 -6 -6z"/>
<path d="M5068 3223 c6 -2 18 -2 25 0 6 3 1 5 -13 5 -14 0 -19 -2 -12 -5z"/>
<path d="M4310 3205 c0 -8 5 -15 10 -15 6 0 10 7 10 15 0 8 -4 15 -10 15 -5 0
-10 -7 -10 -15z"/>
<path d="M2345 3200 c-100 -13 -376 -40 -440 -43 -43 -2 -33 -4 34 -5 78 -2
483 40 516 53 16 6 -44 3 -110 -5z"/>
<path d="M3681 3192 c-1 -25 20 -26 27 -1 3 12 2 12 -6 0 -8 -11 -11 -10 -15
5 -4 16 -5 15 -6 -4z"/>
<path d="M3820 3190 c0 -5 5 -10 11 -10 5 0 7 5 4 10 -3 6 -8 10 -11 10 -2 0
-4 -4 -4 -10z"/>
<path d="M3990 3180 c0 -5 5 -10 11 -10 5 0 7 5 4 10 -3 6 -8 10 -11 10 -2 0
-4 -4 -4 -10z"/>
<path d="M4024 3142 c4 -20 1 -23 -15 -19 -10 3 -19 2 -19 -1 0 -13 15 -27 33
-30 19 -3 22 20 6 53 -9 18 -9 18 -5 -3z"/>
<path d="M6388 3153 c7 -3 16 -2 19 1 4 3 -2 6 -13 5 -11 0 -14 -3 -6 -6z"/>
<path d="M3934 3078 c3 -7 9 -21 12 -30 8 -22 24 -24 24 -2 0 8 5 12 11 8 7
-4 10 1 7 11 -2 11 -14 20 -31 22 -21 3 -27 0 -23 -9z"/>
<path d="M3750 3016 c-21 -54 -22 -86 0 -86 13 0 13 27 -1 35 -7 5 -4 14 7 26
9 11 14 22 11 26 -4 3 0 11 8 17 9 7 11 16 6 24 -6 9 -15 -4 -31 -42z"/>
<path d="M2555 3005 c-55 -19 -91 -34 -79 -34 22 -1 151 40 181 58 30 17 3 11
-102 -24z"/>
<path d="M3860 3022 c-8 -3 -18 -10 -22 -16 -7 -11 -2 -62 8 -78 9 -15 25 3
19 22 -3 10 0 20 9 23 9 4 17 -1 19 -11 4 -14 5 -13 5 3 2 30 -21 63 -38 57z"/>
<path d="M5938 2983 c7 -3 16 -2 19 1 4 3 -2 6 -13 5 -11 0 -14 -3 -6 -6z"/>
<path d="M5868 2963 c7 -3 16 -2 19 1 4 3 -2 6 -13 5 -11 0 -14 -3 -6 -6z"/>
<path d="M5258 1833 c7 -3 16 -2 19 1 4 3 -2 6 -13 5 -11 0 -14 -3 -6 -6z"/>
<path d="M5468 1493 c7 -3 16 -2 19 1 4 3 -2 6 -13 5 -11 0 -14 -3 -6 -6z"/>
<path d="M5129 1477 c7 -10 20 -17 27 -17 8 0 14 -6 14 -13 0 -22 -12 -28 -28
-14 -13 11 -14 9 -2 -10 11 -16 17 -19 27 -11 23 19 14 47 -19 64 -30 16 -32
16 -19 1z"/>
<path d="M5186 1383 c-9 -27 11 -70 26 -55 6 6 4 21 -5 43 -13 32 -14 33 -21
12z"/>
<path d="M5090 1343 c0 -5 5 -14 12 -21 9 -9 8 -12 -5 -12 -23 0 -34 -29 -16
-41 11 -7 11 -9 1 -9 -7 0 -10 -4 -7 -10 3 -5 33 -10 66 -10 58 0 59 0 47 22
-25 42 -98 103 -98 81z"/>
<path d="M2002 1008 c-72 -90 -131 -197 -158 -284 -12 -41 -19 -74 -15 -74 3
0 35 57 70 128 35 70 86 160 113 200 27 41 47 79 46 84 -2 6 -27 -18 -56 -54z"/>
<path d="M1600 571 c-40 -7 -103 -35 -137 -63 -7 -6 -13 -24 -13 -40 0 -30 0
-30 48 -24 65 8 90 8 142 -1 35 -6 48 -14 58 -36 16 -33 8 -77 -13 -77 -22 0
-18 -13 10 -40 47 -44 52 -116 14 -192 -13 -25 -11 -28 10 -28 15 0 20 10 25
48 3 26 13 58 22 71 12 17 18 51 20 125 1 55 5 124 9 151 4 28 3 65 -2 84 -8
31 -10 32 -25 18 -16 -16 -58 -13 -58 4 0 10 -42 10 -110 0z"/>
<path d="M1432 465 c0 -16 2 -22 5 -12 2 9 2 23 0 30 -3 6 -5 -1 -5 -18z"/>
<path d="M4927 249 c-29 -24 -37 -39 -37 -64 0 -31 2 -33 58 -44 85 -17 102
-32 102 -92 l0 -49 61 0 c54 0 60 2 54 18 -34 83 -43 125 -38 174 7 77 -8 94
-72 80 -31 -7 -56 -7 -66 -1 -24 12 -21 13 -62 -22z"/>
<path d="M4280 255 c-9 -11 -10 -19 -3 -26 7 -7 14 -5 23 6 9 11 10 19 3 26
-7 7 -14 5 -23 -6z"/>
<path d="M4330 244 c0 -10 72 -76 77 -70 2 2 0 19 -5 37 -7 29 -13 35 -40 37
-18 2 -32 0 -32 -4z"/>
<path d="M1607 170 c-3 -11 -2 -20 3 -20 12 0 21 28 11 35 -5 2 -11 -4 -14
-15z"/>
<path d="M4231 133 c-5 -21 -12 -59 -16 -85 -5 -42 -4 -48 12 -48 13 0 18 8
19 28 1 15 5 53 8 85 8 65 -8 79 -23 20z"/>
<path d="M1540 88 c0 -7 3 -30 6 -51 5 -30 11 -37 29 -37 33 0 35 8 12 55 -21
42 -47 60 -47 33z"/>
<path d="M4916 43 c-3 -4 -6 -15 -6 -25 0 -14 8 -18 41 -18 24 0 38 4 34 10
-9 15 -62 40 -69 33z"/>
</g>
</svg>
