<?xml version="1.0" standalone="no"?>
<!DOCTYPE svg PUBLIC "-//W3C//DTD SVG 20010904//EN"
 "http://www.w3.org/TR/2001/REC-SVG-20010904/DTD/svg10.dtd">
<svg version="1.0" xmlns="http://www.w3.org/2000/svg"
 width="512.000000pt" height="512.000000pt" viewBox="0 0 512.000000 512.000000"
 preserveAspectRatio="xMidYMid meet">

<g transform="translate(0.000000,512.000000) scale(0.100000,-0.100000)"
fill="#000000" stroke="none">
<path d="M2908 4865 c-208 -57 -434 -161 -622 -285 -105 -69 -112 -72 -202
-85 -229 -35 -374 -114 -440 -240 -21 -40 -35 -55 -50 -55 -73 0 -256 -146
-361 -288 -64 -86 -83 -100 -156 -112 -68 -11 -102 -28 -144 -72 -47 -49 -63
-96 -63 -185 0 -90 -13 -117 -66 -139 -31 -13 -45 -12 -142 10 -59 13 -141 34
-182 45 -146 41 -265 20 -357 -64 -89 -79 -134 -204 -113 -313 25 -136 257
-541 441 -769 367 -458 837 -758 1351 -863 l107 -22 43 24 c65 35 73 61 58
182 -21 177 -23 203 -10 240 54 166 280 182 360 26 18 -36 50 -209 50 -274 0
-78 25 -100 149 -131 35 -9 88 -25 118 -37 l55 -20 118 26 c122 27 339 92 353
106 5 4 -16 21 -45 37 -200 114 -392 331 -523 593 -42 84 -125 285 -125 303 0
2 37 26 81 52 389 230 628 562 664 926 4 37 2 108 -5 160 -29 223 -125 423
-275 573 -68 68 -223 177 -282 198 -18 7 -33 17 -33 23 0 17 77 142 139 225
31 41 91 110 134 152 43 43 75 78 70 77 -4 0 -47 -11 -95 -24z"/>
<path d="M3965 4345 c-104 -37 -183 -197 -125 -255 49 -49 119 -31 135 36 13
54 31 74 66 74 36 0 69 -32 69 -65 0 -35 42 -75 78 -75 17 0 40 9 53 19 51 41
19 167 -58 230 -62 51 -140 64 -218 36z"/>
<path d="M187 1113 c-149 -50 -222 -227 -152 -369 24 -50 67 -93 125 -125 20
-11 146 -15 685 -19 l660 -5 49 -23 c80 -37 112 -67 186 -177 82 -123 121
-156 190 -163 139 -13 233 131 171 262 -22 46 -16 75 20 93 18 10 142 13 501
13 l477 0 -34 56 c-19 31 -39 82 -46 113 -23 114 12 255 84 328 l31 33 -136 0
c-128 0 -137 -1 -143 -20 -4 -11 -18 -34 -31 -50 -69 -81 -134 -97 -268 -67
-119 26 -330 28 -429 4 -127 -32 -209 -18 -274 45 -17 17 -37 44 -44 59 l-11
29 -782 -1 c-687 0 -787 -2 -829 -16z"/>
</g>
</svg>
