<?xml version="1.0" standalone="no"?>
<!DOCTYPE svg PUBLIC "-//W3C//DTD SVG 20010904//EN"
 "http://www.w3.org/TR/2001/REC-SVG-20010904/DTD/svg10.dtd">
<svg version="1.0" xmlns="http://www.w3.org/2000/svg"
 width="800.000000pt" height="533.000000pt" viewBox="0 0 800.000000 533.000000"
 preserveAspectRatio="xMidYMid meet">

<g transform="translate(0.000000,533.000000) scale(0.100000,-0.100000)"
fill="#000000" stroke="none">
<path d="M3490 5305 c0 -14 -4 -25 -8 -25 -17 0 -56 -153 -46 -183 14 -45 21
-192 9 -202 -9 -8 -9 -21 0 -55 10 -39 12 -42 19 -22 4 12 16 27 27 32 10 6
19 18 19 28 0 13 2 14 9 4 6 -10 21 5 55 53 25 36 46 72 46 79 0 15 27 30 48
27 6 -1 12 3 12 9 0 7 22 36 49 66 39 44 49 64 54 102 3 26 9 62 13 80 l7 32
-157 0 -156 0 0 -25z"/>
<path d="M3376 4748 c-11 -42 -7 -58 15 -58 17 0 20 5 17 37 -3 42 -23 55 -32
21z"/>
<path d="M3305 4650 l-20 -7 20 -5 c11 -3 -43 -6 -120 -7 -187 -2 -287 -8
-294 -18 -10 -13 -49 -33 -66 -33 -8 0 -15 -4 -15 -9 0 -5 -18 -17 -40 -27
-22 -10 -40 -24 -40 -32 0 -7 -18 -31 -39 -52 -22 -22 -42 -48 -46 -60 -3 -11
-11 -20 -16 -20 -15 0 -10 -60 6 -77 8 -8 13 -19 10 -24 -7 -11 8 -12 19 -2 3
4 13 8 22 9 12 2 13 0 3 -13 -8 -9 -24 -13 -41 -11 -28 5 -39 -6 -15 -15 6 -3
0 -6 -14 -6 -14 -1 -34 -11 -45 -23 l-19 -21 30 15 c134 71 183 78 502 76 260
-2 263 -2 283 20 12 12 22 32 23 43 1 12 13 26 32 34 56 26 68 41 61 77 -4 18
-7 41 -7 51 0 19 -10 22 -24 8 -14 -14 -44 12 -47 40 -4 31 -15 39 -56 39 -30
0 -31 2 -20 20 16 24 1 41 -27 30z"/>
<path d="M3285 4274 c11 -3 33 -10 50 -15 21 -7 26 -6 19 1 -6 6 -28 13 -50
15 -21 2 -30 2 -19 -1z"/>
<path d="M3190 4260 c20 -13 33 -13 25 0 -3 6 -14 10 -23 10 -15 0 -15 -2 -2
-10z"/>
<path d="M3266 4237 c3 -10 9 -15 12 -12 3 3 0 11 -7 18 -10 9 -11 8 -5 -6z"/>
<path d="M3213 4222 c10 -10 17 -23 17 -29 0 -5 9 -18 20 -28 11 -10 20 -15
20 -11 0 13 -22 51 -41 69 -24 23 -37 22 -16 -1z"/>
<path d="M2888 4223 c7 -3 16 -2 19 1 4 3 -2 6 -13 5 -11 0 -14 -3 -6 -6z"/>
<path d="M2980 4223 c1 -15 28 -43 41 -43 9 1 7 6 -6 16 -11 8 -19 20 -17 25
1 5 -2 9 -8 9 -5 0 -10 -3 -10 -7z"/>
<path d="M3145 4210 c10 -11 23 -20 28 -20 6 0 2 9 -8 20 -10 11 -23 20 -28
20 -6 0 -2 -9 8 -20z"/>
<path d="M3450 4220 c8 -5 20 -10 25 -10 6 0 3 5 -5 10 -8 5 -19 10 -25 10 -5
0 -3 -5 5 -10z"/>
<path d="M2920 4201 c0 -17 18 -21 24 -6 3 9 0 15 -9 15 -8 0 -15 -4 -15 -9z"/>
<path d="M3325 4192 c1 -12 4 -25 8 -28 4 -4 7 -11 7 -16 0 -5 -12 4 -26 19
-21 23 -23 24 -14 6 9 -19 8 -23 -5 -23 -8 0 -15 -4 -15 -10 0 -5 -11 -10 -25
-10 -14 0 -25 6 -25 13 0 8 -4 7 -10 -3 -9 -13 -12 -12 -25 4 -8 11 -15 14
-15 8 0 -8 -21 -12 -65 -12 -41 0 -65 -4 -65 -11 0 -6 -9 -9 -20 -6 -11 3 -17
1 -14 -4 6 -10 -24 -25 -33 -15 -3 3 0 12 7 21 10 13 9 15 -9 15 -14 0 -21 -6
-21 -20 0 -13 -7 -20 -20 -20 -11 0 -20 7 -20 15 0 8 -4 15 -10 15 -5 0 -10
-11 -10 -25 0 -30 -25 -34 -33 -5 -3 11 -11 20 -17 20 -7 0 -10 -6 -7 -13 8
-22 -6 -36 -43 -43 -28 -6 -32 -5 -27 9 4 10 2 17 -3 17 -6 0 -10 -4 -10 -10
0 -5 -7 -10 -16 -10 -8 0 -12 -4 -9 -10 3 -5 -3 -10 -14 -10 -13 0 -21 -7 -21
-16 0 -20 -28 -43 -52 -44 -13 0 -18 8 -18 25 0 17 -5 25 -17 25 -15 0 -16 -2
-3 -10 12 -8 9 -10 -12 -10 -28 0 -38 -15 -16 -22 7 -3 9 -12 5 -22 -5 -14
-15 -17 -37 -14 -39 6 -38 2 3 -16 l32 -14 -27 -1 c-16 -1 -28 -5 -28 -11 0
-5 7 -7 15 -4 30 12 14 -5 -20 -22 -19 -9 -33 -20 -30 -24 3 -5 -1 -11 -7 -13
-7 -3 11 -6 40 -6 40 -1 56 3 69 19 10 11 23 20 31 20 7 0 11 4 8 9 -3 5 6 12
21 16 16 3 32 12 36 18 6 8 7 6 3 -5 -7 -24 4 -23 75 7 33 14 64 23 69 20 6
-4 10 -1 10 4 0 6 12 11 28 10 25 0 25 -1 6 -9 -27 -11 -42 -32 -26 -38 7 -2
9 -9 5 -14 -4 -8 2 -9 18 -3 13 4 44 7 68 6 24 -1 50 4 57 10 8 6 21 9 29 5 8
-3 15 -1 15 5 0 5 12 3 28 -4 15 -8 35 -13 45 -12 9 2 15 -1 12 -5 -3 -5 3
-13 12 -19 15 -9 14 -11 -12 -13 -16 -1 -43 -1 -59 0 -21 2 -27 -1 -23 -12 12
-31 -53 -50 -82 -23 -10 8 -12 8 -7 0 3 -6 2 -14 -4 -18 -29 -18 23 -60 58
-48 14 5 15 3 5 -7 -6 -7 -37 -14 -68 -15 -30 -1 -60 -6 -66 -12 -8 -8 -2 -10
22 -7 19 3 45 5 59 5 14 1 32 5 42 10 10 5 19 5 23 0 8 -13 -13 -24 -45 -23
-27 1 -34 -11 -44 -70 -2 -14 -16 -19 -35 -13 -12 3 -19 11 -16 16 4 5 1 9 -4
9 -6 0 -11 -8 -11 -17 0 -9 -8 -25 -17 -35 -16 -18 -16 -19 3 -12 15 5 16 4 4
-5 -13 -9 -12 -11 5 -11 17 0 17 -2 5 -10 -20 -13 -33 -13 -25 0 3 6 -1 13 -9
16 -9 3 -13 11 -10 16 4 6 1 9 -7 6 -8 -3 -15 -10 -15 -16 -1 -7 -2 -17 -3
-23 0 -5 -6 -7 -11 -4 -6 4 -17 2 -24 -4 -13 -11 -46 -5 -46 8 0 9 72 95 83
100 5 2 20 13 35 26 l27 23 -30 -6 c-27 -5 -29 -4 -16 11 12 15 10 16 -20 5
-45 -15 -46 -16 -16 -27 l25 -10 -46 -48 c-71 -73 -85 -93 -67 -93 8 0 15 -4
15 -9 0 -5 2 -16 5 -24 4 -9 -8 -19 -37 -30 -50 -19 -72 -22 -63 -7 3 6 2 10
-3 10 -4 0 -17 -17 -27 -37 -38 -76 -41 -71 40 -68 52 1 72 -1 68 -9 -3 -6 0
-5 8 2 19 18 56 15 68 -5 8 -13 13 -15 19 -6 9 14 54 18 91 9 34 -8 36 -12 17
-40 -9 -14 -16 -32 -16 -41 0 -8 -5 -15 -11 -15 -6 0 -9 -7 -6 -14 4 -11 1
-13 -10 -9 -10 4 -25 -5 -43 -27 -16 -20 -32 -30 -39 -26 -6 4 -9 12 -6 17 14
22 -15 6 -33 -18 -11 -16 -24 -24 -29 -19 -4 4 8 22 28 39 20 18 34 37 32 44
-6 16 -64 -2 -85 -27 -9 -11 -23 -20 -31 -20 -8 0 -18 -7 -21 -16 -5 -12 -2
-15 10 -10 14 6 15 4 4 -9 -7 -9 -22 -21 -32 -26 -15 -8 -18 -6 -18 16 0 16 6
25 15 25 14 0 18 10 13 27 -2 5 -6 7 -10 6 -5 -2 -8 1 -8 6 0 16 -37 0 -61
-25 -12 -13 -18 -24 -12 -24 36 0 122 -130 157 -238 23 -68 14 -78 -13 -17
-11 26 -25 44 -31 40 -5 -3 -10 -2 -10 4 0 5 5 11 11 13 7 2 5 13 -4 31 -8 14
-17 24 -20 21 -3 -3 -4 2 -1 13 3 11 -10 34 -37 63 -38 42 -41 43 -51 25 -16
-29 -16 -29 -31 -16 -16 13 -40 -7 -35 -30 2 -7 -10 -16 -27 -19 -25 -6 -27
-8 -12 -15 10 -4 22 -16 28 -27 10 -19 9 -20 -20 -16 -35 5 -43 -8 -8 -15 22
-4 22 -4 -2 -6 -21 -1 -23 -5 -19 -40 3 -34 1 -38 -14 -30 -10 6 -19 5 -23 -1
-8 -13 4 -32 15 -25 14 8 20 -9 9 -25 -8 -12 -12 -12 -16 -2 -8 19 -23 14 -23
-8 0 -18 10 -25 32 -21 4 0 5 -6 1 -15 -3 -10 -13 -14 -25 -11 -15 4 -17 2 -8
-8 10 -12 4 -45 -9 -45 -4 0 -12 5 -19 10 -6 6 -10 7 -7 4 8 -11 -15 -44 -30
-44 -16 0 -31 -43 -20 -60 4 -6 -8 -25 -26 -41 -32 -29 -33 -31 -15 -44 12
-10 16 -20 11 -32 -7 -17 -8 -17 -15 2 l-9 20 0 -20 c-1 -15 -8 -20 -28 -20
-16 0 -33 3 -39 7 -17 11 -13 -25 4 -38 13 -9 13 -12 -2 -17 -25 -10 -20 -36
5 -30 15 4 25 0 32 -13 17 -28 17 -75 1 -81 -8 -3 -14 -13 -14 -22 0 -22 -19
-41 -42 -41 -14 0 -18 -8 -19 -37 0 -35 -1 -36 -11 -15 -9 18 -8 30 5 56 13
29 14 35 1 48 -9 8 -12 22 -8 32 4 10 10 13 13 8 3 -5 18 -12 34 -16 24 -6 27
-4 27 19 0 20 -5 25 -25 25 -24 0 -49 34 -39 52 2 3 -8 3 -23 -1 -33 -9 -46
-54 -32 -107 7 -22 6 -40 -1 -53 -6 -12 -7 -29 -1 -43 9 -26 4 -51 -10 -42 -5
3 -9 -4 -9 -15 0 -11 5 -23 10 -26 6 -3 10 -1 10 6 0 7 3 9 6 6 4 -4 1 -13 -6
-22 -7 -8 -14 -25 -15 -38 -1 -12 -3 -26 -4 -31 0 -5 -7 -3 -15 3 -12 10 -13
6 -4 -26 6 -21 12 -55 15 -75 4 -31 2 -38 -12 -38 -11 0 -15 -5 -11 -15 3 -8
1 -15 -4 -15 -5 0 -7 -7 -4 -15 4 -8 1 -15 -4 -15 -6 0 -13 10 -15 23 -4 19
-4 18 -6 -5 -1 -19 -5 -26 -15 -22 -20 8 -26 -31 -8 -57 8 -12 10 -19 4 -15
-6 3 -13 2 -17 -4 -3 -5 -1 -10 4 -10 6 0 11 -12 11 -27 0 -14 -3 -23 -7 -20
-3 4 -12 -1 -18 -10 -10 -13 -10 -23 1 -48 7 -17 9 -37 5 -44 -5 -7 -6 -21 -4
-31 3 -10 0 -21 -6 -24 -15 -10 -14 -66 1 -66 9 0 9 -3 0 -12 -7 -7 -12 -22
-12 -33 0 -33 -11 -37 -37 -13 -13 12 -23 16 -23 10 0 -27 -19 -10 -23 21 -2
17 -4 -6 -5 -53 -1 -47 3 -103 8 -125 18 -71 22 -112 11 -95 -20 28 -11 -32 9
-70 11 -19 24 -47 31 -62 6 -16 15 -25 20 -22 5 3 9 -12 9 -33 0 -47 18 -113
30 -113 13 0 52 -92 47 -112 -3 -9 0 -38 5 -65 6 -26 10 -65 10 -86 0 -39 11
-49 22 -20 17 42 -22 399 -46 430 -6 8 -2 13 11 18 34 11 42 -2 35 -60 -9 -74
11 -153 39 -157 16 -2 23 -12 28 -43 4 -22 12 -52 17 -66 8 -20 6 -36 -9 -68
-11 -26 -16 -53 -13 -67 4 -14 1 -31 -6 -39 -10 -12 -10 -44 -1 -152 11 -127
16 -153 24 -142 17 22 87 161 83 167 -2 4 2 34 10 67 7 33 14 85 14 115 1 53
9 100 44 240 9 36 19 83 22 104 4 30 8 36 15 25 7 -10 9 7 7 54 -2 37 -1 67 3
67 4 0 10 11 13 25 7 29 18 31 41 8 24 -23 15 -93 -19 -162 -33 -69 -33 -105
-1 -135 14 -13 25 -29 25 -35 0 -6 -34 -85 -76 -174 -97 -208 -96 -206 -34
-112 29 44 59 84 66 88 8 4 14 13 14 18 0 16 52 69 62 63 4 -3 8 2 8 10 0 10
9 16 24 16 14 0 28 5 32 11 3 6 22 17 40 25 19 8 34 20 34 27 0 7 18 24 41 37
22 14 46 30 52 35 7 6 24 16 39 24 15 8 25 18 22 23 -3 4 6 8 19 8 14 0 30 7
37 15 7 8 19 15 26 15 8 0 14 8 14 18 1 16 2 16 15 -2 8 -10 20 -16 28 -13 8
3 20 0 26 -6 6 -6 11 -8 11 -4 0 4 10 -1 22 -13 12 -11 30 -20 41 -20 13 0 17
-5 14 -14 -4 -10 -1 -13 9 -9 13 5 15 0 18 -36 1 -8 10 -15 20 -17 10 -1 22
-8 26 -15 4 -6 13 -8 19 -5 11 7 15 -4 12 -36 -1 -10 2 -18 7 -18 5 0 7 -11 4
-25 -3 -16 0 -25 8 -25 7 0 10 -6 7 -14 -4 -10 0 -12 14 -9 15 4 22 0 26 -16
4 -15 13 -21 34 -21 16 0 29 -3 29 -7 0 -4 -12 -31 -27 -60 -23 -46 -29 -52
-50 -47 -21 6 -23 3 -23 -27 1 -32 1 -33 15 -15 14 18 15 18 15 2 0 -13 5 -16
20 -11 17 5 20 2 20 -24 0 -39 15 -47 34 -19 20 28 21 50 2 25 -19 -24 -29 -5
-15 27 12 26 59 44 80 30 8 -4 9 -3 5 4 -4 7 -15 12 -24 12 -13 0 -18 10 -19
43 -2 52 15 110 29 101 7 -5 9 2 4 19 -4 16 -2 27 6 29 7 3 -2 11 -20 19 -18
8 -35 22 -38 31 -3 10 -11 18 -17 18 -6 0 -22 12 -34 27 -13 14 -23 21 -23 15
0 -7 -7 -12 -15 -12 -8 0 -15 5 -15 10 0 6 -6 10 -14 10 -7 0 -16 8 -19 19 -3
12 -17 21 -41 25 -29 6 -121 55 -155 82 -1 1 0 8 5 15 5 9 10 9 18 -3 16 -22
75 -48 108 -48 17 0 40 -10 56 -25 l27 -25 3 26 c3 23 -21 64 -37 63 -13 -2
-51 14 -51 21 0 6 -44 30 -55 30 -2 0 -2 -7 1 -15 8 -19 -10 -20 -25 -2 -8 11
-72 36 -101 40 -3 0 -15 6 -28 13 -23 12 -59 6 -106 -19 -15 -7 -23 -5 -33 9
-7 9 -16 15 -19 11 -7 -6 -74 44 -117 86 -36 35 -50 113 -23 123 8 3 19 19 25
36 14 38 14 58 1 38 -16 -25 -12 21 5 50 8 14 14 33 15 42 0 10 21 61 46 113
25 52 44 101 41 108 -2 6 2 27 9 46 8 18 14 45 14 60 0 14 7 39 15 55 8 15 15
33 15 38 0 6 12 38 27 71 26 57 27 59 34 33 5 -16 2 -40 -5 -58 -10 -22 -11
-41 -3 -70 5 -22 13 -36 16 -31 3 5 18 16 34 26 20 13 27 25 27 51 0 31 29 73
42 60 3 -3 5 3 4 13 0 11 5 17 13 15 12 -3 12 -1 1 13 -11 13 -11 19 3 33 16
15 17 15 17 -3 1 -15 6 -11 19 15 11 19 17 39 14 44 -4 5 -1 6 5 2 7 -4 13 -1
13 6 1 7 2 18 4 23 1 6 3 16 3 23 1 7 7 10 14 6 7 -4 8 -3 4 5 -4 6 -2 27 4
46 13 40 35 61 26 24 -3 -13 3 -4 14 20 12 25 19 50 16 57 -3 7 2 18 10 25 18
15 45 107 78 269 22 109 26 154 27 345 2 194 0 229 -18 295 -18 65 -19 78 -7
102 8 15 14 35 14 45 0 16 -6 18 -35 15 -40 -5 -43 5 -24 86 12 48 39 91 39
62 0 -10 9 -5 25 13 14 15 31 27 37 27 7 0 23 11 37 24 31 28 214 138 256 154
39 14 135 33 143 28 4 -2 32 0 62 5 30 5 114 13 185 18 207 15 739 92 881 127
60 15 87 35 70 51 -14 14 -197 32 -223 22 -18 -7 -30 -6 -37 1 -15 15 -26 12
-26 -6 0 -13 -3 -14 -15 -4 -8 7 -22 10 -30 6 -8 -3 -15 0 -15 7 0 8 -4 7 -10
-3 -9 -13 -11 -13 -19 0 -5 8 -7 18 -4 24 4 5 -1 7 -12 3 -9 -4 -24 -2 -31 4
-11 9 -14 8 -14 -1 0 -7 -7 -10 -15 -6 -10 4 -15 -1 -15 -14 0 -13 -7 -20 -20
-20 -14 0 -20 7 -20 24 0 27 -24 41 -48 26 -14 -8 -13 -10 8 -11 24 -1 23 -1
-5 -10 -16 -5 -50 -7 -75 -4 -28 3 -38 2 -25 -4 58 -24 -91 -35 -245 -17 -35
4 -48 3 -35 -3 15 -6 8 -9 -32 -12 -30 -2 -51 0 -50 6 3 14 -64 6 -90 -11 -36
-23 -41 -16 -8 11 l30 25 -30 -6 c-25 -5 -33 -1 -44 19 -15 29 -82 62 -106 53
-9 -3 -13 -2 -10 4 3 6 -1 10 -9 10 -9 0 -16 5 -16 11 0 6 -8 8 -19 4 -11 -3
-22 -1 -25 4 -4 6 -12 8 -20 5 -7 -3 -18 5 -24 18 l-11 23 0 -22 c-1 -28 -9
-29 -27 -5 -7 9 -14 12 -14 5 0 -6 5 -15 10 -18 17 -10 12 -45 -5 -39 -8 4
-15 14 -15 23 0 10 -6 25 -13 36 -13 17 -14 17 -12 -3z m155 -78 c0 -8 -4 -14
-10 -14 -5 0 -10 9 -10 21 0 11 5 17 10 14 6 -3 10 -13 10 -21z m37 -11 c8 -6
13 -17 11 -24 -6 -19 -38 19 -37 44 0 15 2 17 6 7 3 -8 12 -20 20 -27z m-151
-30 c-5 -16 -5 -16 7 -2 10 14 14 14 25 3 11 -12 9 -16 -13 -24 -14 -5 -25
-12 -25 -14 0 -3 6 -3 13 0 9 3 13 -4 13 -24 0 -24 -3 -28 -25 -26 -14 1 -28
3 -31 4 -3 1 -9 2 -15 0 -5 -1 -4 4 3 11 6 7 12 24 12 36 0 24 18 52 34 53 4
0 5 -8 2 -17z m213 8 c14 -9 5 -18 -18 -17 -18 1 -27 26 -9 26 7 0 19 -4 27
-9z m-461 -25 c-15 -16 -51 -18 -45 -3 2 7 12 11 21 11 9 -1 16 2 16 8 0 5 4
6 10 3 6 -4 6 -11 -2 -19z m1585 -20 c4 -10 1 -13 -9 -9 -15 6 -19 23 -5 23 5
0 11 -7 14 -14z m-1646 -28 c-3 -8 -6 -5 -6 6 -1 11 2 17 5 13 3 -3 4 -12 1
-19z m1621 13 c9 -5 3 -8 -17 -9 -17 0 -40 -3 -50 -7 -11 -3 -23 0 -27 6 -4 7
-3 9 3 6 5 -3 23 -2 39 3 38 11 37 11 52 1z m-138 -22 c0 -6 -4 -7 -10 -4 -5
3 -10 11 -10 16 0 6 5 7 10 4 6 -3 10 -11 10 -16z m-140 1 c0 -5 -8 -10 -17
-10 -15 0 -16 2 -3 10 19 12 20 12 20 0z m47 4 c-3 -3 -12 -4 -19 -1 -8 3 -5
6 6 6 11 1 17 -2 13 -5z m-1119 -131 c-10 -2 -26 -2 -35 0 -10 3 -2 5 17 5 19
0 27 -2 18 -5z m-491 -305 c-3 -8 -6 -5 -6 6 -1 11 2 17 5 13 3 -3 4 -12 1
-19z m-12 -58 c-3 -5 -13 -10 -21 -10 -8 0 -12 5 -9 10 3 6 13 10 21 10 8 0
12 -4 9 -10z m-114 -293 c-13 -12 -20 -15 -16 -7 14 26 28 41 33 35 3 -3 -5
-16 -17 -28z m51 -19 c-7 -7 -12 -8 -12 -2 0 6 3 14 7 17 3 4 9 5 12 2 2 -3
-1 -11 -7 -17z m-78 -34 c9 -8 21 -12 28 -8 8 5 9 2 5 -9 -3 -10 -2 -17 3 -17
6 0 10 5 10 12 0 6 3 9 6 5 3 -3 -4 -28 -17 -56 -25 -52 -41 -68 -31 -29 4 17
2 20 -13 15 -14 -6 -16 -3 -12 13 3 13 0 20 -10 20 -8 0 -12 4 -8 9 3 5 -5 13
-17 17 l-22 7 23 18 c28 23 35 23 55 3z m70 -62 c3 -5 -1 -9 -9 -9 -8 0 -12 4
-9 9 3 4 7 8 9 8 2 0 6 -4 9 -8z m-20 -71 c3 -5 -1 -12 -10 -15 -20 -8 -29 -1
-19 13 8 13 22 14 29 2z m-224 -27 c0 -16 -16 -19 -25 -4 -8 13 4 32 16 25 5
-4 9 -13 9 -21z m252 1 c-5 -31 -13 -37 -32 -25 -12 8 -11 12 5 29 27 27 33
26 27 -4z m-299 -32 c-7 -3 -9 -11 -6 -20 4 -10 2 -14 -7 -11 -7 2 -14 13 -15
25 -1 16 3 19 19 15 11 -3 15 -7 9 -9z m90 -21 c-7 -29 -43 -30 -43 -1 0 16 5
20 20 16 11 -3 20 0 20 6 0 6 2 8 5 6 2 -3 2 -15 -2 -27z m30 -76 c6 -16 -2
-28 -14 -20 -12 7 -11 34 0 34 5 0 11 -6 14 -14z m-103 -26 c0 -11 -6 -20 -13
-20 -19 0 -27 10 -20 26 8 21 33 17 33 -6z m57 -36 c4 -13 -24 -27 -37 -19 -5
3 -7 12 -3 21 6 17 34 15 40 -2z m123 -35 c0 -5 -4 -9 -10 -9 -5 0 -10 7 -10
16 0 8 5 12 10 9 6 -3 10 -10 10 -16z m104 -114 l5 -80 -9 75 c-6 41 -12 82
-16 90 -3 10 -2 12 5 5 6 -6 13 -47 15 -90z m-349 75 c3 -5 -3 -10 -15 -10
-12 0 -18 5 -15 10 3 6 10 10 15 10 5 0 12 -4 15 -10z m105 -46 c0 -16 -16
-19 -25 -4 -8 13 4 32 16 25 5 -4 9 -13 9 -21z m-200 -45 c0 -5 -4 -9 -10 -9
-5 0 -10 7 -10 16 0 8 5 12 10 9 6 -3 10 -10 10 -16z m38 2 c3 -8 -1 -12 -9
-9 -7 2 -15 10 -17 17 -3 8 1 12 9 9 7 -2 15 -10 17 -17z m62 -22 c0 -6 -4 -7
-10 -4 -5 3 -10 11 -10 16 0 6 5 7 10 4 6 -3 10 -11 10 -16z m100 -29 c-18
-11 -24 -6 -16 16 5 14 9 15 19 5 9 -9 9 -14 -3 -21z m-167 -96 c-3 -8 -9 -14
-13 -14 -14 0 -22 20 -16 37 5 12 9 13 21 3 7 -6 11 -18 8 -26z m122 -4 c-4
-7 -20 -7 -43 -1 -1 1 3 7 10 15 14 15 43 2 33 -14z m-200 0 c3 -5 1 -10 -4
-10 -6 0 -11 5 -11 10 0 6 2 10 4 10 3 0 8 -4 11 -10z m35 -79 c0 -11 -23 -15
-32 -5 -3 3 -4 14 -1 24 4 17 7 17 19 5 8 -7 14 -18 14 -24z m90 -43 c0 -4
-11 -8 -25 -8 -27 0 -32 13 -12 35 10 12 14 11 25 -3 6 -8 12 -19 12 -24z
m170 16 c0 -8 -4 -12 -10 -9 -5 3 -10 10 -10 16 0 5 5 9 10 9 6 0 10 -7 10
-16z m-327 -37 c4 3 7 -3 7 -14 0 -24 -17 -33 -44 -23 -18 6 -18 7 -2 13 12 5
16 13 11 29 -6 21 -5 22 8 6 8 -10 17 -15 20 -11z m534 -51 c-16 -24 -77 -73
-77 -61 0 3 19 26 41 50 44 47 63 53 36 11z m-478 -43 c1 -15 -8 -16 -29 -3
-12 8 -12 12 0 36 l15 26 6 -23 c4 -13 7 -30 8 -36z m-101 1 c-9 -9 -21 -13
-27 -9 -16 10 -3 25 22 25 20 0 20 -1 5 -16z m220 -22 c2 -7 -3 -12 -12 -12
-9 0 -16 7 -16 16 0 17 22 14 28 -4z m-258 -14 c0 -4 -5 -10 -10 -13 -6 -3 -8
-16 -4 -29 6 -24 -18 -52 -35 -42 -5 3 -12 0 -14 -6 -3 -7 -6 -3 -6 10 -1 13
3 21 8 18 12 -8 21 18 11 34 -13 21 -1 38 26 36 13 0 24 -4 24 -8z m117 -23
c7 -20 -2 -29 -21 -22 -9 4 -13 13 -10 22 8 19 23 19 31 0z m513 -13 c0 -16
-40 -116 -51 -126 -8 -8 -10 -4 -5 14 6 22 5 23 -6 8 -7 -9 -18 -25 -25 -35
-20 -31 -14 0 7 35 11 18 25 30 31 26 6 -3 9 0 7 7 -4 18 22 79 33 79 5 0 9
-3 9 -8z m-345 -12 c3 -5 2 -10 -4 -10 -5 0 -13 5 -16 10 -3 6 -2 10 4 10 5 0
13 -4 16 -10z m-374 -40 c1 -16 3 -34 4 -40 1 -5 3 -15 4 -21 0 -6 10 -9 21
-6 17 4 20 0 20 -24 0 -16 5 -38 12 -48 9 -15 8 -22 -5 -36 -9 -9 -17 -22 -17
-28 0 -22 -20 17 -20 40 0 12 -6 28 -14 36 -15 15 -27 157 -13 157 4 0 8 -13
8 -30z m189 -7 c0 -8 -4 -12 -9 -9 -5 4 -11 0 -14 -6 -3 -10 -7 -10 -17 -1 -7
6 -10 18 -7 27 7 18 47 10 47 -11z m130 -49 c0 -16 -16 -19 -25 -4 -8 13 4 32
16 25 5 -4 9 -13 9 -21z m-190 -25 c0 -17 -31 -22 -41 -6 -4 5 -4 17 -2 28 4
15 8 16 24 6 10 -6 19 -19 19 -28z m144 -35 c4 -10 1 -14 -6 -12 -15 5 -23 28
-10 28 5 0 13 -7 16 -16z m-264 -55 c0 -17 -4 -28 -10 -24 -5 3 -10 17 -10 31
0 13 5 24 10 24 6 0 10 -14 10 -31z m216 -27 c-10 -10 -29 15 -21 28 6 9 10 8
17 -4 6 -10 7 -20 4 -24z m-242 -34 c3 -13 6 -34 7 -48 1 -17 3 -19 6 -7 2 9
9 17 14 17 5 0 9 8 9 18 0 14 4 12 20 -8 12 -16 20 -20 20 -10 0 12 2 12 13 1
9 -10 9 -15 0 -18 -7 -2 -17 -21 -24 -41 -13 -39 -39 -81 -51 -82 -4 0 -4 23
-1 51 5 42 3 51 -8 47 -8 -2 -16 -17 -17 -33 -2 -16 -10 -34 -19 -40 -15 -11
-31 -95 -17 -95 4 0 18 10 31 22 13 12 23 16 23 10 0 -21 19 -13 23 11 3 21 4
21 15 -4 6 -15 17 -29 24 -32 9 -3 5 -11 -12 -25 -14 -12 -19 -21 -12 -22 7 0
10 -4 7 -10 -3 -5 -1 -10 5 -10 6 0 10 7 8 16 -2 10 3 19 11 22 8 3 11 0 7 -6
-4 -6 -11 -64 -16 -129 -22 -276 -29 -345 -36 -352 -6 -5 -1 170 11 359 3 49
2 66 -4 49 -5 -14 -12 -93 -16 -175 -8 -145 -12 -216 -14 -241 -1 -7 -6 -13
-12 -13 -6 0 -8 9 -4 21 5 14 3 19 -3 15 -6 -4 -17 13 -26 41 l-15 48 5 -40
c4 -30 3 -36 -5 -25 -6 8 -11 21 -11 28 0 7 -14 41 -31 75 -32 63 -48 159 -34
194 7 17 8 17 15 -2 4 -12 10 18 14 79 5 69 13 108 27 133 16 28 18 38 8 47
-9 8 -10 8 -4 -3 5 -9 4 -12 -2 -8 -14 9 -8 75 9 95 8 10 15 28 16 42 1 14 6
26 12 28 5 2 10 10 10 18 0 22 17 16 24 -8z m188 -12 c4 -5 5 -13 2 -17 -7
-11 -44 2 -44 15 0 15 32 17 42 2z m178 -43 c-11 -17 -11 -17 -6 0 3 10 7 28
7 40 2 22 2 22 6 0 2 -12 -1 -30 -7 -40z m37 -45 c-3 -7 -5 -2 -5 12 0 14 2
19 5 13 2 -7 2 -19 0 -25z m-94 -2 c-3 -16 -10 -23 -19 -19 -10 4 -11 9 -1 24
16 26 25 24 20 -5z m40 -29 c-10 -47 -13 -53 -23 -38 -9 16 8 74 20 66 4 -3 6
-15 3 -28z m-146 -9 c-3 -8 -6 -5 -6 6 -1 11 2 17 5 13 3 -3 4 -12 1 -19z
m168 -96 c-14 -50 -25 -98 -25 -106 0 -8 -5 -18 -12 -22 -8 -5 -9 0 -4 17 3
13 13 51 22 84 31 127 38 149 42 134 2 -9 -8 -57 -23 -107z m-80 66 c-8 -39
-85 -281 -92 -288 -2 -2 -1 20 3 50 4 30 12 58 18 62 8 6 7 8 -1 8 -16 0 3 60
25 77 9 8 14 28 14 58 -1 27 3 43 8 40 6 -4 13 1 16 9 11 27 16 17 9 -16z m32
-55 c-3 -10 -5 -4 -5 12 0 17 2 24 5 18 2 -7 2 -21 0 -30z m-36 -128 l-21 -60
5 57 c3 31 11 80 17 110 l13 53 3 -50 c2 -31 -5 -73 -17 -110z m-138 43 c-18
-62 -29 -78 -18 -28 9 42 23 80 29 80 3 0 -2 -24 -11 -52z m-345 -163 c-3 -3
-9 2 -12 12 -6 14 -5 15 5 6 7 -7 10 -15 7 -18z m32 -46 c0 -6 -4 -7 -10 -4
-5 3 -10 1 -10 -6 0 -7 -2 -10 -5 -7 -9 8 6 38 16 32 5 -3 9 -10 9 -15z m30
-221 c0 -5 -4 -8 -10 -8 -5 0 -10 10 -10 23 0 18 2 19 10 7 5 -8 10 -18 10
-22z m520 -66 c0 -22 -26 -127 -41 -164 -14 -34 -24 -35 -45 -3 -19 29 -11 63
18 67 21 3 59 81 50 106 -2 7 1 12 7 12 6 0 11 -8 11 -18z m660 -292 c0 -5 -4
-10 -10 -10 -5 0 -10 5 -10 10 0 6 5 10 10 10 6 0 10 -4 10 -10z"/>
<path d="M3360 4009 c0 -5 5 -7 10 -4 6 3 10 8 10 11 0 2 -4 4 -10 4 -5 0 -10
-5 -10 -11z"/>
<path d="M2010 1481 c0 -16 5 -33 10 -36 6 -4 10 6 10 24 0 16 -4 33 -10 36
-6 4 -10 -6 -10 -24z"/>
<path d="M2011 1374 c0 -11 3 -14 6 -6 3 7 2 16 -1 19 -3 4 -6 -2 -5 -13z"/>
<path d="M2818 4183 c7 -3 16 -2 19 1 4 3 -2 6 -13 5 -11 0 -14 -3 -6 -6z"/>
<path d="M3788 4103 c6 -2 18 -2 25 0 6 3 1 5 -13 5 -14 0 -19 -2 -12 -5z"/>
<path d="M3898 4103 c34 -2 90 -2 125 0 34 2 6 3 -63 3 -69 0 -97 -1 -62 -3z"/>
<path d="M4120 4106 c0 -8 71 -12 76 -4 3 4 -13 8 -35 8 -23 0 -41 -2 -41 -4z"/>
<path d="M3745 4070 c-3 -6 1 -7 9 -4 18 7 21 14 7 14 -6 0 -13 -4 -16 -10z"/>
<path d="M2799 3930 c-19 -15 -21 -19 -7 -20 27 0 48 11 48 26 0 19 -14 17
-41 -6z"/>
<path d="M2478 3933 c7 -3 16 -2 19 1 4 3 -2 6 -13 5 -11 0 -14 -3 -6 -6z"/>
<path d="M2405 3910 c-19 -8 -19 -9 2 -9 12 -1 25 4 28 9 7 12 -2 12 -30 0z"/>
<path d="M2390 3830 c-18 -5 -11 -8 28 -8 28 0 54 4 57 8 6 10 -51 10 -85 0z"/>
<path d="M2562 3833 c-14 -3 -22 -10 -19 -17 4 -9 -5 -13 -24 -14 -15 0 -36
-5 -46 -11 -16 -8 -14 -10 11 -17 l29 -7 -29 -13 c-16 -7 -23 -13 -16 -13 7
-1 10 -6 6 -13 -5 -8 -2 -9 9 -5 24 9 21 0 -4 -14 -15 -8 -19 -8 -15 0 5 7 -2
11 -18 11 -29 0 -35 -17 -8 -22 9 -2 -9 -7 -41 -11 -33 -4 -65 -14 -74 -22 -9
-9 -10 -15 -3 -15 6 0 8 -5 4 -11 -4 -8 1 -9 16 -4 15 5 20 4 16 -4 -4 -6 -16
-11 -27 -11 -11 0 -22 -8 -26 -17 -3 -10 -13 -26 -20 -35 -8 -9 -12 -21 -9
-26 3 -5 -3 -21 -14 -35 -22 -27 -26 -57 -9 -57 5 0 7 4 4 10 -3 5 7 15 22 22
15 7 31 17 35 23 4 5 8 6 8 1 0 -5 -16 -25 -36 -44 -22 -21 -33 -40 -29 -50 3
-8 -2 -26 -11 -40 -16 -24 -16 -26 2 -39 26 -19 32 -17 49 17 12 23 138 176
165 200 4 3 16 22 29 43 12 20 32 44 44 53 21 15 20 16 -18 10 -25 -4 -49 -17
-65 -34 -29 -33 -79 -66 -87 -58 -3 3 10 13 30 22 19 9 38 25 40 35 3 11 19
27 36 36 17 10 31 24 31 32 0 7 6 11 15 8 8 -4 26 0 40 7 17 9 22 15 13 18
-10 4 -9 8 4 21 18 19 33 23 23 7 -8 -14 18 -13 32 1 15 15 6 39 -12 33 -7 -3
-12 2 -12 13 0 32 -3 43 -10 42 -5 -1 -18 -4 -31 -6z m-147 -171 c-8 -9 -75
-10 -70 -2 3 4 21 8 40 7 19 -1 32 -3 30 -5z m-95 -107 c-33 -19 -50 -18 -26
0 11 8 27 15 35 15 10 -1 7 -6 -9 -15z"/>
<path d="M2330 3740 c-13 -8 -13 -10 2 -10 9 0 20 5 23 10 8 13 -5 13 -25 0z"/>
<path d="M2395 3740 c-13 -6 -15 -9 -5 -9 8 0 22 4 30 9 18 12 2 12 -25 0z"/>
<path d="M2368 3343 c-27 -9 -48 -20 -48 -24 0 -4 24 0 54 11 29 10 62 20 72
23 14 3 13 5 -6 5 -14 1 -46 -6 -72 -15z"/>
<path d="M2690 3310 c-6 -11 -15 -18 -21 -15 -5 4 -9 0 -9 -8 0 -20 54 -10 76
14 22 24 7 25 -19 2 -19 -17 -20 -17 -8 5 7 13 8 22 2 22 -6 0 -15 -9 -21 -20z"/>
<path d="M2420 3060 c0 -6 7 -10 15 -10 8 0 15 2 15 4 0 2 -7 6 -15 10 -8 3
-15 1 -15 -4z"/>
<path d="M2144 3052 c-17 -11 -26 -45 -14 -52 7 -4 0 -14 -17 -25 -27 -18 -28
-18 -13 0 13 16 13 18 0 13 -7 -2 -23 -20 -33 -38 -11 -19 -13 -29 -5 -23 10
9 18 8 32 -3 18 -12 22 -12 43 7 12 12 20 26 17 30 -3 5 6 21 20 36 15 15 26
31 26 35 0 4 6 5 14 2 8 -3 17 -1 20 5 4 5 -2 10 -11 10 -10 -1 -29 2 -43 5
-14 3 -30 2 -36 -2z"/>
<path d="M2063 2904 c-5 -13 -7 -13 -14 -2 -6 9 -9 3 -9 -17 0 -24 3 -27 10
-15 21 30 31 50 25 50 -3 0 -8 -7 -12 -16z"/>
<path d="M2025 2811 c-17 -35 -19 -45 -5 -36 6 3 10 -1 10 -10 0 -9 -4 -14 -9
-11 -5 3 -12 -13 -15 -36 -4 -23 -10 -47 -15 -53 -11 -13 -22 -45 -16 -45 15
0 67 129 68 167 0 27 3 39 8 31 6 -9 9 -9 9 -1 0 26 -20 22 -35 -6z"/>
<path d="M1861 2264 c0 -11 3 -14 6 -6 3 7 2 16 -1 19 -3 4 -6 -2 -5 -13z"/>
<path d="M2677 1793 c-4 -3 -7 -11 -7 -17 0 -6 5 -5 12 2 6 6 9 14 7 17 -3 3
-9 2 -12 -2z"/>
<path d="M1910 1740 c0 -5 5 -10 11 -10 5 0 7 5 4 10 -3 6 -8 10 -11 10 -2 0
-4 -4 -4 -10z"/>
<path d="M1841 1668 c-1 -50 6 -78 20 -78 4 0 6 6 3 14 -3 8 -9 36 -14 62 l-8
49 -1 -47z"/>
<path d="M1881 1564 c0 -11 3 -14 6 -6 3 7 2 16 -1 19 -3 4 -6 -2 -5 -13z"/>
<path d="M1768 1388 c-3 -7 -1 -24 3 -38 6 -22 7 -20 8 13 1 38 -3 47 -11 25z"/>
<path d="M2560 1193 c0 -16 42 -45 71 -48 16 -2 34 -7 39 -10 6 -4 20 -3 32 1
19 6 13 9 -32 20 -30 8 -67 21 -82 30 -16 8 -28 11 -28 7z"/>
<path d="M2790 1149 c0 -8 79 -24 86 -17 2 3 -16 9 -41 15 -25 6 -45 7 -45 2z"/>
<path d="M2920 904 c0 -8 5 -12 10 -9 6 4 8 11 5 16 -9 14 -15 11 -15 -7z"/>
<path d="M2975 870 c3 -5 8 -10 11 -10 2 0 4 5 4 10 0 6 -5 10 -11 10 -5 0 -7
-4 -4 -10z"/>
<path d="M2887 853 c-4 -3 -7 -11 -7 -17 0 -6 5 -5 12 2 6 6 9 14 7 17 -3 3
-9 2 -12 -2z"/>
<path d="M2906 814 c-15 -14 -22 -34 -12 -34 2 0 11 11 20 25 19 28 15 33 -8
9z"/>
<path d="M2993 823 c9 -2 23 -2 30 0 6 3 -1 5 -18 5 -16 0 -22 -2 -12 -5z"/>
<path d="M2940 800 c0 -5 5 -10 10 -10 6 0 10 5 10 10 0 6 -4 10 -10 10 -5 0
-10 -4 -10 -10z"/>
<path d="M3004 789 c-3 -6 -23 -18 -43 -27 -29 -13 -32 -16 -16 -20 10 -2 21
1 23 7 5 16 20 13 24 -5 2 -11 8 -7 21 15 10 17 13 32 8 35 -5 4 -13 1 -17 -5z"/>
<path d="M2956 685 c-3 -8 -1 -15 4 -15 6 0 10 7 10 15 0 8 -2 15 -4 15 -2 0
-6 -7 -10 -15z"/>
<path d="M3057 675 c-4 -8 -16 -15 -28 -15 -18 0 -20 -2 -8 -16 10 -13 10 -17
-2 -24 -9 -6 -16 -5 -19 3 -3 7 -14 12 -25 12 -11 0 -23 4 -27 9 -3 5 -5 -3
-5 -17 2 -22 4 -24 18 -11 19 17 40 1 32 -25 -3 -12 -1 -11 11 3 20 25 32 15
15 -13 -14 -21 -8 -37 10 -26 6 3 11 17 11 30 0 18 4 23 15 19 8 -4 15 -1 15
6 0 6 -4 9 -9 5 -18 -11 -22 15 -5 40 9 14 14 28 12 31 -3 3 -8 -2 -11 -11z"/>
<path d="M3280 621 c0 -5 5 -13 10 -16 6 -3 10 -2 10 4 0 5 -4 13 -10 16 -5 3
-10 2 -10 -4z"/>
<path d="M2954 577 c-5 -8 -16 -17 -24 -21 -8 -3 -2 -3 15 0 37 7 42 11 28 25
-8 8 -13 7 -19 -4z"/>
<path d="M3046 555 c-3 -8 -1 -15 4 -15 6 0 10 7 10 15 0 8 -2 15 -4 15 -2 0
-6 -7 -10 -15z"/>
<path d="M2950 535 c-14 -7 -26 -22 -26 -32 -3 -32 -9 -48 -20 -53 -8 -3 -9
-13 -2 -30 l10 -25 9 23 c5 12 20 27 34 32 17 6 25 17 25 32 -1 21 -2 21 -11
6 -11 -19 -39 -25 -39 -8 0 6 7 10 16 10 8 0 12 5 9 10 -4 6 5 10 20 10 21 0
26 4 21 16 -3 9 -6 18 -6 20 0 7 -15 4 -40 -11z"/>
<path d="M3094 496 c-6 -33 -26 -52 -44 -41 -5 3 -7 12 -4 19 6 15 -22 30 -31
16 -3 -5 -9 -32 -12 -60 -5 -44 -4 -50 11 -44 9 3 16 10 16 15 0 17 69 10 79
-8 6 -10 11 -13 11 -7 0 5 -5 15 -11 21 -9 9 -6 21 10 48 16 28 19 41 11 56
-16 28 -28 23 -36 -15z"/>
<path d="M2942 410 c-12 -11 -19 -27 -16 -35 4 -9 0 -15 -10 -15 -9 0 -16 -7
-16 -15 0 -19 0 -19 38 1 19 9 35 26 38 40 9 36 -8 48 -34 24z"/>
<path d="M3054 347 l-1 -30 13 24 c17 30 17 36 2 36 -7 0 -14 -14 -14 -30z"/>
<path d="M2835 330 c-4 -7 -9 -22 -9 -34 -1 -11 -7 -20 -14 -19 -6 2 -9 -4 -6
-12 4 -8 10 -15 15 -15 5 0 9 -7 9 -16 0 -14 3 -14 15 -4 9 8 15 8 15 2 0 -6
9 -14 21 -17 14 -5 19 -13 16 -26 -3 -10 -1 -19 4 -19 5 0 9 -7 9 -15 0 -8 5
-15 11 -15 7 0 10 12 7 29 -5 31 17 34 26 3 2 -10 4 3 5 28 0 25 3 57 6 71 6
24 4 27 -33 33 -22 3 -43 12 -45 18 -3 7 -6 0 -7 -17 l-1 -30 -18 34 c-13 24
-20 30 -26 21z"/>
<path d="M3020 320 c0 -11 -3 -20 -7 -20 -10 0 -34 -52 -28 -59 7 -6 34 31 35
47 0 6 4 12 8 12 4 0 8 9 9 20 1 11 -2 20 -8 20 -5 0 -9 -9 -9 -20z"/>
<path d="M2805 320 c-3 -5 -1 -10 4 -10 6 0 11 5 11 10 0 6 -2 10 -4 10 -3 0
-8 -4 -11 -10z"/>
<path d="M2815 162 c-11 -11 -4 -21 10 -16 9 4 15 0 15 -10 0 -9 -7 -16 -15
-16 -18 0 -19 -9 -1 -32 13 -18 36 -24 36 -10 0 4 3 18 7 31 5 18 3 22 -7 16
-8 -5 -11 -3 -8 6 3 8 11 13 17 12 6 -2 11 2 11 7 0 6 -3 10 -7 11 -5 0 -18 2
-31 3 -12 2 -24 0 -27 -2z"/>
<path d="M2760 125 c0 -8 -7 -15 -15 -15 -18 0 -20 -20 -2 -20 7 -1 4 -8 -8
-18 -11 -10 -29 -28 -39 -40 -18 -21 -18 -22 -2 -16 11 4 22 1 27 -7 8 -12 12
-11 24 5 19 25 19 40 0 32 -21 -8 -19 10 3 26 15 12 30 68 17 68 -3 0 -5 -7
-5 -15z"/>
<path d="M2887 101 c-4 -18 -6 -48 -6 -65 1 -21 4 -14 10 23 10 60 6 96 -4 42z"/>
<path d="M2798 3 c7 -3 16 -2 19 1 4 3 -2 6 -13 5 -11 0 -14 -3 -6 -6z"/>
</g>
</svg>
