<svg version="1.1" id="Layer_1" xmlns="http://www.w3.org/2000/svg" xmlns:xlink="http://www.w3.org/1999/xlink" x="0px" y="0px"
	 width="100%" viewBox="0 0 896 896" enable-background="new 0 0 896 896" xml:space="preserve">
<path fill="#000000" opacity="1.000000" stroke="none" 
	d="
M343.572449,448.535889 
	C332.123444,443.159241 321.909149,444.615295 311.901886,451.540436 
	C308.446503,453.931641 304.456024,456.294830 298.630981,456.340515 
	C303.492859,451.293030 309.261078,449.146667 314.233612,444.380615 
	C296.814240,447.420715 280.290497,449.826324 263.695038,451.672272 
	C246.158875,453.622803 228.610931,455.477936 211.050186,457.190887 
	C205.187866,457.762726 204.675140,457.018250 205.698654,451.859619 
	C204.317337,450.791718 201.942719,451.435822 201.061661,449.084015 
	C203.735382,444.225983 207.458557,440.647858 213.127380,438.960510 
	C230.730011,433.720978 248.852875,430.983032 266.867950,427.857452 
	C290.436096,423.768402 313.686157,418.776306 334.902710,407.245056 
	C349.531830,399.294189 363.761414,390.611847 378.276764,382.446960 
	C388.714783,376.575562 400.436920,373.103455 410.107239,365.793091 
	C432.028503,349.221527 454.296692,333.086029 474.719666,314.617493 
	C484.873108,305.435699 495.819183,297.397858 507.586670,290.294800 
	C521.589233,281.842621 535.168884,282.529755 549.426575,289.243744 
	C567.000732,297.519409 576.545654,310.722778 576.151123,330.456970 
	C576.093079,333.360291 576.864868,335.618988 579.084351,337.495209 
	C580.606873,338.782166 582.030029,340.209290 583.356323,341.699554 
	C584.753906,343.269928 586.895264,344.793335 585.833984,347.236786 
	C584.909424,349.365662 582.588318,349.309692 580.582458,349.300720 
	C575.560059,349.278320 572.536865,351.743866 571.036011,356.474152 
	C566.002319,372.339813 561.010254,388.220154 555.787354,404.023895 
	C548.662842,425.581848 535.818665,443.372101 519.353882,458.768127 
	C513.053040,464.659912 507.205902,471.029144 500.540802,476.501373 
	C501.608978,479.346924 503.911896,480.131378 506.011993,480.911682 
	C520.216431,486.189087 534.462830,491.353607 548.687073,496.577820 
	C552.292297,497.901917 555.791748,497.854431 559.372253,496.366302 
	C573.983154,490.293793 588.596802,484.226196 603.263123,478.289337 
	C619.155884,471.855988 634.843811,464.601868 651.861145,461.684540 
	C666.011108,459.258759 680.399902,459.482208 694.724365,460.287933 
	C696.559387,460.391144 698.777039,460.055450 700.626282,462.378113 
	C694.379944,466.664917 687.641052,468.980225 680.289001,469.325867 
	C661.770874,470.196533 643.497559,471.884033 626.190247,479.526093 
	C612.943298,485.375244 599.358948,490.460602 585.919434,495.872742 
	C578.195923,498.982971 570.507935,502.189484 562.717468,505.122925 
	C557.018250,507.268951 551.842102,510.118164 547.497925,514.428040 
	C543.374023,518.519531 538.724670,519.692871 533.438416,516.721497 
	C531.596069,515.685974 529.663757,515.657715 527.625732,515.871216 
	C507.039124,518.028015 486.987305,522.908325 466.953278,527.841858 
	C463.070862,528.797913 459.140778,530.049255 458.936554,535.335571 
	C458.867218,537.130188 457.225525,538.000549 455.482208,538.498474 
	C452.527710,539.342346 449.343414,539.768250 446.579376,538.930420 
	C434.693970,535.328186 424.208160,539.878235 413.843170,544.334961 
	C372.412292,562.149536 332.413849,582.549316 296.754578,610.588501 
	C291.187073,614.966248 284.838257,617.169312 277.774384,617.245850 
	C272.195892,617.306335 266.616211,617.258057 260.100891,617.258057 
	C262.802307,613.174866 266.292023,611.725891 269.210175,609.822693 
	C278.610992,603.691406 285.522980,596.144775 288.376007,584.753784 
	C290.835815,574.932617 297.601105,567.124146 303.405975,558.997620 
	C315.793182,541.656128 329.371307,525.162964 340.402283,506.851776 
	C341.758911,504.599854 343.666046,502.643677 345.501770,500.726379 
	C347.291809,498.856812 349.657135,497.180634 352.109283,498.921021 
	C354.717957,500.772522 353.306580,503.415863 352.146179,505.637939 
	C349.743286,510.239410 346.590576,514.346191 343.319122,518.341431 
	C329.883514,534.749512 317.635742,551.968628 307.572083,570.669739 
	C305.008820,575.432983 302.376160,580.220459 301.159393,586.003540 
	C304.368774,586.490234 306.498566,585.151489 308.652405,584.068848 
	C332.317108,572.174500 355.911011,560.137329 379.650665,548.394653 
	C392.337494,542.119141 405.358887,536.548096 418.609650,531.538208 
	C423.602844,529.650391 428.591522,527.666443 432.895142,524.455444 
	C438.511353,520.265015 439.048950,516.591675 435.169373,510.809937 
	C429.140289,501.824799 422.684265,493.093353 418.762726,482.872955 
	C417.910126,480.650909 416.237518,479.430756 414.002625,478.865479 
	C400.011322,475.326660 387.950867,467.925140 376.396057,459.678680 
	C367.344452,453.218658 356.446716,452.552612 346.370575,449.308960 
	C345.579376,449.054230 344.767975,448.862152 343.572449,448.535889 
M518.117310,506.587830 
	C522.293213,505.064148 527.225525,505.156616 531.175720,500.509033 
	C518.668701,494.384125 506.890411,488.766846 493.142426,492.329193 
	C489.124512,493.370361 485.926300,493.877075 482.900818,490.207855 
	C480.184418,486.913483 476.660309,485.922363 472.156219,487.212494 
	C464.580261,489.382477 456.764252,489.913879 448.938965,488.291779 
	C443.532776,487.171112 438.139618,485.987488 431.331665,484.530487 
	C437.904175,496.205780 444.905884,505.759155 453.081635,514.532776 
	C455.789429,517.438599 458.765015,518.265503 462.485565,517.528442 
	C480.753967,513.909363 499.029236,510.324860 518.117310,506.587830 
z"/>
</svg>