<?xml version="1.0" encoding="utf-8"?><!-- Uploaded to: SVG Repo, www.svgrepo.com, Generator: SVG Repo Mixer Tools -->
<svg width="800px" height="800px" viewBox="0 0 320 320" fill="none" xmlns="http://www.w3.org/2000/svg">
<path fill-rule="evenodd" clip-rule="evenodd" d="M178.852 67.3106C171.831 73.1724 164.802 79.04 152.293 83.1417C141.846 86.5669 130.584 87.3377 119.988 88.0628H119.988C110.674 88.7002 101.875 89.3023 94.5994 91.6414C79.0475 96.6413 63.4687 107.39 59.9833 125.14C56.5876 142.434 62.7821 154.933 75.5355 167.139C77.0396 168.578 78.6245 169.87 80.2787 171.025L124.282 128.997L130.303 132.997L136.323 136.997L95.1001 177.6C119.816 183.696 150.687 172.031 164.333 163.139C172.141 158.051 176.814 152.214 181.186 146.752C186.696 139.869 191.729 133.581 201.959 130.14C207.733 128.198 214.236 127.945 220.706 127.693C229.985 127.332 239.199 126.974 246.107 121.64C257.883 112.55 262.161 100.641 262.161 90.6414C262.161 80.6417 259.151 69.0811 246.107 59.6424C233.064 50.2036 215.505 46.1429 197.444 54.6426C189.609 58.3302 184.232 62.8187 178.852 67.3106ZM217.646 142.12C217.084 142.13 216.538 142.14 216.006 142.14C210.488 142.14 195.939 144.64 187.912 151.139C183.03 155.092 180.938 160.468 178.691 166.246C177.69 168.816 176.659 171.466 175.338 174.105C176.056 174.193 176.764 174.322 177.461 174.496C183.861 167.782 190.487 167.604 191.113 171.996C191.42 174.145 190.29 177.389 186.993 181.496C192.307 186.286 197.026 200.995 196.023 216.494C195.503 224.531 193.14 217.917 190.822 211.426C188.67 205.399 186.555 199.478 185.989 205.495C185.402 211.743 185.695 216.369 185.989 220.994C186.182 224.035 186.376 227.076 186.318 230.577C187.708 230.314 189.08 229.996 190.42 229.637C201.966 226.539 213.905 219.013 221.366 214.309C222.334 213.699 223.227 213.137 224.033 212.637C224.353 212.439 224.684 212.236 225.026 212.025L225.029 212.023C232.189 207.619 243.874 200.43 249.619 185.638C255.639 170.139 249.619 158.2 239.084 149.639C229.564 141.904 222.912 142.025 217.646 142.12ZM181.642 231.242C180.886 228.312 180.135 225.458 179.467 223.994C178.65 222.202 177.46 225.819 176.139 231.391C177.959 231.47 179.803 231.412 181.642 231.242Z" fill="#E95B47"/>
<path d="M50.5353 209.495L56.5555 205.495M63.579 196.495L68.0942 192.495M130.303 132.997L136.323 136.997L50.5353 221.494L40 209.495L124.282 128.997L130.303 132.997ZM130.303 132.997C149.303 109.251 181.722 105.383 208.155 100.099M191.113 171.996C215.696 162.496 230.613 176.806 250.204 168.996C260.238 164.996 278.253 151.678 279.804 136.997C280.807 127.497 278.064 122.359 269.268 115.998C254.204 105.103 238.164 120.998 216.592 111.498C210.427 108.783 208.539 105.06 208.155 100.099M191.113 171.996C191.42 174.145 190.289 177.388 186.993 181.496M191.113 171.996C190.487 167.604 183.861 167.782 177.461 174.496M177.461 174.496C186.993 164.496 197.026 168.996 186.993 181.496M177.461 174.496C157.393 169.496 127.822 201.098 131.808 199.995C149.868 194.995 158.415 198.188 153.38 199.995C140.838 204.495 125.788 219.494 128.296 221.994C129.592 223.286 135.218 220.883 139.639 218.995C143.775 217.229 146.856 215.914 144.35 218.494C129.299 233.994 125.788 255.16 127.293 256.493C129.658 258.588 133.537 254.373 137.272 250.315C140.667 246.625 143.944 243.065 145.855 244.493C146.163 244.723 145.468 247.725 144.563 251.632C142.78 259.332 140.182 270.549 142.845 270.993C144.725 271.306 150.777 261.665 156.069 253.233C160.797 245.701 164.919 239.134 164.919 241.493C164.919 241.954 164.917 242.418 164.915 242.886C164.894 249.004 164.871 255.616 168.43 260.493C169.645 262.158 171.684 252.356 173.749 242.43C175.947 231.864 178.174 221.158 179.467 223.994C180.173 225.542 180.973 228.645 181.772 231.747C183.48 238.375 185.189 245.005 185.989 236.494C186.577 230.245 186.283 225.62 185.989 220.994C185.695 216.369 185.402 211.743 185.989 205.495C186.555 199.478 188.67 205.398 190.822 211.426C193.14 217.916 195.503 224.531 196.023 216.494C197.026 200.995 192.307 186.286 186.993 181.496M177.461 174.496C177.81 176.433 178.365 177.84 179.467 178.889M186.993 181.496C183.141 180.971 180.864 180.218 179.467 178.889M179.467 178.889C166.454 191.493 155.387 210.995 155.387 233.994M213.08 201.995C214.607 208.162 214.713 211.755 213.08 218.494M221.107 193.995C224.571 198.095 225.983 200.76 225.622 207.495M208.155 100.099C207.899 96.8014 208.307 92.9569 208.565 88.4986C209.359 74.7687 220.43 65.8493 226.625 62.9995C233.147 59.9996 241.284 57.4911 247.194 62.9995C253.032 68.4396 249.776 77.2116 247.194 81.4989C240.592 92.4661 225.69 96.594 208.155 100.099Z" stroke="#000000" stroke-width="5" stroke-linecap="round"/>
</svg>