<svg version="1.1" id="Layer_1" xmlns="http://www.w3.org/2000/svg" xmlns:xlink="http://www.w3.org/1999/xlink" x="0px" y="0px"
	 width="100%" viewBox="0 0 512 512" enable-background="new 0 0 512 512" xml:space="preserve">
<path fill="#000000" opacity="1.000000" stroke="none" 
	d="
M287.000000,513.000000 
	C191.356552,513.000000 96.213104,513.000000 1.034826,513.000000 
	C1.034826,342.398193 1.034826,171.796371 1.034826,1.097280 
	C171.560135,1.097280 342.120331,1.097280 512.840271,1.097280 
	C512.840271,171.666550 512.840271,342.333252 512.840271,513.000000 
	C437.796356,513.000000 362.648163,513.000000 287.000000,513.000000 
M76.899742,217.341354 
	C70.547241,220.815628 64.703033,224.773911 61.814121,231.887131 
	C57.020611,243.689941 54.403271,255.973099 53.351761,268.634247 
	C52.222961,282.226074 54.611767,295.365204 57.673191,308.550873 
	C64.031960,335.938385 77.810242,358.986237 97.651711,378.535095 
	C111.543175,392.221680 128.080261,402.361969 145.376465,410.936890 
	C160.533157,418.451172 176.692566,423.920135 192.001251,431.155396 
	C221.124344,444.919800 250.036819,459.138397 278.877167,473.489136 
	C294.719299,481.371979 310.916840,487.969360 328.289581,491.692047 
	C344.955780,495.263367 361.822205,494.558380 378.516266,493.593018 
	C391.976440,492.814667 404.418091,487.478485 413.908234,477.146240 
	C434.239532,455.011047 448.597717,429.535126 454.390198,399.938385 
	C457.346497,384.833435 458.458130,369.350250 460.066132,354.002655 
	C462.681610,329.039612 460.206512,304.161255 457.990417,279.329895 
	C456.899750,267.109344 454.600006,254.999634 452.961090,242.824448 
	C449.995605,220.794769 444.463989,199.381424 435.431305,179.130890 
	C422.271454,149.627502 403.487000,123.918060 379.525940,102.202507 
	C370.499542,94.022057 359.735016,87.711464 347.467316,87.300262 
	C322.378784,86.459335 297.244781,86.983536 272.129547,86.927002 
	C254.710175,86.887787 238.309250,91.657227 222.102997,97.407333 
	C220.139740,98.103920 218.067902,98.494484 215.734055,99.109154 
	C215.177811,95.956940 215.343842,93.048775 214.168564,90.861252 
	C206.457626,76.509018 198.980011,61.986931 190.381393,48.170555 
	C183.799423,37.594532 173.519821,30.300894 163.320221,23.351397 
	C155.220123,17.832378 139.463440,18.057837 133.364182,24.465101 
	C122.026497,36.375301 111.065887,48.689720 100.629684,61.395531 
	C94.522324,68.831078 98.635521,77.543571 108.038719,78.994148 
	C111.970024,79.600609 115.877884,80.357483 119.802528,81.009026 
	C143.090790,84.875153 163.207062,94.316566 177.586105,113.852341 
	C181.033325,118.535835 180.831635,119.515869 175.679337,121.887527 
	C158.760666,129.675369 141.833252,137.444427 124.891663,145.182281 
	C100.855591,156.160431 81.365219,172.448273 66.651787,194.478943 
	C63.242329,199.583984 61.967861,204.787079 64.388367,210.410126 
	C66.852272,216.133957 72.309692,214.836182 77.026817,215.830780 
	C77.224663,216.274628 77.422508,216.718491 76.899742,217.341354 
z"/>
<path fill="#2C2A2A" opacity="1.000000" stroke="none" 
	d="
M77.015038,215.089249 
	C72.309692,214.836182 66.852272,216.133957 64.388367,210.410126 
	C61.967861,204.787079 63.242329,199.583984 66.651787,194.478943 
	C81.365219,172.448273 100.855591,156.160431 124.891663,145.182281 
	C141.833252,137.444427 158.760666,129.675369 175.679337,121.887527 
	C180.831635,119.515869 181.033325,118.535835 177.586105,113.852341 
	C163.207062,94.316566 143.090790,84.875153 119.802528,81.009026 
	C115.877884,80.357483 111.970024,79.600609 108.038719,78.994148 
	C98.635521,77.543571 94.522324,68.831078 100.629684,61.395531 
	C111.065887,48.689720 122.026497,36.375301 133.364182,24.465101 
	C139.463440,18.057837 155.220123,17.832378 163.320221,23.351397 
	C173.519821,30.300894 183.799423,37.594532 190.381393,48.170555 
	C198.980011,61.986931 206.457626,76.509018 214.168564,90.861252 
	C215.343842,93.048775 215.177811,95.956940 215.734055,99.109154 
	C218.067902,98.494484 220.139740,98.103920 222.102997,97.407333 
	C238.309250,91.657227 254.710175,86.887787 272.129547,86.927002 
	C297.244781,86.983536 322.378784,86.459335 347.467316,87.300262 
	C359.735016,87.711464 370.499542,94.022057 379.525940,102.202507 
	C403.487000,123.918060 422.271454,149.627502 435.431305,179.130890 
	C444.463989,199.381424 449.995605,220.794769 452.961090,242.824448 
	C454.600006,254.999634 456.899750,267.109344 457.990417,279.329895 
	C460.206512,304.161255 462.681610,329.039612 460.066132,354.002655 
	C458.458130,369.350250 457.346497,384.833435 454.390198,399.938385 
	C448.597717,429.535126 434.239532,455.011047 413.908234,477.146240 
	C404.418091,487.478485 391.976440,492.814667 378.516266,493.593018 
	C361.822205,494.558380 344.955780,495.263367 328.289581,491.692047 
	C310.916840,487.969360 294.719299,481.371979 278.877167,473.489136 
	C250.036819,459.138397 221.124344,444.919800 192.001251,431.155396 
	C176.692566,423.920135 160.533157,418.451172 145.376465,410.936890 
	C128.080261,402.361969 111.543175,392.221680 97.651711,378.535095 
	C77.810242,358.986237 64.031960,335.938385 57.673191,308.550873 
	C54.611767,295.365204 52.222961,282.226074 53.351761,268.634247 
	C54.403271,255.973099 57.020611,243.689941 61.814121,231.887131 
	C64.703033,224.773911 70.547241,220.815628 77.449081,217.360809 
	C81.919525,221.883194 80.511093,226.186829 78.416557,231.180649 
	C73.360115,243.236252 70.393944,255.946121 70.090210,269.055725 
	C69.119766,310.942017 87.242836,344.137024 118.433708,370.446259 
	C135.472824,384.818604 156.046692,393.683655 176.526779,402.254883 
	C194.795319,409.900482 213.335052,416.944305 231.336319,425.170135 
	C252.080917,434.649597 273.051453,443.966339 292.676331,455.480072 
	C316.906433,469.695679 342.798065,474.575256 370.587158,475.023132 
	C385.242310,475.443817 396.159332,469.362549 404.578613,457.760254 
	C429.134064,426.033508 441.841064,390.452179 441.891296,350.540649 
	C441.934784,315.985687 438.772736,281.715729 432.901764,247.649521 
	C429.430084,227.505264 424.324982,207.970428 414.997223,189.688538 
	C414.131744,187.992203 413.124390,186.368271 411.991547,184.373795 
	C409.877747,186.043259 408.326660,187.276001 406.767456,188.498337 
	C400.565674,193.360184 395.368195,193.888535 389.020020,189.072296 
	C379.298279,181.696640 373.739014,171.536255 372.256744,159.482422 
	C371.401733,152.529434 374.851685,150.556610 381.390778,153.178101 
	C385.550751,154.845825 389.922302,155.985703 394.198944,157.362274 
	C394.450439,156.852615 394.701935,156.342972 394.953430,155.833313 
	C384.531708,137.021255 371.090363,121.111328 350.358307,112.997078 
	C340.614807,109.183617 330.374329,106.641243 320.362305,103.512466 
	C310.652252,100.478073 310.506622,100.708862 305.631744,109.550911 
	C295.809235,127.366768 279.630707,135.012009 260.231018,137.005554 
	C255.840332,137.456741 251.874695,136.110443 250.743088,130.609192 
	C252.778458,128.691086 254.546371,126.804092 256.705048,125.644661 
	C266.198975,120.545486 275.798096,115.641609 285.380615,110.708649 
	C286.676788,110.041382 288.094543,109.610329 289.456024,109.069901 
	C288.892059,108.233017 288.328094,107.396141 287.764130,106.559265 
	C283.299683,106.559265 278.822632,106.340210 274.372986,106.596703 
	C253.725220,107.786911 233.230133,110.041542 213.147781,115.328041 
	C209.097214,116.394310 204.800034,116.523804 200.120102,117.151810 
	C200.077713,106.718262 212.081833,109.307098 214.196472,103.215546 
	C210.826569,101.946205 207.302582,101.685867 205.573349,99.789215 
	C196.382614,89.708527 187.648788,79.211594 178.743225,68.870445 
	C171.141846,60.043755 163.813232,50.958057 155.824875,42.495850 
	C148.525055,34.763035 144.303589,35.185661 137.397949,43.421364 
	C133.549271,48.011318 130.014816,52.870438 126.446899,57.688332 
	C123.506897,61.658325 124.432320,63.872749 129.541153,64.543686 
	C147.290939,66.874771 162.377686,75.036751 176.299911,85.722130 
	C183.755814,91.444572 188.924133,98.908714 192.097595,107.757286 
	C193.635239,112.044624 193.395767,115.817245 189.692001,119.112694 
	C188.682831,120.010612 188.026245,121.997749 188.172943,123.382797 
	C188.836365,129.647049 186.128372,134.167053 181.052002,137.193954 
	C175.197357,140.684937 169.138779,143.860382 163.029984,146.893295 
	C149.011581,153.853210 134.441498,159.849213 120.994003,167.763443 
	C110.932251,173.685059 102.199425,181.899750 93.077423,189.341690 
	C91.845757,190.346497 91.797737,192.802170 91.201645,194.586029 
	C92.702209,195.003311 94.358047,196.060287 95.679459,195.739517 
	C109.816498,192.307846 124.032707,192.428894 138.383026,193.986557 
	C150.550232,195.307266 162.180069,192.913315 173.559616,188.426178 
	C183.543060,184.489517 189.103149,187.690872 191.605530,198.129349 
	C192.340942,201.197067 192.672394,204.362976 193.159698,207.488449 
	C193.663269,210.718124 194.131165,213.953339 194.691208,217.697876 
	C195.957672,216.938614 196.749924,216.660583 197.272171,216.121170 
	C205.718613,207.396698 214.612991,199.045578 222.423248,189.781448 
	C231.310349,179.240021 236.081207,166.672043 237.264526,152.786804 
	C237.715897,147.490494 238.846054,142.252716 239.647797,136.985367 
	C240.103668,133.990509 241.712677,132.548630 245.002106,133.350815 
	C250.201767,143.408554 251.326447,153.949509 251.418350,165.119949 
	C248.927109,172.939911 247.860123,181.138245 243.872421,187.508148 
	C237.578369,197.562180 229.574860,206.603119 221.832718,215.678604 
	C212.891846,226.159286 203.408432,236.175690 194.253983,246.476669 
	C191.920990,249.101852 189.250244,251.934647 185.864304,250.029572 
	C183.361115,248.621170 181.036743,245.531677 180.256332,242.737656 
	C179.022873,238.321564 179.149933,233.525467 178.739594,228.429977 
	C179.218689,218.997101 179.716888,210.026520 180.044510,201.049713 
	C180.100250,199.522354 179.816422,196.968842 178.999649,196.648575 
	C177.589630,196.095673 175.598724,196.776077 173.930344,197.229187 
	C173.023117,197.475601 172.305908,198.364700 171.455856,198.887222 
	C159.675827,206.128433 147.041962,210.810791 133.062393,209.033279 
	C118.465721,207.177277 104.114357,208.433105 89.803230,210.882996 
	C85.428673,211.631866 81.271667,213.651535 77.015038,215.089249 
z"/>
<path fill="#CA3B44" opacity="1.000000" stroke="none" 
	d="
M370.156128,474.943665 
	C342.798065,474.575256 316.906433,469.695679 292.676331,455.480072 
	C273.051453,443.966339 252.080917,434.649597 231.336319,425.170135 
	C213.335052,416.944305 194.795319,409.900482 176.526779,402.254883 
	C156.046692,393.683655 135.472824,384.818604 118.433708,370.446259 
	C87.242836,344.137024 69.119766,310.942017 70.090210,269.055725 
	C70.393944,255.946121 73.360115,243.236252 78.416557,231.180649 
	C80.511093,226.186829 81.919525,221.883194 77.809387,217.271301 
	C77.422508,216.718491 77.224663,216.274628 77.020927,215.460022 
	C81.271667,213.651535 85.428673,211.631866 89.803230,210.882996 
	C104.114357,208.433105 118.465721,207.177277 133.062393,209.033279 
	C147.041962,210.810791 159.675827,206.128433 171.455856,198.887222 
	C172.305908,198.364700 173.023117,197.475601 173.930344,197.229187 
	C175.598724,196.776077 177.589630,196.095673 178.999649,196.648575 
	C179.816422,196.968842 180.100250,199.522354 180.044510,201.049713 
	C179.716888,210.026520 179.218689,218.997101 178.510071,228.667221 
	C172.662384,235.524490 167.531631,242.176636 161.418716,247.751892 
	C143.016998,264.535156 135.826157,286.045898 133.757385,309.993988 
	C133.062012,318.043549 135.302185,325.134888 141.395477,330.186920 
	C152.376465,339.291351 163.215164,348.839294 175.307953,356.253510 
	C187.129669,363.501526 200.442673,368.317139 212.786530,374.364685 
	C210.600143,376.091278 208.728317,377.653656 206.856476,379.216034 
	C208.595764,380.731689 210.161072,382.546906 212.119919,383.684509 
	C214.393295,385.004791 217.290237,385.332489 219.410339,386.814911 
	C222.048126,388.659332 224.168198,391.244171 226.511856,393.509247 
	C226.070831,394.125488 225.629807,394.741730 225.188797,395.357941 
	C222.134384,393.941437 219.054688,392.576447 216.033234,391.092804 
	C213.418671,389.809052 210.234619,388.112335 208.637344,391.410278 
	C207.697708,393.350403 208.266754,397.220398 209.702988,398.902649 
	C215.664597,405.885223 223.663330,409.083191 232.813736,408.254150 
	C240.015793,407.601624 243.734970,401.927368 241.447433,395.007507 
	C240.175247,391.159180 237.541061,387.761078 235.925491,384.175964 
	C244.403336,387.227234 252.476379,390.262573 260.703735,393.535217 
	C264.376617,399.922699 270.409302,402.030731 276.973938,403.928741 
	C284.775146,411.224213 292.346405,418.244110 299.752625,425.530457 
	C296.695068,427.653534 293.976685,429.902008 290.872253,431.281830 
	C285.166962,433.817596 284.279419,436.907928 288.803802,441.337158 
	C295.558014,447.949310 304.068207,450.269836 313.120178,449.255249 
	C316.202972,448.909698 318.955170,445.614258 322.189697,443.820007 
	C336.960327,452.573608 351.440765,461.106628 365.787689,469.858459 
	C367.602509,470.965515 368.717133,473.220490 370.156128,474.943665 
M122.683723,350.060730 
	C122.809853,363.712860 135.816101,375.084167 149.019791,373.086212 
	C155.000381,372.181213 157.933929,368.795837 156.960724,363.203766 
	C155.477692,354.682465 151.619339,347.454102 144.195557,342.555878 
	C135.484161,336.808014 126.910721,339.550720 122.683723,350.060730 
M83.024719,268.748810 
	C80.105263,277.358582 81.381477,285.543121 85.876762,293.226776 
	C88.923843,298.435120 94.603241,301.099457 99.808723,299.990601 
	C105.388458,298.801971 108.025040,294.695374 109.334900,289.555481 
	C111.650909,280.467468 105.661926,268.954651 96.061203,263.885834 
	C89.708183,260.531677 86.600594,261.533569 83.024719,268.748810 
M99.140381,246.263931 
	C101.803864,247.506500 104.754089,250.081421 107.044106,249.588608 
	C109.033821,249.160400 111.005989,245.450592 111.676926,242.852936 
	C112.655716,239.063385 112.740196,234.967209 112.686256,231.008820 
	C112.636810,227.380356 111.480675,223.962631 107.201660,223.180984 
	C102.897568,222.394775 100.253983,224.825897 98.554008,228.382965 
	C95.814362,234.115524 95.751907,239.896393 99.140381,246.263931 
M130.415543,265.064758 
	C131.127090,265.756439 131.752304,266.901978 132.565964,267.056793 
	C135.268173,267.570831 138.469498,268.735016 140.681244,267.787231 
	C144.011734,266.360046 143.433701,262.717499 141.855743,259.982941 
	C139.637482,256.138794 137.205429,252.364594 134.401657,248.939651 
	C133.368530,247.677643 130.555908,246.507874 129.385300,247.059174 
	C127.829025,247.792145 125.956329,250.437912 126.205727,251.929886 
	C126.919937,256.202606 128.636322,260.307831 130.415543,265.064758 
z"/>
<path fill="#D1635F" opacity="1.000000" stroke="none" 
	d="
M260.549438,393.297913 
	C252.476379,390.262573 244.403336,387.227234 235.664658,383.999176 
	C228.824280,378.040863 221.834656,374.132904 213.101074,374.200470 
	C200.442673,368.317139 187.129669,363.501526 175.307953,356.253510 
	C163.215164,348.839294 152.376465,339.291351 141.395477,330.186920 
	C135.302185,325.134888 133.062012,318.043549 133.757385,309.993988 
	C135.826157,286.045898 143.016998,264.535156 161.418716,247.751892 
	C167.531631,242.176636 172.662384,235.524490 178.471680,229.127426 
	C179.149933,233.525467 179.022873,238.321564 180.256332,242.737656 
	C181.036743,245.531677 183.361115,248.621170 185.864304,250.029572 
	C189.250244,251.934647 191.920990,249.101852 194.253983,246.476669 
	C203.408432,236.175690 212.891846,226.159286 221.832718,215.678604 
	C229.574860,206.603119 237.578369,197.562180 243.872421,187.508148 
	C247.860123,181.138245 248.927109,172.939911 251.740204,165.253693 
	C267.571686,172.067902 282.543976,179.606186 295.785614,190.700958 
	C316.085724,207.709854 333.049988,227.631226 349.420135,248.179855 
	C351.858948,251.241180 353.263428,255.126511 354.743835,258.608826 
	C349.241791,257.922516 346.128967,260.534485 345.374817,265.189209 
	C343.639862,275.897522 344.431244,286.483673 349.093079,296.440765 
	C351.310852,301.177673 356.047394,303.272491 360.679504,302.262939 
	C365.920166,301.120758 367.672150,296.331512 363.782135,292.704285 
	C356.062500,285.506104 355.786682,277.531342 360.552124,268.990601 
	C370.579254,287.745361 378.403137,307.123688 382.646484,327.551544 
	C386.052643,343.949249 387.613251,360.765564 389.366547,377.461914 
	C391.312225,395.990051 392.445007,414.602173 394.149384,433.157776 
	C394.710968,439.271667 395.888184,445.333649 396.901276,451.399780 
	C397.588867,455.516479 399.866638,458.021851 404.330933,457.949402 
	C396.159332,469.362549 385.242310,475.443817 370.587158,475.023132 
	C368.717133,473.220490 367.602509,470.965515 365.787689,469.858459 
	C351.440765,461.106628 336.960327,452.573608 322.195465,443.416626 
	C322.529785,429.344666 310.824005,419.961853 299.917694,425.264008 
	C292.346405,418.244110 284.775146,411.224213 277.384277,403.879639 
	C285.537445,402.755157 289.676239,396.947937 285.391815,391.928009 
	C278.836090,384.246857 270.617523,378.784424 259.919586,376.807678 
	C259.919586,378.341034 259.479004,379.750305 259.996857,380.467194 
	C262.099121,383.377533 261.772583,386.237915 260.681274,389.361908 
	C260.268036,390.544891 260.572235,391.978516 260.549438,393.297913 
M174.266602,341.843292 
	C180.239502,340.667236 182.866318,337.780090 183.739807,331.431244 
	C184.450699,326.264282 182.005692,322.240112 176.165573,319.256287 
	C171.887360,317.070465 167.728043,316.717499 163.588470,320.530884 
	C166.148300,323.944092 168.491425,327.068390 170.834564,330.192688 
	C170.364166,330.732574 169.893768,331.272461 169.423370,331.812347 
	C166.723969,330.228333 163.954605,328.750092 161.347702,327.026215 
	C159.324509,325.688263 157.506973,323.118652 154.975021,325.777618 
	C152.453796,328.425354 153.659729,331.029877 155.957809,333.157501 
	C160.926132,337.757416 166.465485,341.282288 174.266602,341.843292 
M356.919617,397.522217 
	C357.311523,399.460297 357.456085,401.490936 358.140381,403.319611 
	C360.467224,409.538239 365.677826,413.518768 370.136292,412.728821 
	C375.335175,411.807648 379.343872,405.628082 379.143127,398.837250 
	C379.128418,398.340424 379.109833,397.840607 379.043579,397.348846 
	C378.252319,391.473663 372.128296,385.561768 366.685608,385.408508 
	C361.795197,385.270782 358.045654,389.602386 356.919617,397.522217 
M379.646606,447.110199 
	C372.991730,440.094299 368.064117,439.861145 360.828003,446.254303 
	C359.206970,447.686523 357.550110,449.100281 356.090759,450.688843 
	C353.228210,453.804871 353.548828,456.275513 357.310455,458.285614 
	C363.616058,461.655212 370.154602,461.746704 376.423157,458.312988 
	C380.576141,456.038086 382.154938,452.418945 379.646606,447.110199 
M237.997192,333.591461 
	C233.865097,329.867889 229.215546,328.122345 223.894501,330.658539 
	C218.774109,333.099121 217.013779,338.550751 219.547913,343.124969 
	C222.987228,349.333069 231.174973,352.032898 236.596588,348.746643 
	C241.728165,345.636108 242.450363,340.172882 237.997192,333.591461 
z"/>
<path fill="#CA3B44" opacity="1.000000" stroke="none" 
	d="
M355.146423,258.630615 
	C353.263428,255.126511 351.858948,251.241180 349.420135,248.179855 
	C333.049988,227.631226 316.085724,207.709854 295.785614,190.700958 
	C282.543976,179.606186 267.571686,172.067902 251.854523,164.812012 
	C251.326447,153.949509 250.201767,143.408554 245.308716,133.183975 
	C247.170166,132.128662 248.912827,131.551926 250.655487,130.975174 
	C251.874695,136.110443 255.840332,137.456741 260.231018,137.005554 
	C279.630707,135.012009 295.809235,127.366768 305.631744,109.550911 
	C310.506622,100.708862 310.652252,100.478073 320.362305,103.512466 
	C330.374329,106.641243 340.614807,109.183617 350.358307,112.997078 
	C371.090363,121.111328 384.531708,137.021255 394.953430,155.833313 
	C394.701935,156.342972 394.450439,156.852615 394.198944,157.362274 
	C389.922302,155.985703 385.550751,154.845825 381.390778,153.178101 
	C374.851685,150.556610 371.401733,152.529434 372.256744,159.482422 
	C373.739014,171.536255 379.298279,181.696640 389.020020,189.072296 
	C395.368195,193.888535 400.565674,193.360184 406.767456,188.498337 
	C408.326660,187.276001 409.877747,186.043259 411.991547,184.373795 
	C413.124390,186.368271 414.131744,187.992203 414.997223,189.688538 
	C424.324982,207.970428 429.430084,227.505264 432.901764,247.649521 
	C438.772736,281.715729 441.934784,315.985687 441.891296,350.540649 
	C441.841064,390.452179 429.134064,426.033508 404.578613,457.760254 
	C399.866638,458.021851 397.588867,455.516479 396.901276,451.399780 
	C395.888184,445.333649 394.710968,439.271667 394.149384,433.157776 
	C392.445007,414.602173 391.312225,395.990051 389.366547,377.461914 
	C387.613251,360.765564 386.052643,343.949249 382.646484,327.551544 
	C378.403137,307.123688 370.579254,287.745361 360.619843,268.662292 
	C362.010254,263.049896 359.385590,260.383911 355.146423,258.630615 
M417.076477,362.041534 
	C413.652740,361.936127 410.141144,361.296661 406.824585,361.842468 
	C400.904694,362.816772 397.557281,366.402008 397.376343,371.750092 
	C397.105499,379.756622 399.818024,386.781311 405.847961,392.199097 
	C409.874420,395.816803 414.413757,395.614136 418.405579,392.082123 
	C426.314362,385.084381 425.978058,369.059113 417.076477,362.041534 
M340.575684,127.905586 
	C330.481445,119.677521 316.800262,119.909142 308.274689,128.796722 
	C310.397705,129.276016 312.298370,129.643265 314.164886,130.138962 
	C318.468140,131.281784 320.935333,134.044876 321.674133,138.490189 
	C322.944824,146.135574 329.954651,151.286087 337.714417,150.379913 
	C342.149506,149.861984 345.034271,147.500092 346.258728,143.143082 
	C347.983124,137.007278 345.089966,132.519699 340.575684,127.905586 
M405.626892,222.956818 
	C404.425049,221.690338 403.223175,220.423859 402.021332,219.157364 
	C401.527466,219.262421 401.033600,219.367462 400.539703,219.472519 
	C400.125641,225.367722 399.711578,231.262924 399.297516,237.158142 
	C398.776611,237.155716 398.255707,237.153290 397.734802,237.150864 
	C396.904175,235.748962 396.337158,234.053391 395.180237,233.015030 
	C393.508545,231.514633 390.560547,229.039963 389.667603,229.562454 
	C387.753723,230.682343 385.916534,233.343536 385.637573,235.572525 
	C384.913574,241.358093 387.748138,246.200714 391.430725,250.467743 
	C395.262085,254.907135 399.537842,256.144409 404.321045,254.342285 
	C409.445587,252.411591 411.826141,248.508469 412.033295,243.201141 
	C412.315552,235.971573 410.335510,229.395920 405.626892,222.956818 
M413.252808,323.011688 
	C416.050720,320.672180 419.718750,318.842804 421.455383,315.881042 
	C424.543793,310.613831 423.515228,304.890625 419.917084,299.961273 
	C416.049866,294.663361 410.578674,291.717865 404.097809,292.273407 
	C402.125916,292.442383 399.251312,295.481750 398.801361,297.628113 
	C397.077118,305.852844 399.079559,313.545715 405.037048,319.622620 
	C406.820221,321.441498 409.947571,321.942657 413.252808,323.011688 
M349.559662,179.570267 
	C347.540833,179.758209 344.643616,179.222092 343.734650,180.324844 
	C342.694000,181.587311 342.537537,184.982101 343.529297,186.274521 
	C347.920502,191.997025 352.441925,197.759659 357.753998,202.585602 
	C361.220276,205.734650 367.745117,204.605225 370.720490,201.668884 
	C374.278198,198.157883 373.946289,193.691345 371.742065,190.137985 
	C368.717682,185.262436 364.700897,180.963928 360.764740,176.739212 
	C360.247894,176.184479 357.027771,177.024536 356.222229,178.094101 
	C354.488831,180.395752 352.800690,181.021561 349.559662,179.570267 
M284.123077,158.625504 
	C284.672546,153.041946 283.017151,149.658966 277.857208,148.455917 
	C273.937622,147.542038 269.656708,147.560181 265.612885,147.951691 
	C260.451691,148.451401 258.320496,153.386948 260.972504,157.983841 
	C265.732025,166.233810 280.157043,167.596573 284.123077,158.625504 
z"/>
<path fill="#66AD63" opacity="1.000000" stroke="none" 
	d="
M250.743088,130.609192 
	C248.912827,131.551926 247.170166,132.128662 245.120911,132.872238 
	C241.712677,132.548630 240.103668,133.990509 239.647797,136.985367 
	C238.846054,142.252716 237.715897,147.490494 237.264526,152.786804 
	C236.081207,166.672043 231.310349,179.240021 222.423248,189.781448 
	C214.612991,199.045578 205.718613,207.396698 197.272171,216.121170 
	C196.749924,216.660583 195.957672,216.938614 194.691208,217.697876 
	C194.131165,213.953339 193.663269,210.718124 193.159698,207.488449 
	C192.672394,204.362976 192.340942,201.197067 191.605530,198.129349 
	C189.103149,187.690872 183.543060,184.489517 173.559616,188.426178 
	C162.180069,192.913315 150.550232,195.307266 138.383026,193.986557 
	C124.032707,192.428894 109.816498,192.307846 95.679459,195.739517 
	C94.358047,196.060287 92.702209,195.003311 91.201645,194.586029 
	C91.797737,192.802170 91.845757,190.346497 93.077423,189.341690 
	C102.199425,181.899750 110.932251,173.685059 120.994003,167.763443 
	C134.441498,159.849213 149.011581,153.853210 163.029984,146.893295 
	C169.138779,143.860382 175.197357,140.684937 181.052002,137.193954 
	C186.128372,134.167053 188.836365,129.647049 188.172943,123.382797 
	C188.026245,121.997749 188.682831,120.010612 189.692001,119.112694 
	C193.395767,115.817245 193.635239,112.044624 192.097595,107.757286 
	C188.924133,98.908714 183.755814,91.444572 176.299911,85.722130 
	C162.377686,75.036751 147.290939,66.874771 129.541153,64.543686 
	C124.432320,63.872749 123.506897,61.658325 126.446899,57.688332 
	C130.014816,52.870438 133.549271,48.011318 137.397949,43.421364 
	C144.303589,35.185661 148.525055,34.763035 155.824875,42.495850 
	C163.813232,50.958057 171.141846,60.043755 178.743225,68.870445 
	C187.648788,79.211594 196.382614,89.708527 205.573349,99.789215 
	C207.302582,101.685867 210.826569,101.946205 214.196472,103.215546 
	C212.081833,109.307098 200.077713,106.718262 200.120102,117.151810 
	C204.800034,116.523804 209.097214,116.394310 213.147781,115.328041 
	C233.230133,110.041542 253.725220,107.786911 274.372986,106.596703 
	C278.822632,106.340210 283.299683,106.559265 287.764130,106.559265 
	C288.328094,107.396141 288.892059,108.233017 289.456024,109.069901 
	C288.094543,109.610329 286.676788,110.041382 285.380615,110.708649 
	C275.798096,115.641609 266.198975,120.545486 256.705048,125.644661 
	C254.546371,126.804092 252.778458,128.691086 250.743088,130.609192 
z"/>
<path fill="#2D2A2A" opacity="1.000000" stroke="none" 
	d="
M122.753403,349.691284 
	C126.910721,339.550720 135.484161,336.808014 144.195557,342.555878 
	C151.619339,347.454102 155.477692,354.682465 156.960724,363.203766 
	C157.933929,368.795837 155.000381,372.181213 149.019791,373.086212 
	C135.816101,375.084167 122.809853,363.712860 122.753403,349.691284 
z"/>
<path fill="#2D2A2A" opacity="1.000000" stroke="none" 
	d="
M83.153297,268.377319 
	C86.600594,261.533569 89.708183,260.531677 96.061203,263.885834 
	C105.661926,268.954651 111.650909,280.467468 109.334900,289.555481 
	C108.025040,294.695374 105.388458,298.801971 99.808723,299.990601 
	C94.603241,301.099457 88.923843,298.435120 85.876762,293.226776 
	C81.381477,285.543121 80.105263,277.358582 83.153297,268.377319 
z"/>
<path fill="#2E2A2A" opacity="1.000000" stroke="none" 
	d="
M212.786530,374.364685 
	C221.834656,374.132904 228.824280,378.040863 235.259872,383.983276 
	C237.541061,387.761078 240.175247,391.159180 241.447433,395.007507 
	C243.734970,401.927368 240.015793,407.601624 232.813736,408.254150 
	C223.663330,409.083191 215.664597,405.885223 209.702988,398.902649 
	C208.266754,397.220398 207.697708,393.350403 208.637344,391.410278 
	C210.234619,388.112335 213.418671,389.809052 216.033234,391.092804 
	C219.054688,392.576447 222.134384,393.941437 225.188797,395.357941 
	C225.629807,394.741730 226.070831,394.125488 226.511856,393.509247 
	C224.168198,391.244171 222.048126,388.659332 219.410339,386.814911 
	C217.290237,385.332489 214.393295,385.004791 212.119919,383.684509 
	C210.161072,382.546906 208.595764,380.731689 206.856476,379.216034 
	C208.728317,377.653656 210.600143,376.091278 212.786530,374.364685 
z"/>
<path fill="#2D2A2A" opacity="1.000000" stroke="none" 
	d="
M299.752625,425.530457 
	C310.824005,419.961853 322.529785,429.344666 321.864197,443.263336 
	C318.955170,445.614258 316.202972,448.909698 313.120178,449.255249 
	C304.068207,450.269836 295.558014,447.949310 288.803802,441.337158 
	C284.279419,436.907928 285.166962,433.817596 290.872253,431.281830 
	C293.976685,429.902008 296.695068,427.653534 299.752625,425.530457 
z"/>
<path fill="#2D2A2A" opacity="1.000000" stroke="none" 
	d="
M260.703735,393.535217 
	C260.572235,391.978516 260.268036,390.544891 260.681274,389.361908 
	C261.772583,386.237915 262.099121,383.377533 259.996857,380.467194 
	C259.479004,379.750305 259.919586,378.341034 259.919586,376.807678 
	C270.617523,378.784424 278.836090,384.246857 285.391815,391.928009 
	C289.676239,396.947937 285.537445,402.755157 277.154358,403.604065 
	C270.409302,402.030731 264.376617,399.922699 260.703735,393.535217 
z"/>
<path fill="#2E2A2A" opacity="1.000000" stroke="none" 
	d="
M98.944611,245.933533 
	C95.751907,239.896393 95.814362,234.115524 98.554008,228.382965 
	C100.253983,224.825897 102.897568,222.394775 107.201660,223.180984 
	C111.480675,223.962631 112.636810,227.380356 112.686256,231.008820 
	C112.740196,234.967209 112.655716,239.063385 111.676926,242.852936 
	C111.005989,245.450592 109.033821,249.160400 107.044106,249.588608 
	C104.754089,250.081421 101.803864,247.506500 98.944611,245.933533 
z"/>
<path fill="#2E2A2A" opacity="1.000000" stroke="none" 
	d="
M130.187103,264.771851 
	C128.636322,260.307831 126.919937,256.202606 126.205727,251.929886 
	C125.956329,250.437912 127.829025,247.792145 129.385300,247.059174 
	C130.555908,246.507874 133.368530,247.677643 134.401657,248.939651 
	C137.205429,252.364594 139.637482,256.138794 141.855743,259.982941 
	C143.433701,262.717499 144.011734,266.360046 140.681244,267.787231 
	C138.469498,268.735016 135.268173,267.570831 132.565964,267.056793 
	C131.752304,266.901978 131.127090,265.756439 130.187103,264.771851 
z"/>
<path fill="#2E2B2B" opacity="1.000000" stroke="none" 
	d="
M354.743835,258.608826 
	C359.385590,260.383911 362.010254,263.049896 360.412079,268.393188 
	C355.786682,277.531342 356.062500,285.506104 363.782135,292.704285 
	C367.672150,296.331512 365.920166,301.120758 360.679504,302.262939 
	C356.047394,303.272491 351.310852,301.177673 349.093079,296.440765 
	C344.431244,286.483673 343.639862,275.897522 345.374817,265.189209 
	C346.128967,260.534485 349.241791,257.922516 354.743835,258.608826 
z"/>
<path fill="#2F2B2B" opacity="1.000000" stroke="none" 
	d="
M173.862427,341.839233 
	C166.465485,341.282288 160.926132,337.757416 155.957809,333.157501 
	C153.659729,331.029877 152.453796,328.425354 154.975021,325.777618 
	C157.506973,323.118652 159.324509,325.688263 161.347702,327.026215 
	C163.954605,328.750092 166.723969,330.228333 169.423370,331.812347 
	C169.893768,331.272461 170.364166,330.732574 170.834564,330.192688 
	C168.491425,327.068390 166.148300,323.944092 163.588470,320.530884 
	C167.728043,316.717499 171.887360,317.070465 176.165573,319.256287 
	C182.005692,322.240112 184.450699,326.264282 183.739807,331.431244 
	C182.866318,337.780090 180.239502,340.667236 173.862427,341.839233 
z"/>
<path fill="#2E2B2B" opacity="1.000000" stroke="none" 
	d="
M356.923859,397.101501 
	C358.045654,389.602386 361.795197,385.270782 366.685608,385.408508 
	C372.128296,385.561768 378.252319,391.473663 379.043579,397.348846 
	C379.109833,397.840607 379.128418,398.340424 379.143127,398.837250 
	C379.343872,405.628082 375.335175,411.807648 370.136292,412.728821 
	C365.677826,413.518768 360.467224,409.538239 358.140381,403.319611 
	C357.456085,401.490936 357.311523,399.460297 356.923859,397.101501 
z"/>
<path fill="#2E2B2B" opacity="1.000000" stroke="none" 
	d="
M379.836304,447.438232 
	C382.154938,452.418945 380.576141,456.038086 376.423157,458.312988 
	C370.154602,461.746704 363.616058,461.655212 357.310455,458.285614 
	C353.548828,456.275513 353.228210,453.804871 356.090759,450.688843 
	C357.550110,449.100281 359.206970,447.686523 360.828003,446.254303 
	C368.064117,439.861145 372.991730,440.094299 379.836304,447.438232 
z"/>
<path fill="#2E2B2B" opacity="1.000000" stroke="none" 
	d="
M238.262909,333.861298 
	C242.450363,340.172882 241.728165,345.636108 236.596588,348.746643 
	C231.174973,352.032898 222.987228,349.333069 219.547913,343.124969 
	C217.013779,338.550751 218.774109,333.099121 223.894501,330.658539 
	C229.215546,328.122345 233.865097,329.867889 238.262909,333.861298 
z"/>
<path fill="#2D2A2A" opacity="1.000000" stroke="none" 
	d="
M417.429382,362.209534 
	C425.978058,369.059113 426.314362,385.084381 418.405579,392.082123 
	C414.413757,395.614136 409.874420,395.816803 405.847961,392.199097 
	C399.818024,386.781311 397.105499,379.756622 397.376343,371.750092 
	C397.557281,366.402008 400.904694,362.816772 406.824585,361.842468 
	C410.141144,361.296661 413.652740,361.936127 417.429382,362.209534 
z"/>
<path fill="#2E2A2A" opacity="1.000000" stroke="none" 
	d="
M340.832092,128.156647 
	C345.089966,132.519699 347.983124,137.007278 346.258728,143.143082 
	C345.034271,147.500092 342.149506,149.861984 337.714417,150.379913 
	C329.954651,151.286087 322.944824,146.135574 321.674133,138.490189 
	C320.935333,134.044876 318.468140,131.281784 314.164886,130.138962 
	C312.298370,129.643265 310.397705,129.276016 308.274689,128.796722 
	C316.800262,119.909142 330.481445,119.677521 340.832092,128.156647 
z"/>
<path fill="#2E2A2A" opacity="1.000000" stroke="none" 
	d="
M405.841003,223.246674 
	C410.335510,229.395920 412.315552,235.971573 412.033295,243.201141 
	C411.826141,248.508469 409.445587,252.411591 404.321045,254.342285 
	C399.537842,256.144409 395.262085,254.907135 391.430725,250.467743 
	C387.748138,246.200714 384.913574,241.358093 385.637573,235.572525 
	C385.916534,233.343536 387.753723,230.682343 389.667603,229.562454 
	C390.560547,229.039963 393.508545,231.514633 395.180237,233.015030 
	C396.337158,234.053391 396.904175,235.748962 397.734802,237.150864 
	C398.255707,237.153290 398.776611,237.155716 399.297516,237.158142 
	C399.711578,231.262924 400.125641,225.367722 400.539703,219.472519 
	C401.033600,219.367462 401.527466,219.262421 402.021332,219.157364 
	C403.223175,220.423859 404.425049,221.690338 405.841003,223.246674 
z"/>
<path fill="#2E2A2A" opacity="1.000000" stroke="none" 
	d="
M412.855957,323.029602 
	C409.947571,321.942657 406.820221,321.441498 405.037048,319.622620 
	C399.079559,313.545715 397.077118,305.852844 398.801361,297.628113 
	C399.251312,295.481750 402.125916,292.442383 404.097809,292.273407 
	C410.578674,291.717865 416.049866,294.663361 419.917084,299.961273 
	C423.515228,304.890625 424.543793,310.613831 421.455383,315.881042 
	C419.718750,318.842804 416.050720,320.672180 412.855957,323.029602 
z"/>
<path fill="#2D2A2A" opacity="1.000000" stroke="none" 
	d="
M349.929260,179.697601 
	C352.800690,181.021561 354.488831,180.395752 356.222229,178.094101 
	C357.027771,177.024536 360.247894,176.184479 360.764740,176.739212 
	C364.700897,180.963928 368.717682,185.262436 371.742065,190.137985 
	C373.946289,193.691345 374.278198,198.157883 370.720490,201.668884 
	C367.745117,204.605225 361.220276,205.734650 357.753998,202.585602 
	C352.441925,197.759659 347.920502,191.997025 343.529297,186.274521 
	C342.537537,184.982101 342.694000,181.587311 343.734650,180.324844 
	C344.643616,179.222092 347.540833,179.758209 349.929260,179.697601 
z"/>
<path fill="#2E2A2A" opacity="1.000000" stroke="none" 
	d="
M284.005798,158.973206 
	C280.157043,167.596573 265.732025,166.233810 260.972504,157.983841 
	C258.320496,153.386948 260.451691,148.451401 265.612885,147.951691 
	C269.656708,147.560181 273.937622,147.542038 277.857208,148.455917 
	C283.017151,149.658966 284.672546,153.041946 284.005798,158.973206 
z"/>
</svg>