<svg version="1.1" id="Layer_1" xmlns="http://www.w3.org/2000/svg" xmlns:xlink="http://www.w3.org/1999/xlink" x="0px" y="0px"
	 width="100%" viewBox="0 0 750 500" enable-background="new 0 0 750 500" xml:space="preserve">
<path fill="#FAFAFA" opacity="1.000000" stroke="none" 
	d="
M454.000000,501.000000 
	C302.666656,501.000000 151.833328,501.000000 1.000000,501.000000 
	C1.000000,334.333344 1.000000,167.666672 1.000000,1.000000 
	C251.000000,1.000000 501.000000,1.000000 751.000000,1.000000 
	C751.000000,167.666672 751.000000,334.333344 751.000000,501.000000 
	C652.166687,501.000000 553.333313,501.000000 454.000000,501.000000 
M364.354187,247.716385 
	C364.499969,247.400452 364.645782,247.084518 364.751129,246.912079 
	C364.751129,246.912079 364.765228,246.760651 365.491974,246.864197 
	C368.776520,244.757248 372.725250,243.233963 375.201294,240.416489 
	C379.740234,235.251678 384.929352,231.923203 391.673615,230.826218 
	C392.933044,230.621368 394.101685,229.858459 395.847809,229.129532 
	C394.520294,228.401474 393.947144,228.087143 393.492676,227.541809 
	C393.492676,227.541809 393.637543,227.326309 393.830658,226.557938 
	C392.527222,224.265625 391.293701,220.049164 389.908752,219.998795 
	C381.970886,219.710220 379.799011,212.409531 375.696716,208.206055 
	C372.760162,205.197113 370.655884,203.754257 366.437988,203.987503 
	C366.437988,203.987503 366.067963,203.747269 366.086975,203.354996 
	C366.086975,203.354996 366.057953,202.963028 365.927643,202.230637 
	C364.527313,201.194626 363.181824,199.371994 361.716400,199.269821 
	C357.283356,198.960663 352.698273,198.740906 348.363495,199.532532 
	C338.117340,201.403732 332.677490,209.426727 327.509827,217.389709 
	C324.631714,221.824615 323.382843,222.255737 321.346008,217.348816 
	C319.061920,211.846237 316.070465,207.068878 312.052979,202.765137 
	C307.107849,197.467590 301.787018,193.007233 293.173218,193.001984 
	C292.345825,193.055954 291.518402,193.109924 290.128540,193.146454 
	C289.770081,193.039795 289.411621,192.933151 288.874664,192.106201 
	C284.255646,191.084808 279.636658,190.063400 274.725342,188.580887 
	C274.147858,188.725845 273.570343,188.870819 272.072540,189.009521 
	C268.383026,188.982056 264.693481,188.954575 260.867828,188.256226 
	C259.235931,186.426056 257.892090,186.322220 256.197937,188.941666 
	C255.133453,188.917831 254.068985,188.893997 252.867996,188.218674 
	C251.578781,188.144699 250.289566,188.070724 248.182877,188.011734 
	C246.448090,188.378647 244.713287,188.745560 242.322800,189.157608 
	C241.896744,189.065018 241.470673,188.972427 240.854874,188.160858 
	C229.537460,184.239594 218.220047,180.318329 206.902634,176.397064 
	C206.586761,176.906296 206.270889,177.415527 205.955017,177.924774 
	C206.444748,179.789139 206.686890,181.766525 207.475616,183.494415 
	C209.129639,187.117966 210.911224,190.704300 212.928177,194.136826 
	C217.058929,201.166718 220.516785,208.847305 225.832291,214.863434 
	C233.056946,223.040344 240.712021,231.203308 251.265930,235.551086 
	C257.844788,238.261292 264.134430,242.180832 270.964020,243.646210 
	C279.404297,245.457138 288.266479,245.335526 296.953827,245.941635 
	C299.729492,246.135269 301.620026,246.715057 300.524048,250.123428 
	C299.476288,253.381912 298.533722,256.674225 297.494843,260.117584 
	C284.979553,256.988434 273.377533,259.530762 261.938751,262.699097 
	C257.444794,263.943848 253.462845,267.078705 248.960678,268.239868 
	C244.821426,269.307434 242.308426,271.222778 240.984207,275.075287 
	C240.984207,275.075287 241.149246,275.152771 240.364227,275.040741 
	C237.475296,274.905273 235.392334,275.785248 235.152679,279.499054 
	C235.152679,279.499054 235.244522,279.894287 235.200867,280.646484 
	C236.473450,281.425476 237.654068,282.488007 239.034134,282.935638 
	C245.991592,285.192291 253.900528,285.917969 259.774658,289.772797 
	C267.930908,295.125305 274.861603,302.503143 281.750397,309.566467 
	C285.522736,313.434357 288.036346,318.508392 291.311523,322.893677 
	C292.526886,324.521027 294.379791,326.331146 295.452606,322.516113 
	C295.452606,322.516113 295.722321,322.707275 296.540924,322.794159 
	C297.011871,321.346130 297.853302,319.907227 297.889191,318.448456 
	C298.038788,312.368073 297.253998,306.181824 298.114136,300.222351 
	C299.236389,292.446991 301.384125,284.791473 303.512512,277.202698 
	C304.435120,273.913147 307.879456,272.848450 310.461456,274.423401 
	C319.118347,279.704010 327.289093,274.722076 335.364746,273.318512 
	C343.512268,271.902466 349.912170,265.960663 356.085388,260.606049 
	C358.081879,258.874298 358.647766,255.493286 359.957825,253.013931 
	C359.957825,253.013931 359.853363,252.873489 360.589111,252.900208 
	C361.664948,251.215347 362.740784,249.530502 363.969635,247.992615 
	C363.969635,247.992615 363.823212,247.846970 364.354187,247.716385 
M532.036926,271.063477 
	C533.253662,270.988159 534.501526,270.703674 535.681030,270.878815 
	C538.578308,271.309052 541.444092,271.950867 544.548645,272.551270 
	C544.548645,254.857895 544.548645,238.349518 544.548645,221.913361 
	C535.881592,220.823486 535.881531,220.823486 535.857605,228.623306 
	C535.856079,229.122070 535.859619,229.620850 535.855774,230.119598 
	C535.807556,236.382828 535.331909,236.743423 529.277405,235.442322 
	C522.885315,234.068649 517.010986,235.276825 512.036377,239.569092 
	C505.394135,245.300156 503.950928,255.592438 508.433746,263.681366 
	C512.818298,271.592896 521.025940,274.351898 532.036926,271.063477 
M453.041199,258.724518 
	C454.998932,244.483719 447.539795,232.973007 432.724518,234.800308 
	C429.831421,235.157166 426.915009,235.324570 424.009338,235.579330 
	C423.799805,232.357742 423.077209,229.065598 423.508118,225.932083 
	C424.071869,221.832657 422.234070,220.222549 418.749969,220.126984 
	C414.631348,220.014023 413.746368,222.611465 413.731720,226.390930 
	C413.679565,239.823837 413.254303,253.254837 413.091858,266.688049 
	C413.046570,270.429260 414.325928,272.777618 418.962006,272.413696 
	C423.238922,272.078003 427.603973,272.653412 431.915131,273.009735 
	C440.599121,273.727448 450.114258,270.193085 453.041199,258.724518 
M480.511414,263.389313 
	C480.511414,266.155243 480.511414,268.921204 480.511414,271.795013 
	C483.740234,271.795013 486.283325,271.795013 489.234619,271.795013 
	C489.234619,267.282074 489.234833,263.146942 489.234619,259.011810 
	C489.233978,247.134476 490.209290,245.824020 501.350830,242.716629 
	C501.350830,240.338654 501.350830,237.977615 501.350830,234.218964 
	C494.366974,238.997345 487.536102,235.642487 480.514679,235.720993 
	C480.514679,245.151443 480.514679,253.784424 480.511414,263.389313 
M464.747589,234.899094 
	C461.353088,234.857941 460.007812,236.668777 460.149414,239.905167 
	C460.366394,244.865540 460.624451,249.826416 460.708191,254.789719 
	C460.804657,260.508698 460.730621,266.230560 460.730621,271.890076 
	C464.257843,271.890076 466.980560,271.890076 470.192139,271.890076 
	C470.192139,261.094910 469.881866,250.695801 470.343750,240.331100 
	C470.530334,236.144043 469.111023,234.902679 464.747589,234.899094 
M468.463684,230.317368 
	C469.349091,228.782349 471.173828,227.061325 470.914764,225.752945 
	C470.446167,223.386429 469.265900,220.230988 467.418274,219.281189 
	C464.509979,217.786133 461.378448,218.852737 459.823425,222.538391 
	C458.393433,225.927567 459.971863,228.084656 462.605316,229.485809 
	C464.091797,230.276688 466.101349,230.084595 468.463684,230.317368 
z"/>
<path fill="#18A3BB" opacity="1.000000" stroke="none" 
	d="
M289.053162,192.826508 
	C289.411621,192.933151 289.770081,193.039795 290.654541,193.404099 
	C292.078827,193.870010 292.977173,194.078278 294.138123,194.511047 
	C296.085754,195.441147 297.813171,196.060730 299.448792,196.866516 
	C308.916229,201.530640 315.725800,208.299759 317.062134,219.347916 
	C317.965942,226.820145 316.746857,228.213501 308.729706,228.838730 
	C308.682404,214.687363 304.084747,207.324692 291.957977,203.260712 
	C286.968933,201.588776 281.657379,200.474228 276.415527,200.043289 
	C264.329102,199.049637 252.189163,198.725739 240.084579,197.924133 
	C235.899460,197.646973 231.754700,196.760696 227.591507,196.152649 
	C227.259247,196.585938 226.926987,197.019226 226.594711,197.452515 
	C232.127899,203.539276 237.197449,210.141296 243.281601,215.615692 
	C261.188080,231.727615 282.391357,237.539963 306.118469,233.855621 
	C318.959900,231.861618 327.083862,223.241913 334.177094,213.181503 
	C341.833130,202.322845 352.301758,199.344269 365.015503,203.274536 
	C365.159515,203.476532 365.571991,203.751984 365.571991,203.751984 
	C365.571991,203.751984 366.067963,203.747269 366.067963,203.747269 
	C366.067963,203.747269 366.437988,203.987503 366.824493,204.317047 
	C370.978729,208.066299 374.666931,211.579102 378.534088,214.882416 
	C383.493286,219.118515 388.596436,223.186111 393.637543,227.326309 
	C393.637543,227.326309 393.492676,227.541809 393.080688,227.635803 
	C381.130951,230.794037 371.594452,236.792603 364.765228,246.760651 
	C364.765228,246.760651 364.751129,246.912079 364.524933,246.927979 
	C364.140228,247.244904 363.981720,247.545929 363.823181,247.846954 
	C363.823212,247.846970 363.969635,247.992615 363.598694,248.058136 
	C362.102966,249.706940 360.978149,251.290207 359.853333,252.873474 
	C359.853363,252.873489 359.957825,253.013931 359.606079,253.070190 
	C346.304108,270.055725 328.940643,274.996796 308.466156,272.217957 
	C310.457336,264.269501 310.458893,264.177765 317.938202,264.305786 
	C330.611542,264.522705 341.528625,260.984497 349.477448,250.008209 
	C357.691925,240.648727 364.560760,230.332413 377.014618,225.314407 
	C374.989685,223.468384 373.558594,222.163773 372.062195,220.923584 
	C371.996826,220.988022 372.139862,220.875244 372.074951,220.541885 
	C370.705048,218.704819 369.477386,217.124832 368.082184,215.710083 
	C360.488739,208.010223 350.607574,208.299759 342.959045,216.550476 
	C336.766052,223.104263 330.836029,229.499481 324.553009,235.955795 
	C310.089691,244.355988 294.761169,244.916595 279.199585,242.473480 
	C245.219833,237.138748 224.611588,215.560883 211.269516,185.510757 
	C210.715332,184.262558 211.198715,182.553696 211.198715,182.346329 
	C221.521072,184.605988 231.282837,186.742920 241.044617,188.879852 
	C241.470673,188.972427 241.896744,189.065018 242.985138,189.376144 
	C258.782715,190.671951 273.917938,191.749237 289.053162,192.826508 
z"/>
<path fill="#18A3BB" opacity="1.000000" stroke="none" 
	d="
M235.244522,279.894287 
	C235.244522,279.894287 235.152679,279.499054 235.531128,279.300415 
	C237.656113,277.785431 239.402679,276.469086 241.149246,275.152771 
	C241.149246,275.152771 240.984207,275.075287 241.404922,275.056946 
	C257.773865,264.075348 275.229584,259.570618 294.539276,262.456482 
	C293.286163,268.497284 290.098175,271.199341 283.976562,270.084137 
	C281.726715,269.674255 279.317078,269.868011 277.010498,270.094208 
	C270.144928,270.767456 263.462677,272.099701 258.232361,275.444061 
	C266.229401,280.745544 274.057861,285.935242 281.939697,291.061920 
	C281.993042,290.998871 281.873352,291.114075 282.003113,291.424805 
	C283.416870,293.088409 284.700836,294.441284 285.932343,295.738892 
	C287.596863,289.906006 288.579773,284.468872 290.685883,279.508636 
	C294.700806,270.052856 299.985321,261.100372 303.519012,251.489014 
	C305.767487,245.373337 309.672729,244.825073 316.063751,244.514679 
	C311.919678,253.769089 308.386780,262.315674 304.316132,270.597992 
	C297.907684,283.636871 293.783844,297.093567 295.017517,311.818726 
	C295.321136,315.442474 295.490967,319.077454 295.722321,322.707275 
	C295.722321,322.707275 295.452606,322.516113 295.239258,322.147949 
	C289.426727,315.006042 284.087738,307.994965 278.172882,301.509125 
	C266.669556,288.895355 252.463425,281.319855 235.244522,279.894287 
z"/>
<path fill="#C5F7FA" opacity="1.000000" stroke="none" 
	d="
M296.131622,322.750732 
	C295.490967,319.077454 295.321136,315.442474 295.017517,311.818726 
	C293.783844,297.093567 297.907684,283.636871 304.316132,270.597992 
	C308.386780,262.315674 311.919678,253.769089 316.063751,244.514679 
	C309.672729,244.825073 305.767487,245.373337 303.519012,251.489014 
	C299.985321,261.100372 294.700806,270.052856 290.685883,279.508636 
	C288.579773,284.468872 287.596863,289.906006 285.932343,295.738892 
	C284.700836,294.441284 283.416870,293.088409 282.408630,291.375092 
	C283.662109,290.520447 285.245667,290.246216 285.518066,289.495911 
	C287.140656,285.027039 288.677338,280.496826 289.714630,275.868805 
	C289.946625,274.833710 288.144257,272.272369 287.153381,272.203156 
	C279.349304,271.657623 271.498383,271.426605 263.849915,275.238007 
	C264.444916,276.122559 264.784882,277.132782 265.485382,277.587189 
	C269.900177,280.451019 274.532043,283.001648 278.788544,286.076141 
	C280.265961,287.143280 280.878662,289.407501 281.886322,291.124969 
	C274.057861,285.935242 266.229401,280.745544 258.232361,275.444061 
	C263.462677,272.099701 270.144928,270.767456 277.010498,270.094208 
	C279.317078,269.868011 281.726715,269.674255 283.976562,270.084137 
	C290.098175,271.199341 293.286163,268.497284 294.539276,262.456482 
	C275.229584,259.570618 257.773865,264.075348 241.484924,275.104065 
	C242.308426,271.222778 244.821426,269.307434 248.960678,268.239868 
	C253.462845,267.078705 257.444794,263.943848 261.938751,262.699097 
	C273.377533,259.530762 284.979553,256.988434 297.494843,260.117584 
	C298.533722,256.674225 299.476288,253.381912 300.524048,250.123428 
	C301.620026,246.715057 299.729492,246.135269 296.953827,245.941635 
	C288.266479,245.335526 279.404297,245.457138 270.964020,243.646210 
	C264.134430,242.180832 257.844788,238.261292 251.265930,235.551086 
	C240.712021,231.203308 233.056946,223.040344 225.832291,214.863434 
	C220.516785,208.847305 217.058929,201.166718 212.928177,194.136826 
	C210.911224,190.704300 209.129639,187.117966 207.475616,183.494415 
	C206.686890,181.766525 206.444748,179.789139 205.955017,177.924774 
	C206.270889,177.415527 206.586761,176.906296 206.902634,176.397064 
	C218.220047,180.318329 229.537460,184.239594 240.949738,188.520355 
	C231.282837,186.742920 221.521072,184.605988 211.198715,182.346329 
	C211.198715,182.553696 210.715332,184.262558 211.269516,185.510757 
	C224.611588,215.560883 245.219833,237.138748 279.199585,242.473480 
	C294.761169,244.916595 310.089691,244.355988 324.640656,236.048218 
	C325.081268,236.079529 325.257874,236.263123 325.156860,236.599396 
	C323.724274,237.983200 322.333923,238.965485 321.077301,240.096359 
	C319.775604,241.267746 318.214050,242.390915 317.476044,243.885651 
	C316.607941,245.644089 316.646759,247.825119 316.037170,249.741730 
	C314.818970,253.572083 313.426910,257.347107 311.837708,261.918488 
	C319.857544,261.616516 327.340668,263.552155 334.248901,258.609436 
	C338.844757,255.321167 343.927429,252.713318 348.890686,249.894089 
	C348.989136,249.987244 349.186401,250.173141 349.186401,250.173141 
	C341.528625,260.984497 330.611542,264.522705 317.938202,264.305786 
	C310.458893,264.177765 310.457336,264.269501 308.466156,272.217957 
	C328.940643,274.996796 346.304108,270.055725 359.561188,252.996552 
	C358.647766,255.493286 358.081879,258.874298 356.085388,260.606049 
	C349.912170,265.960663 343.512268,271.902466 335.364746,273.318512 
	C327.289093,274.722076 319.118347,279.704010 310.461456,274.423401 
	C307.879456,272.848450 304.435120,273.913147 303.512512,277.202698 
	C301.384125,284.791473 299.236389,292.446991 298.114136,300.222351 
	C297.253998,306.181824 298.038788,312.368073 297.889191,318.448456 
	C297.853302,319.907227 297.011871,321.346130 296.131622,322.750732 
z"/>
<path fill="#1CA4BB" opacity="1.000000" stroke="none" 
	d="
M531.635742,271.204651 
	C521.025940,274.351898 512.818298,271.592896 508.433746,263.681366 
	C503.950928,255.592438 505.394135,245.300156 512.036377,239.569092 
	C517.010986,235.276825 522.885315,234.068649 529.277405,235.442322 
	C535.331909,236.743423 535.807556,236.382828 535.855774,230.119598 
	C535.859619,229.620850 535.856079,229.122070 535.857605,228.623306 
	C535.881531,220.823486 535.881592,220.823486 544.548645,221.913361 
	C544.548645,238.349518 544.548645,254.857895 544.548645,272.551270 
	C541.444092,271.950867 538.578308,271.309052 535.681030,270.878815 
	C534.501526,270.703674 533.253662,270.988159 531.635742,271.204651 
M531.067871,244.024124 
	C529.815735,243.625793 528.588196,243.018066 527.306946,242.867172 
	C522.915100,242.349976 518.923523,243.193573 516.559265,247.373901 
	C514.088501,251.742493 514.041748,256.249237 516.753540,260.571442 
	C519.273926,264.588623 523.154419,265.592072 527.578369,264.984009 
	C531.816223,264.401489 534.583191,261.787445 535.639038,257.834381 
	C537.001221,252.734375 536.393677,247.925842 531.067871,244.024124 
z"/>
<path fill="#D1FAFC" opacity="1.000000" stroke="none" 
	d="
M364.871521,203.072540 
	C352.301758,199.344269 341.833130,202.322845 334.177094,213.181503 
	C327.083862,223.241913 318.959900,231.861618 306.118469,233.855621 
	C282.391357,237.539963 261.188080,231.727615 243.281601,215.615692 
	C237.197449,210.141296 232.127899,203.539276 226.594711,197.452515 
	C226.926987,197.019226 227.259247,196.585938 227.591507,196.152649 
	C231.754700,196.760696 235.899460,197.646973 240.084579,197.924133 
	C252.189163,198.725739 264.329102,199.049637 276.415527,200.043289 
	C281.657379,200.474228 286.968933,201.588776 291.957977,203.260712 
	C304.084747,207.324692 308.682404,214.687363 308.729706,228.838730 
	C316.746857,228.213501 317.965942,226.820145 317.062134,219.347916 
	C315.725800,208.299759 308.916229,201.530640 299.448792,196.866516 
	C297.813171,196.060730 296.085754,195.441147 294.175781,194.204620 
	C293.967224,193.468689 293.983582,193.263702 293.999939,193.058716 
	C301.787018,193.007233 307.107849,197.467590 312.052979,202.765137 
	C316.070465,207.068878 319.061920,211.846237 321.346008,217.348816 
	C323.382843,222.255737 324.631714,221.824615 327.509827,217.389709 
	C332.677490,209.426727 338.117340,201.403732 348.363495,199.532532 
	C352.698273,198.740906 357.283356,198.960663 361.716400,199.269821 
	C363.181824,199.371994 364.527313,201.194626 365.695374,202.619141 
	C365.265900,203.029282 365.068695,203.050919 364.871521,203.072540 
M235.824142,203.871567 
	C237.711594,205.938553 239.402390,208.239548 241.526688,210.024704 
	C246.232269,213.979065 251.047333,217.952774 255.747925,221.759659 
	C261.721252,226.597275 268.424927,227.693695 274.748596,229.592072 
	C282.269836,231.849976 290.611328,231.542374 298.617523,231.922562 
	C301.215576,232.045959 303.876984,230.835449 306.420776,230.255280 
	C305.536682,223.783585 306.136139,217.726074 301.556396,213.362076 
	C298.652649,210.595093 295.763336,207.369949 292.223785,205.828918 
	C288.098907,204.033081 283.305725,203.549622 278.741882,203.034149 
	C270.872711,202.145386 262.966766,201.444199 255.057205,201.091766 
	C247.896347,200.772690 240.710068,201.024323 233.215134,201.024323 
	C233.851471,201.840927 234.507904,202.683319 235.824142,203.871567 
z"/>
<path fill="#3DA7B8" opacity="1.000000" stroke="none" 
	d="
M452.920105,259.114136 
	C450.114258,270.193085 440.599121,273.727448 431.915131,273.009735 
	C427.603973,272.653412 423.238922,272.078003 418.962006,272.413696 
	C414.325928,272.777618 413.046570,270.429260 413.091858,266.688049 
	C413.254303,253.254837 413.679565,239.823837 413.731720,226.390930 
	C413.746368,222.611465 414.631348,220.014023 418.749969,220.126984 
	C422.234070,220.222549 424.071869,221.832657 423.508118,225.932083 
	C423.077209,229.065598 423.799805,232.357742 424.009338,235.579346 
	C426.915009,235.324570 429.831421,235.157166 432.724518,234.800308 
	C447.539795,232.973007 454.998932,244.483719 452.920105,259.114136 
M426.213348,240.949936 
	C424.770752,239.932556 422.399567,239.151871 422.068054,237.851288 
	C421.233582,234.577393 421.550201,231.025299 420.917084,227.677032 
	C420.679993,226.423126 419.091064,225.424789 418.118500,224.309937 
	C417.408173,225.436203 416.093781,226.555222 416.080170,227.689880 
	C415.930206,240.163391 416.004303,252.639374 415.966614,265.114563 
	C415.956116,268.589081 417.832855,269.146271 420.842499,268.953827 
	C423.698242,268.771271 426.609406,269.452148 429.464752,269.267365 
	C434.266296,268.956573 440.095734,269.823486 443.635773,267.438599 
	C454.964294,259.806702 453.330963,244.977295 441.192413,238.726318 
	C437.646698,236.900391 428.910278,238.290298 426.998901,241.001328 
	C426.998901,241.001328 426.994324,240.980698 426.213348,240.949936 
z"/>
<path fill="#19A1B9" opacity="1.000000" stroke="none" 
	d="
M480.513062,262.903351 
	C480.514679,253.784424 480.514679,245.151443 480.514679,235.720993 
	C487.536102,235.642487 494.366974,238.997345 501.350830,234.218964 
	C501.350830,237.977615 501.350830,240.338654 501.350830,242.716629 
	C490.209290,245.824020 489.233978,247.134476 489.234619,259.011810 
	C489.234833,263.146942 489.234619,267.282074 489.234619,271.795013 
	C486.283325,271.795013 483.740234,271.795013 480.511414,271.795013 
	C480.511414,268.921204 480.511414,266.155243 480.513062,262.903351 
z"/>
<path fill="#3BA6B5" opacity="1.000000" stroke="none" 
	d="
M465.105774,234.899216 
	C469.111023,234.902679 470.530334,236.144043 470.343750,240.331100 
	C469.881866,250.695801 470.192139,261.094910 470.192139,271.890076 
	C466.980560,271.890076 464.257843,271.890076 460.730621,271.890076 
	C460.730621,266.230560 460.804657,260.508698 460.708191,254.789719 
	C460.624451,249.826416 460.366394,244.865540 460.149414,239.905167 
	C460.007812,236.668777 461.353088,234.857941 465.105774,234.899216 
M462.943207,257.504547 
	C462.947723,259.830444 463.028870,262.159332 462.939362,264.481598 
	C462.794922,268.229492 464.648468,268.542664 467.523102,267.574341 
	C467.523102,264.534760 467.472534,261.781677 467.533661,259.031128 
	C467.658752,253.403717 468.016022,247.773651 467.885315,242.153793 
	C467.851929,240.718567 466.351715,239.317429 465.525452,237.900635 
	C464.880737,237.946106 464.236053,237.991577 463.591339,238.037048 
	C463.094910,240.582397 462.234802,243.121292 462.189453,245.674667 
	C462.125214,249.286819 462.662506,252.909668 462.943207,257.504547 
z"/>
<path fill="#C5F7FA" opacity="1.000000" stroke="none" 
	d="
M235.222687,280.270386 
	C252.463425,281.319855 266.669556,288.895355 278.172882,301.509125 
	C284.087738,307.994965 289.426727,315.006042 295.087219,322.083099 
	C294.379791,326.331146 292.526886,324.521027 291.311523,322.893677 
	C288.036346,318.508392 285.522736,313.434357 281.750397,309.566467 
	C274.861603,302.503143 267.930908,295.125305 259.774658,289.772797 
	C253.900528,285.917969 245.991592,285.192291 239.034134,282.935638 
	C237.654068,282.488007 236.473450,281.425476 235.222687,280.270386 
z"/>
<path fill="#3BA6B5" opacity="1.000000" stroke="none" 
	d="
M468.169495,230.326324 
	C466.101349,230.084595 464.091797,230.276688 462.605316,229.485809 
	C459.971863,228.084656 458.393433,225.927567 459.823425,222.538391 
	C461.378448,218.852737 464.509979,217.786133 467.418274,219.281189 
	C469.265900,220.230988 470.446167,223.386429 470.914764,225.752945 
	C471.173828,227.061325 469.349091,228.782349 468.169495,230.326324 
M467.329803,227.117645 
	C467.317169,225.408661 467.304535,223.699677 467.291901,221.990692 
	C466.097412,222.049088 464.493958,221.656281 463.809082,222.276978 
	C462.897217,223.103409 462.700348,224.718735 462.196350,225.995178 
	C463.704224,226.513458 465.212097,227.031723 467.329803,227.117645 
z"/>
<path fill="#C5F7FA" opacity="1.000000" stroke="none" 
	d="
M393.734100,226.942123 
	C388.596436,223.186111 383.493286,219.118515 378.534088,214.882416 
	C374.666931,211.579102 370.978729,208.066299 367.042053,204.353333 
	C370.655884,203.754257 372.760162,205.197113 375.696716,208.206055 
	C379.799011,212.409531 381.970886,219.710220 389.908752,219.998795 
	C391.293701,220.049164 392.527222,224.265625 393.734100,226.942123 
z"/>
<path fill="#C5F7FA" opacity="1.000000" stroke="none" 
	d="
M365.128601,246.812424 
	C371.594452,236.792603 381.130951,230.794037 393.021362,227.751312 
	C393.947144,228.087143 394.520294,228.401474 395.847809,229.129532 
	C394.101685,229.858459 392.933044,230.621368 391.673615,230.826218 
	C384.929352,231.923203 379.740234,235.251678 375.201294,240.416489 
	C372.725250,243.233963 368.776520,244.757248 365.128601,246.812424 
z"/>
<path fill="#C5F7FA" opacity="1.000000" stroke="none" 
	d="
M288.963928,192.466354 
	C273.917938,191.749237 258.782715,190.671951 243.312988,189.353577 
	C244.713287,188.745560 246.448090,188.378647 248.934677,188.046204 
	C250.792480,188.343826 251.898499,188.606995 253.004501,188.870163 
	C254.068985,188.893997 255.133453,188.917831 256.996948,188.953720 
	C258.865326,188.952881 259.934631,188.939987 261.003967,188.927094 
	C264.693481,188.954575 268.383026,188.982056 272.679413,189.233322 
	C273.863403,189.318741 274.440521,189.180374 275.017639,189.042007 
	C279.636658,190.063400 284.255646,191.084808 288.963928,192.466354 
z"/>
<path fill="#C5F7FA" opacity="1.000000" stroke="none" 
	d="
M240.756744,275.096741 
	C239.402679,276.469086 237.656113,277.785431 235.577301,279.102844 
	C235.392334,275.785248 237.475296,274.905273 240.756744,275.096741 
z"/>
<path fill="#C5F7FA" opacity="1.000000" stroke="none" 
	d="
M360.221222,252.886841 
	C360.978149,251.290207 362.102966,249.706940 363.522217,247.984650 
	C362.740784,249.530502 361.664948,251.215347 360.221222,252.886841 
z"/>
<path fill="#F5FBFC" opacity="1.000000" stroke="none" 
	d="
M260.935913,188.591660 
	C259.934631,188.939987 258.865326,188.952881 257.395996,188.934006 
	C257.892090,186.322220 259.235931,186.426056 260.935913,188.591660 
z"/>
<path fill="#F5FBFC" opacity="1.000000" stroke="none" 
	d="
M252.936249,188.544418 
	C251.898499,188.606995 250.792480,188.343826 249.343414,188.038727 
	C250.289566,188.070724 251.578781,188.144699 252.936249,188.544418 
z"/>
<path fill="#F5FBFC" opacity="1.000000" stroke="none" 
	d="
M274.871490,188.811447 
	C274.440521,189.180374 273.863403,189.318741 273.139587,189.236450 
	C273.570343,188.870819 274.147858,188.725845 274.871490,188.811447 
z"/>
<path fill="#C5F7FA" opacity="1.000000" stroke="none" 
	d="
M293.586578,193.030350 
	C293.983582,193.263702 293.967224,193.468689 293.913147,193.980118 
	C292.977173,194.078278 292.078827,193.870010 290.935760,193.412811 
	C291.518402,193.109924 292.345825,193.055954 293.586578,193.030350 
z"/>
<path fill="#C5F7FA" opacity="1.000000" stroke="none" 
	d="
M364.088684,247.781677 
	C363.981720,247.545929 364.140228,247.244904 364.545166,246.856232 
	C364.645782,247.084518 364.499969,247.400452 364.088684,247.781677 
z"/>
<path fill="#C5F7FA" opacity="1.000000" stroke="none" 
	d="
M365.015503,203.274536 
	C365.068695,203.050919 365.265900,203.029282 365.760498,202.985352 
	C366.057953,202.963028 366.086975,203.354996 366.077454,203.551132 
	C366.067963,203.747269 365.571991,203.751984 365.571991,203.751984 
	C365.571991,203.751984 365.159515,203.476532 365.015503,203.274536 
z"/>
<path fill="#C5F7FA" opacity="1.000000" stroke="none" 
	d="
M372.127533,220.859161 
	C373.558594,222.163773 374.989685,223.468384 377.014618,225.314407 
	C364.560760,230.332413 357.691925,240.648727 349.477448,250.008209 
	C349.186401,250.173141 348.989136,249.987244 348.961884,249.547623 
	C354.225769,242.156219 359.516907,235.204437 364.879883,228.158295 
	C359.766479,230.865936 355.892853,229.507767 355.091522,222.977402 
	C354.484985,218.034531 357.103424,215.777893 362.668427,216.119629 
	C360.590607,212.672760 358.332001,211.354248 355.271515,212.419678 
	C351.445312,213.751663 347.747589,215.452728 343.817108,216.823532 
	C343.639832,216.652618 343.222015,216.391891 343.222015,216.391891 
	C350.607574,208.299759 360.488739,208.010223 368.082184,215.710083 
	C369.477386,217.124832 370.705048,218.704819 371.709717,220.559494 
	C368.421967,219.311157 367.627167,221.475937 367.342865,223.599777 
	C367.215515,224.551071 368.264740,225.659866 368.779999,226.697205 
	C369.859894,225.401321 371.017700,224.159485 371.975525,222.778931 
	C372.291687,222.323212 372.091583,221.509293 372.127533,220.859161 
M359.992584,218.605453 
	C359.073090,220.298981 357.304657,222.103439 357.506805,223.650391 
	C357.664215,224.855179 360.260986,226.489899 361.799011,226.517410 
	C362.932037,226.537659 364.829102,224.416306 365.113098,222.994949 
	C365.728058,219.917053 363.572388,218.580444 359.992584,218.605453 
z"/>
<path fill="#C5F7FA" opacity="1.000000" stroke="none" 
	d="
M324.993622,235.987122 
	C330.836029,229.499481 336.766052,223.104263 342.959045,216.550476 
	C343.222015,216.391891 343.639832,216.652618 343.774933,217.172607 
	C340.641724,222.212326 337.732574,227.065125 333.967987,231.124649 
	C331.771606,233.493103 328.206940,234.592667 325.257874,236.263123 
	C325.257874,236.263123 325.081268,236.079529 324.993622,235.987122 
z"/>
<path fill="#F8FAFA" opacity="1.000000" stroke="none" 
	d="
M325.156860,236.599396 
	C328.206940,234.592667 331.771606,233.493103 333.967987,231.124649 
	C337.732574,227.065125 340.641724,222.212326 343.952209,217.343536 
	C347.747589,215.452728 351.445312,213.751663 355.271515,212.419678 
	C358.332001,211.354248 360.590607,212.672760 362.668427,216.119629 
	C357.103424,215.777893 354.484985,218.034531 355.091522,222.977402 
	C355.892853,229.507767 359.766479,230.865936 364.879883,228.158295 
	C359.516907,235.204437 354.225769,242.156219 348.863403,249.454468 
	C343.927429,252.713318 338.844757,255.321167 334.248901,258.609436 
	C327.340668,263.552155 319.857544,261.616516 311.837708,261.918488 
	C313.426910,257.347107 314.818970,253.572083 316.037170,249.741730 
	C316.646759,247.825119 316.607941,245.644089 317.476044,243.885651 
	C318.214050,242.390915 319.775604,241.267746 321.077301,240.096359 
	C322.333923,238.965485 323.724274,237.983200 325.156860,236.599396 
z"/>
<path fill="#F5FBFC" opacity="1.000000" stroke="none" 
	d="
M281.939697,291.061920 
	C280.878662,289.407501 280.265961,287.143280 278.788544,286.076141 
	C274.532043,283.001648 269.900177,280.451019 265.485382,277.587189 
	C264.784882,277.132782 264.444916,276.122559 263.849915,275.238007 
	C271.498383,271.426605 279.349304,271.657623 287.153381,272.203156 
	C288.144257,272.272369 289.946625,274.833710 289.714630,275.868805 
	C288.677338,280.496826 287.140656,285.027039 285.518066,289.495911 
	C285.245667,290.246216 283.662109,290.520447 282.278870,291.064362 
	C281.873352,291.114075 281.993042,290.998871 281.939697,291.061920 
z"/>
<path fill="#C5F7FA" opacity="1.000000" stroke="none" 
	d="
M531.411255,244.226929 
	C536.393677,247.925842 537.001221,252.734375 535.639038,257.834381 
	C534.583191,261.787445 531.816223,264.401489 527.578369,264.984009 
	C523.154419,265.592072 519.273926,264.588623 516.753540,260.571442 
	C514.041748,256.249237 514.088501,251.742493 516.559265,247.373901 
	C518.923523,243.193573 522.915100,242.349976 527.306946,242.867172 
	C528.588196,243.018066 529.815735,243.625793 531.411255,244.226929 
M527.216125,244.202606 
	C524.266907,245.832520 520.844543,246.964386 518.480347,249.210220 
	C515.012756,252.504242 516.382385,257.943481 521.336060,262.324829 
	C524.660461,265.265198 527.747070,263.621765 530.498291,261.224182 
	C536.549133,255.951111 535.448547,249.026291 527.216125,244.202606 
z"/>
<path fill="#F9FAFA" opacity="1.000000" stroke="none" 
	d="
M235.494232,203.698639 
	C234.507904,202.683319 233.851471,201.840927 233.215134,201.024323 
	C240.710068,201.024323 247.896347,200.772690 255.057205,201.091766 
	C262.966766,201.444199 270.872711,202.145386 278.741882,203.034149 
	C283.305725,203.549622 288.098907,204.033081 292.223785,205.828918 
	C295.763336,207.369949 298.652649,210.595093 301.556396,213.362076 
	C306.136139,217.726074 305.536682,223.783585 306.420776,230.255280 
	C303.876984,230.835449 301.215576,232.045959 298.617523,231.922562 
	C290.611328,231.542374 282.269836,231.849976 274.748596,229.592072 
	C268.424927,227.693695 261.721252,226.597275 255.747925,221.759659 
	C251.047333,217.952774 246.232269,213.979065 241.526688,210.024704 
	C239.402390,208.239548 237.711594,205.938553 235.494232,203.698639 
z"/>
<path fill="#08A4C1" opacity="1.000000" stroke="none" 
	d="
M426.978699,240.987640 
	C428.910278,238.290298 437.646698,236.900391 441.192413,238.726318 
	C453.330963,244.977295 454.964294,259.806702 443.635773,267.438599 
	C440.095734,269.823486 434.266296,268.956573 429.464752,269.267365 
	C426.609406,269.452148 423.698242,268.771271 420.842499,268.953827 
	C417.832855,269.146271 415.956116,268.589081 415.966614,265.114563 
	C416.004303,252.639374 415.930206,240.163391 416.080170,227.689880 
	C416.093781,226.555222 417.408173,225.436203 418.118500,224.309937 
	C419.091064,225.424789 420.679993,226.423126 420.917084,227.677032 
	C421.550201,231.025299 421.233582,234.577393 422.068054,237.851288 
	C422.399567,239.151871 424.770752,239.932556 426.466003,241.276337 
	C426.289856,242.102951 425.877075,242.618088 425.429657,243.101089 
	C419.472412,249.531631 419.193085,257.512299 424.701691,264.064606 
	C428.248108,268.282928 437.351776,268.312500 440.407837,264.034088 
	C441.175537,263.340118 441.645752,262.726685 442.475159,262.027222 
	C445.702820,259.297455 447.362488,250.418518 445.369446,247.653381 
	C444.989502,247.126221 443.896851,247.112747 443.091095,246.489548 
	C441.635590,244.736633 440.411346,242.514496 438.770325,242.145432 
	C434.946411,241.285400 430.921936,241.317184 426.978699,240.987640 
z"/>
<path fill="#08A4C1" opacity="1.000000" stroke="none" 
	d="
M462.942963,257.016235 
	C462.662506,252.909668 462.125214,249.286819 462.189453,245.674667 
	C462.234802,243.121292 463.094910,240.582397 463.591339,238.037048 
	C464.236053,237.991577 464.880737,237.946106 465.525452,237.900635 
	C466.351715,239.317429 467.851929,240.718567 467.885315,242.153793 
	C468.016022,247.773651 467.658752,253.403717 467.533661,259.031128 
	C467.472534,261.781677 467.523102,264.534760 467.523102,267.574341 
	C464.648468,268.542664 462.794922,268.229492 462.939362,264.481598 
	C463.028870,262.159332 462.947723,259.830444 462.942963,257.016235 
z"/>
<path fill="#08A4C1" opacity="1.000000" stroke="none" 
	d="
M467.024902,227.333832 
	C465.212097,227.031723 463.704224,226.513458 462.196350,225.995178 
	C462.700348,224.718735 462.897217,223.103409 463.809082,222.276978 
	C464.493958,221.656281 466.097412,222.049088 467.291901,221.990692 
	C467.304535,223.699677 467.317169,225.408661 467.024902,227.333832 
z"/>
<path fill="#2DA1B3" opacity="1.000000" stroke="none" 
	d="
M360.343933,218.472260 
	C363.572388,218.580444 365.728058,219.917053 365.113098,222.994949 
	C364.829102,224.416306 362.932037,226.537659 361.799011,226.517410 
	C360.260986,226.489899 357.664215,224.855179 357.506805,223.650391 
	C357.304657,222.103439 359.073090,220.298981 360.343933,218.472260 
z"/>
<path fill="#F8FAFA" opacity="1.000000" stroke="none" 
	d="
M372.062195,220.923584 
	C372.091583,221.509293 372.291687,222.323212 371.975525,222.778931 
	C371.017700,224.159485 369.859894,225.401321 368.779999,226.697205 
	C368.264740,225.659866 367.215515,224.551071 367.342865,223.599777 
	C367.627167,221.475937 368.421967,219.311157 371.774658,220.892853 
	C372.139862,220.875244 371.996826,220.988022 372.062195,220.923584 
z"/>
<path fill="#F6FBFA" opacity="1.000000" stroke="none" 
	d="
M527.562622,244.338791 
	C535.448547,249.026291 536.549133,255.951111 530.498291,261.224182 
	C527.747070,263.621765 524.660461,265.265198 521.336060,262.324829 
	C516.382385,257.943481 515.012756,252.504242 518.480347,249.210220 
	C520.844543,246.964386 524.266907,245.832520 527.562622,244.338791 
z"/>
<path fill="#2DA1B3" opacity="1.000000" stroke="none" 
	d="
M440.110352,264.114624 
	C437.351776,268.312500 428.248108,268.282928 424.701691,264.064606 
	C419.193085,257.512299 419.472412,249.531631 425.429657,243.101089 
	C425.877075,242.618088 426.289856,242.102951 426.856506,241.291718 
	C426.994324,240.980698 426.998901,241.001328 426.988800,240.994476 
	C430.921936,241.317184 434.946411,241.285400 438.770325,242.145432 
	C440.411346,242.514496 441.635590,244.736633 442.994598,246.578552 
	C442.940002,247.040283 442.741974,247.212753 442.476990,246.990845 
	C438.679901,242.457977 434.069916,241.755600 429.199615,243.532928 
	C425.084473,245.034683 423.219971,248.557800 422.941711,252.879715 
	C422.319031,262.551941 429.429138,267.132446 439.858887,263.829895 
	C439.941925,263.925507 440.110352,264.114624 440.110352,264.114624 
z"/>
<path fill="#2DA1B3" opacity="1.000000" stroke="none" 
	d="
M443.036499,246.951279 
	C443.896851,247.112747 444.989502,247.126221 445.369446,247.653381 
	C447.362488,250.418518 445.702820,259.297455 442.398926,261.957062 
	C441.963470,261.972961 441.809174,261.834625 441.923706,261.471680 
	C445.003174,256.615021 444.634644,251.952484 442.741974,247.212753 
	C442.741974,247.212753 442.940002,247.040283 443.036499,246.951279 
z"/>
<path fill="#2DA1B3" opacity="1.000000" stroke="none" 
	d="
M442.039734,262.043091 
	C441.645752,262.726685 441.175537,263.340118 440.407837,264.034088 
	C440.110352,264.114624 439.941925,263.925507 440.007172,263.590271 
	C440.651337,262.781555 441.230255,262.308105 441.809174,261.834625 
	C441.809174,261.834625 441.963470,261.972961 442.039734,262.043091 
z"/>
<path fill="#C5F7FA" opacity="1.000000" stroke="none" 
	d="
M441.923706,261.471680 
	C441.230255,262.308105 440.651337,262.781555 439.924133,263.494629 
	C429.429138,267.132446 422.319031,262.551941 422.941711,252.879715 
	C423.219971,248.557800 425.084473,245.034683 429.199615,243.532928 
	C434.069916,241.755600 438.679901,242.457977 442.476990,246.990845 
	C444.634644,251.952484 445.003174,256.615021 441.923706,261.471680 
M432.650635,263.019470 
	C434.874237,262.089630 437.436340,261.584686 439.249939,260.140076 
	C442.856110,257.267700 443.068726,251.029495 440.121613,247.639221 
	C437.281982,244.372589 432.355774,244.250778 428.377319,247.071487 
	C423.201599,250.740997 423.024719,259.505859 432.650635,263.019470 
z"/>
<path fill="#F8FAFA" opacity="1.000000" stroke="none" 
	d="
M432.256531,263.007111 
	C423.024719,259.505859 423.201599,250.740997 428.377319,247.071487 
	C432.355774,244.250778 437.281982,244.372589 440.121613,247.639221 
	C443.068726,251.029495 442.856110,257.267700 439.249939,260.140076 
	C437.436340,261.584686 434.874237,262.089630 432.256531,263.007111 
z"/>
</svg>