<?xml version="1.0" encoding="iso-8859-1"?>
<!-- Uploaded to: SVG Repo, www.svgrepo.com, Generator: SVG Repo Mixer Tools -->
<svg height="800px" width="800px" version="1.1" id="Layer_1" xmlns="http://www.w3.org/2000/svg" xmlns:xlink="http://www.w3.org/1999/xlink" 
	 viewBox="0 0 512 512" xml:space="preserve">
<circle style="fill:#FF80AA;" cx="256" cy="256" r="256"/>
<path style="fill:#FD5790;" d="M500.917,330.692l-33.739-33.74l-14.412,5.815L296.334,146.334l-27.576,16.231l-19.406-19.406
	l-3.712,8.911l15.172,15.172l-15.094,8.885l-16.715,10.402l147.149,147.149l-23.826,9.613L245.719,236.682l-68.66,55.048
	l-94.677,49.421l170.813,170.813c0.936,0.01,1.867,0.036,2.805,0.036C371.4,512,468.952,435.638,500.917,330.692z"/>
<path style="fill:#E6F3FF;" d="M245.719,236.684c0,0-25.164-34.092-60.269-20.09S134.92,317.042,44.822,296.951
	c0,0,43.02,83.809,120.539,60.269C242.878,333.681,213.656,263.063,245.719,236.684z"/>
<path style="fill:#CFDBE6;" d="M195.856,298.282c0,0-32.177,46.852-83.828,27.943l35.731-35.731
	c11.131-11.131,29.177-11.131,40.308,0L195.856,298.282z"/>
<circle style="fill:#324A5E;" cx="204.886" cy="235.141" r="4.336"/>
<path style="fill:#CFDBE6;" d="M266.281,236.684c0,0,25.164-34.092,60.269-20.09s50.529,100.449,140.628,80.358
	c0,0-43.02,83.809-120.539,60.269C269.122,333.681,298.344,263.063,266.281,236.684z"/>
<path style="fill:#B8C9D9;" d="M316.144,298.282c0,0,32.177,46.852,83.828,27.943l-35.731-35.731
	c-11.131-11.131-29.177-11.131-40.308,0L316.144,298.282z"/>
<circle style="fill:#324A5E;" cx="307.114" cy="235.141" r="4.336"/>
<path style="fill:#C1321F;" d="M211.708,158.965c0-12.231,9.916-22.145,22.145-22.145c12.231,0,22.145,9.916,22.145,22.145
	c0-12.231,9.916-22.145,22.145-22.145c12.231,0,22.145,9.916,22.145,22.145c0,21.176-44.292,46.508-44.292,46.508
	S211.708,181.334,211.708,158.965z"/>
<path style="fill:#A82116;" d="M256,158.965c0-12.231,9.916-22.145,22.145-22.145c12.231,0,22.145,9.916,22.145,22.145
	c0,21.176-44.292,46.508-44.292,46.508L256,158.965z"/>
</svg>