<svg version="1.1" id="Layer_1" xmlns="http://www.w3.org/2000/svg" xmlns:xlink="http://www.w3.org/1999/xlink" x="0px" y="0px"
	 width="100%" viewBox="0 0 100 100" enable-background="new 0 0 100 100" xml:space="preserve">
<path fill="#010101" opacity="1.000000" stroke="none" 
	d="
M60.000000,101.000000 
	C40.000004,101.000000 20.500008,101.000000 1.000008,101.000000 
	C1.000005,67.666679 1.000005,34.333351 1.000003,1.000021 
	C34.333317,1.000014 67.666634,1.000014 100.999969,1.000007 
	C100.999977,34.333313 100.999977,67.666626 100.999985,100.999969 
	C87.500000,101.000000 74.000000,101.000000 60.000000,101.000000 
M93.089417,57.993412 
	C92.027779,56.965435 90.966141,55.937458 89.988602,54.028046 
	C89.104553,49.637897 89.545319,44.130657 87.014427,41.129128 
	C83.540054,37.008659 80.221329,33.677155 78.703056,27.998085 
	C76.703110,20.517281 70.705948,15.900925 62.661766,15.039262 
	C52.529366,13.953917 44.295486,16.798685 39.649506,26.756121 
	C37.724304,30.882267 33.605186,31.807341 29.632278,29.736534 
	C28.472792,29.132174 26.421972,29.229229 25.247503,29.866673 
	C22.586081,31.311163 20.090849,33.146435 17.786709,35.124165 
	C16.827097,35.947834 15.857647,37.707890 16.115799,38.734631 
	C16.371592,39.751980 18.080956,40.852585 19.306595,41.077148 
	C21.390190,41.458912 23.594427,41.182209 26.784430,41.182209 
	C22.855749,41.934086 19.840931,42.032539 17.233204,43.113270 
	C12.337765,45.142105 8.716641,48.801498 9.997988,58.034023 
	C10.579450,62.223637 14.372546,65.185555 20.063166,66.077187 
	C20.781788,66.189789 21.335398,67.355530 21.350105,68.225975 
	C19.340773,70.977585 20.721643,72.634193 23.046621,74.661621 
	C27.895885,87.713341 47.565529,92.627708 58.709675,80.252930 
	C64.318649,84.537735 70.953011,84.125381 76.014069,79.620956 
	C77.548744,78.255074 79.897530,77.246788 81.941269,77.113312 
	C88.348633,76.694855 91.717010,73.556602 92.480270,66.761681 
	C92.803337,66.328125 93.126396,65.894577 94.038734,65.046211 
	C93.847450,62.880787 93.656166,60.715359 93.089417,57.993412 
z"/>
<path fill="#CCECDD" opacity="1.000000" stroke="none" 
	d="
M21.965460,68.033340 
	C21.335398,67.355530 20.781788,66.189789 20.063166,66.077187 
	C14.372546,65.185555 10.579450,62.223637 9.997988,58.034023 
	C8.716641,48.801498 12.337765,45.142105 17.233204,43.113270 
	C19.840931,42.032539 22.855749,41.934086 26.784430,41.182209 
	C23.594427,41.182209 21.390190,41.458912 19.306595,41.077148 
	C18.080956,40.852585 16.371592,39.751980 16.115799,38.734631 
	C15.857647,37.707890 16.827097,35.947834 17.786709,35.124165 
	C20.090849,33.146435 22.586081,31.311163 25.247503,29.866673 
	C26.421972,29.229229 28.472792,29.132174 29.632278,29.736534 
	C33.605186,31.807341 37.724304,30.882267 39.649506,26.756121 
	C44.295486,16.798685 52.529366,13.953917 62.661766,15.039262 
	C70.705948,15.900925 76.703110,20.517281 78.703056,27.998085 
	C80.221329,33.677155 83.540054,37.008659 87.014427,41.129128 
	C89.545319,44.130657 89.104553,49.637897 89.688766,54.566750 
	C88.948837,55.431667 88.508728,55.757885 87.824081,55.822449 
	C85.817528,54.449905 83.792488,53.603611 82.350777,52.170490 
	C79.722771,49.558163 77.380951,49.244797 74.439789,52.009983 
	C73.388847,49.354485 72.725700,46.748817 71.962784,43.795769 
	C71.589096,41.658417 70.655891,39.653881 71.156403,38.115944 
	C73.228317,31.749533 71.627480,26.415026 66.521408,24.246510 
	C61.578930,22.147472 55.877914,24.835394 53.149460,30.556461 
	C52.021614,32.921345 50.904350,35.291279 49.457722,37.764633 
	C46.641876,39.917740 44.150585,41.965137 41.379097,44.187447 
	C37.606087,49.635784 34.057423,54.874134 30.693787,60.228710 
	C30.290323,60.870987 30.891397,62.144287 31.009449,63.429588 
	C30.969345,64.140007 30.946659,64.545944 30.644255,65.011627 
	C30.219149,65.372849 30.073765,65.674309 29.961685,65.986954 
	C29.994991,65.998131 29.946272,65.947502 29.625713,65.890221 
	C29.101475,65.908051 28.897791,65.983154 28.339073,66.024994 
	C25.977846,66.672272 23.971653,67.352806 21.965460,68.033340 
z"/>
<path fill="#C6EBDC" opacity="1.000000" stroke="none" 
	d="
M91.997322,67.015945 
	C91.717010,73.556602 88.348633,76.694855 81.941269,77.113312 
	C79.897530,77.246788 77.548744,78.255074 76.014069,79.620956 
	C70.953011,84.125381 64.318649,84.537735 58.709675,80.252930 
	C47.565529,92.627708 27.895885,87.713341 23.426277,74.522110 
	C28.341084,76.463287 30.852228,73.948914 33.358208,70.226013 
	C38.896366,70.081871 43.974224,70.089546 49.417297,70.041252 
	C51.334103,69.776772 52.885693,69.568253 54.456715,69.357117 
	C54.736759,73.442215 55.813992,73.847755 61.384453,71.853607 
	C59.311337,71.110458 57.651424,70.515427 55.259880,69.658127 
	C58.229053,68.072166 60.142700,67.050003 62.029732,66.014542 
	C62.003117,66.001236 62.013550,66.059830 62.300552,66.150208 
	C63.350811,66.466003 64.114067,66.691406 65.302078,66.938004 
	C68.812965,66.965210 71.899086,66.971214 75.453514,66.992844 
	C81.280319,67.010963 86.638817,67.013458 91.997322,67.015945 
z"/>
<path fill="#6496C9" opacity="1.000000" stroke="none" 
	d="
M32.897907,70.377815 
	C30.852228,73.948914 28.341084,76.463287 23.500475,74.160271 
	C20.721643,72.634193 19.340773,70.977585 21.657784,68.129654 
	C23.971653,67.352806 25.977846,66.672272 28.345497,66.194878 
	C28.706955,66.398026 28.707403,66.740211 28.480064,66.996002 
	C28.554100,68.162361 28.605923,69.567856 29.212261,69.873573 
	C30.259361,70.401527 31.650888,70.246368 32.897907,70.377815 
z"/>
<path fill="#4D3230" opacity="1.000000" stroke="none" 
	d="
M92.238800,66.888809 
	C86.638817,67.013458 81.280319,67.010963 75.639191,66.596703 
	C81.222122,65.773682 87.087685,65.362419 93.073288,65.082520 
	C93.193344,65.213890 93.449463,65.461021 93.449463,65.461021 
	C93.126396,65.894577 92.803337,66.328125 92.238800,66.888809 
z"/>
<path fill="#4D3230" opacity="1.000000" stroke="none" 
	d="
M93.464890,58.549934 
	C93.656166,60.715359 93.847450,62.880787 93.744095,65.253616 
	C93.449463,65.461021 93.193344,65.213890 93.183235,64.746902 
	C93.097153,62.537369 93.021187,60.794827 93.078812,58.930496 
	C93.212395,58.808704 93.464890,58.549934 93.464890,58.549934 
z"/>
<path fill="#4D3230" opacity="1.000000" stroke="none" 
	d="
M88.068626,56.084106 
	C88.508728,55.757885 88.948837,55.431667 89.646721,55.007465 
	C90.966141,55.937458 92.027779,56.965435 93.277153,58.271675 
	C93.464890,58.549934 93.212395,58.808704 92.756180,58.826675 
	C90.889511,57.924465 89.479065,57.004284 88.068626,56.084106 
z"/>
<path fill="#F4C658" opacity="1.000000" stroke="none" 
	d="
M30.923975,64.951881 
	C30.946659,64.545944 30.969345,64.140007 31.442181,63.387985 
	C40.960522,62.586506 49.495865,60.437809 57.350101,54.922810 
	C62.799156,46.455776 60.832188,41.407463 51.460682,38.700611 
	C50.851723,38.524723 50.339500,38.013924 49.782272,37.658916 
	C50.904350,35.291279 52.021614,32.921345 53.149460,30.556461 
	C55.877914,24.835394 61.578930,22.147472 66.521408,24.246510 
	C71.627480,26.415026 73.228317,31.749533 71.156403,38.115944 
	C70.655891,39.653881 71.589096,41.658417 71.770813,44.148994 
	C70.877571,49.555244 70.076515,54.260876 69.197876,59.294590 
	C68.133629,60.754131 67.146965,61.885593 65.801865,63.031136 
	C64.300133,64.050087 63.156841,65.054955 62.013550,66.059830 
	C62.013550,66.059830 62.003117,66.001236 61.662010,65.792618 
	C57.180862,66.535400 53.040821,67.486794 48.437168,68.437729 
	C42.126225,68.576263 36.278896,68.715263 30.326927,68.559731 
	C30.183193,67.852043 30.144102,67.438889 30.277124,66.724991 
	C30.281582,66.265343 30.113926,66.106422 29.946272,65.947502 
	C29.946272,65.947502 29.994991,65.998131 30.277321,66.097595 
	C30.681091,65.781998 30.802534,65.366943 30.923975,64.951881 
z"/>
<path fill="#FAF8EC" opacity="1.000000" stroke="none" 
	d="
M66.160294,63.017052 
	C67.146965,61.885593 68.133629,60.754131 69.536713,59.284855 
	C71.577957,56.651299 73.202774,54.355553 74.827599,52.059811 
	C77.380951,49.244797 79.722771,49.558163 82.350777,52.170490 
	C83.792488,53.603611 85.817528,54.449905 87.824081,55.822453 
	C89.479065,57.004284 90.889511,57.924465 92.622589,58.948467 
	C93.021187,60.794827 93.097153,62.537369 93.063187,64.615532 
	C87.087685,65.362419 81.222122,65.773682 75.170891,66.581078 
	C71.899086,66.971214 68.812965,66.965210 65.284386,66.580017 
	C65.281387,65.139572 65.720840,64.078316 66.160294,63.017052 
z"/>
<path fill="#C1D8EA" opacity="1.000000" stroke="none" 
	d="
M57.036930,55.129436 
	C49.495865,60.437809 40.960522,62.586506 31.459599,63.083504 
	C30.891397,62.144287 30.290323,60.870987 30.693787,60.228710 
	C34.057423,54.874134 37.606087,49.635784 41.757080,44.282642 
	C48.599098,46.092144 53.390579,49.844593 57.036930,55.129436 
z"/>
<path fill="#649BD2" opacity="1.000000" stroke="none" 
	d="
M57.350101,54.922810 
	C53.390579,49.844593 48.599098,46.092144 42.037277,44.107735 
	C44.150585,41.965137 46.641876,39.917740 49.457726,37.764633 
	C50.339500,38.013924 50.851723,38.524723 51.460682,38.700611 
	C60.832188,41.407463 62.799156,46.455776 57.350101,54.922810 
z"/>
<path fill="#7D6349" opacity="1.000000" stroke="none" 
	d="
M74.439789,52.009983 
	C73.202774,54.355553 71.577957,56.651299 69.614296,58.956776 
	C70.076515,54.260876 70.877571,49.555244 71.870590,44.496380 
	C72.725700,46.748817 73.388847,49.354485 74.439789,52.009983 
z"/>
<path fill="#4E3632" opacity="1.000000" stroke="none" 
	d="
M29.625713,65.890221 
	C30.113926,66.106422 30.281582,66.265343 30.005833,66.721725 
	C29.381607,67.019081 29.200783,67.018959 28.941908,66.949081 
	C28.863857,66.879326 28.707403,66.740211 28.707403,66.740211 
	C28.707403,66.740211 28.706955,66.398026 28.700531,66.228149 
	C28.897791,65.983154 29.101475,65.908051 29.625713,65.890221 
z"/>
<path fill="#4E3632" opacity="1.000000" stroke="none" 
	d="
M30.644255,65.011627 
	C30.802534,65.366943 30.681091,65.781998 30.244015,66.086418 
	C30.073765,65.674309 30.219149,65.372849 30.644255,65.011627 
z"/>
<path fill="#624838" opacity="1.000000" stroke="none" 
	d="
M48.900784,68.438194 
	C53.040821,67.486794 57.180862,66.535400 61.688629,65.805923 
	C60.142700,67.050003 58.229053,68.072166 55.259880,69.658127 
	C57.651424,70.515427 59.311337,71.110458 61.384453,71.853607 
	C55.813992,73.847755 54.736759,73.442215 54.456715,69.357117 
	C52.885693,69.568253 51.334103,69.776772 49.375328,69.626938 
	C48.945690,68.991783 48.923237,68.714989 48.900784,68.438194 
z"/>
<path fill="#4E3632" opacity="1.000000" stroke="none" 
	d="
M48.437168,68.437729 
	C48.923237,68.714989 48.945690,68.991783 49.010117,69.682892 
	C43.974224,70.089546 38.896366,70.081871 33.358208,70.226013 
	C31.650888,70.246368 30.259361,70.401527 29.212261,69.873573 
	C28.605923,69.567856 28.554100,68.162361 28.480064,66.996002 
	C28.707403,66.740211 28.863857,66.879326 28.984554,67.267548 
	C29.547358,68.055275 29.989462,68.454773 30.431568,68.854263 
	C36.278896,68.715263 42.126225,68.576263 48.437168,68.437729 
z"/>
<path fill="#624838" opacity="1.000000" stroke="none" 
	d="
M65.801865,63.031132 
	C65.720840,64.078316 65.281387,65.139572 64.859627,66.558823 
	C64.114067,66.691406 63.350811,66.466003 62.300552,66.150208 
	C63.156841,65.054955 64.300133,64.050087 65.801865,63.031132 
z"/>
<path fill="#624838" opacity="1.000000" stroke="none" 
	d="
M30.326925,68.559738 
	C29.989462,68.454773 29.547358,68.055275 29.062605,67.337311 
	C29.200783,67.018959 29.381607,67.019081 29.833721,67.022461 
	C30.144102,67.438889 30.183193,67.852043 30.326925,68.559738 
z"/>
</svg>