<svg version="1.1" id="Layer_1" xmlns="http://www.w3.org/2000/svg" xmlns:xlink="http://www.w3.org/1999/xlink" x="0px" y="0px"
	 width="100%" viewBox="0 0 225 225" enable-background="new 0 0 225 225" xml:space="preserve">
<path fill="#FEFEFE" opacity="1.000000" stroke="none" 
	d="
M133.000000,226.000000 
	C88.666672,226.000000 44.833340,226.000000 1.000004,226.000000 
	C1.000000,152.333344 1.030416,78.666626 0.903707,5.000186 
	C0.897817,1.575734 1.575576,0.897622 5.000148,0.903650 
	C77.333252,1.030972 149.666702,1.030969 221.999802,0.903658 
	C225.424255,0.897630 226.102371,1.575540 226.096344,5.000135 
	C225.969025,77.333244 225.969055,149.666687 226.096359,221.999786 
	C226.102386,225.424210 225.427094,226.120117 221.999451,226.099915 
	C192.500473,225.926041 163.000015,226.000000 133.000000,226.000000 
z"/>
<path fill="#FEA627" opacity="1.000000" stroke="none" 
	d="
M74.823105,35.319416 
	C75.214958,34.809628 75.404160,34.507401 75.852707,34.115414 
	C76.486176,33.514606 77.135269,33.541061 77.760445,32.997513 
	C77.897636,32.742458 77.938583,32.891426 77.861397,32.894547 
	C78.135315,32.803829 78.420967,32.610031 78.815315,32.121796 
	C87.224373,26.908836 96.609627,28.684443 101.938797,36.872501 
	C103.840134,39.793850 105.593391,40.058674 108.685760,39.119331 
	C109.529869,39.523205 110.049294,39.528976 110.795349,39.182144 
	C111.434479,38.920383 111.869530,38.838219 112.630806,38.831985 
	C113.752960,39.757351 114.699638,39.565884 115.858025,39.085426 
	C116.489243,38.824753 116.919670,38.777645 117.661926,38.835991 
	C118.640137,39.727142 119.531548,39.478176 120.658249,39.312653 
	C124.370117,40.058369 126.679649,39.653404 128.888657,35.998096 
	C132.153961,30.594885 138.182816,28.633522 144.147629,29.337540 
	C151.790833,30.239658 157.387299,34.508381 159.257309,42.538765 
	C160.894333,49.568645 158.805206,55.514938 153.285507,59.856537 
	C150.760880,61.842323 150.385498,63.402851 151.199188,66.303329 
	C154.576202,78.341011 151.938126,89.281609 144.615463,99.250511 
	C143.660156,100.551048 142.043030,101.418404 141.962997,103.619820 
	C127.995415,117.457855 104.850693,118.736542 88.133682,104.278854 
	C88.583900,102.395050 87.478523,101.484871 86.631096,100.499237 
	C82.189041,95.332756 79.396767,89.379738 78.147064,82.316238 
	C78.815704,80.134117 78.473038,78.299911 78.171036,76.223846 
	C77.901390,74.902756 77.866325,73.834732 77.935204,72.376411 
	C78.464119,71.573212 78.525421,71.061386 78.302437,70.279327 
	C77.887680,67.176712 80.434021,64.703156 79.157883,61.415535 
	C78.768883,60.820427 78.540565,60.543915 78.033379,60.197109 
	C77.780045,60.105553 77.934540,60.098888 77.920280,60.174881 
	C77.659958,59.611111 77.083603,59.499554 76.297089,59.180389 
	C75.776497,58.802948 75.471367,58.624645 75.092407,58.182465 
	C74.517509,57.528973 74.541397,56.881638 74.014069,56.232307 
	C73.763893,56.082523 73.912727,56.055317 73.911133,56.130947 
	C73.801109,55.864983 73.612877,55.575237 73.132027,55.180534 
	C72.919212,55.023739 72.991447,55.020611 72.975235,55.052917 
	C72.609695,54.589951 72.526649,54.000732 72.181961,53.215080 
	C71.987083,52.995090 71.795731,52.783962 71.860336,52.656982 
	C70.762383,48.864323 70.755928,45.165092 71.763779,40.955845 
	C71.924454,40.470608 71.795532,40.216419 71.891266,40.110863 
	C72.469406,39.591610 72.502777,38.985645 72.815140,38.184296 
	C72.969955,37.935738 73.004448,37.985840 72.974045,37.985134 
	C73.221710,37.772186 73.479431,37.537594 73.810150,37.035995 
	C73.903542,36.791401 73.913834,36.940834 73.839691,36.930229 
	C74.381058,36.658321 74.501862,36.093334 74.823105,35.319416 
z"/>
<path fill="#FE9101" opacity="1.000000" stroke="none" 
	d="
M87.617996,104.115280 
	C89.703903,103.762955 90.989746,104.640961 92.318573,105.768059 
	C103.684891,115.408829 125.537872,116.301308 137.836517,105.653160 
	C138.858246,104.768539 139.822510,103.878555 141.673279,103.999924 
	C143.613190,105.127029 145.182739,106.276993 146.881821,107.727341 
	C147.534775,109.865585 146.131622,110.719940 145.096115,111.749626 
	C138.326981,118.480766 136.912064,124.796379 140.474930,132.423080 
	C143.588196,139.087372 149.783752,142.183395 158.790680,141.569839 
	C159.947983,141.490997 161.101654,141.192795 162.553406,141.769394 
	C163.112885,146.837067 162.227051,151.525452 160.969116,156.573471 
	C160.269440,157.264221 159.625641,157.282150 158.960922,157.111511 
	C146.095856,153.808655 135.904922,158.440262 129.760483,170.348557 
	C127.188416,175.333374 125.538750,180.468124 126.810913,186.168762 
	C127.029785,187.149521 126.987404,188.153870 126.288315,189.375031 
	C118.974586,191.507675 111.892014,191.334457 104.383194,189.768158 
	C102.542000,187.969986 103.465149,186.125580 103.595062,184.374619 
	C104.531563,171.752289 94.387634,158.375626 82.100876,155.596481 
	C77.798386,154.623306 73.981476,156.842850 69.564072,156.292328 
	C68.198090,153.511902 67.805870,150.832748 67.809479,147.688782 
	C67.823372,147.126663 67.753456,146.969284 67.737579,146.559311 
	C67.606911,145.478699 67.422203,144.650681 67.247849,143.392487 
	C68.548134,141.585983 70.274727,141.774567 71.903450,141.722610 
	C78.635078,141.507828 83.631622,138.550461 86.520233,132.393829 
	C89.645790,125.732193 88.662315,119.540337 84.154037,113.811546 
	C83.161507,112.550308 81.520622,111.682587 81.793732,109.440750 
	C83.229652,106.908447 85.521309,105.856606 87.617996,104.115280 
z"/>
<path fill="#EE6D03" opacity="1.000000" stroke="none" 
	d="
M69.169487,156.406555 
	C86.952789,152.000610 99.183426,159.177383 104.320580,176.595474 
	C105.538673,180.725555 105.194435,184.781097 103.992081,189.227386 
	C94.461273,200.215622 84.253929,200.617569 73.629707,190.693878 
	C68.405861,185.814453 64.934395,179.918564 63.949528,172.708633 
	C63.109467,166.558716 65.021172,161.315674 69.169487,156.406555 
z"/>
<path fill="#EE6D03" opacity="1.000000" stroke="none" 
	d="
M126.353653,189.801926 
	C123.015770,177.481461 127.663033,168.043701 136.468582,160.000641 
	C143.513672,153.565613 151.807587,152.333160 160.574554,156.819061 
	C166.956039,162.736099 167.458435,169.749023 165.141037,177.194305 
	C162.604050,185.345154 157.455399,191.462173 149.788681,195.310547 
	C140.376846,200.034897 133.491669,198.400589 126.353653,189.801926 
z"/>
<path fill="#EF6E04" opacity="1.000000" stroke="none" 
	d="
M81.606064,109.160141 
	C82.256981,111.430809 84.663918,111.849632 85.778008,113.477516 
	C90.142586,119.854881 91.080750,126.570015 87.591179,133.453751 
	C84.248817,140.047089 78.613632,143.300598 71.097931,143.007690 
	C70.108856,142.969147 69.117538,142.987885 67.692734,142.971191 
	C59.538395,140.117477 54.337013,135.144241 53.379620,126.570045 
	C51.992939,114.151283 64.483124,103.919365 76.534637,107.618065 
	C78.104515,108.099861 79.649544,108.662598 81.606064,109.160141 
z"/>
<path fill="#EF6E04" opacity="1.000000" stroke="none" 
	d="
M163.065125,141.736969 
	C150.357925,145.423325 141.449127,140.733826 137.820969,128.829758 
	C136.020111,122.921150 138.678253,114.965477 143.696152,111.153755 
	C144.737900,110.362411 145.706314,109.474541 146.859940,108.329437 
	C149.258682,108.544319 151.178879,107.149307 153.327515,106.960442 
	C161.958511,106.201790 169.878540,111.002975 172.604553,118.785400 
	C175.717331,127.672104 172.314163,135.957275 163.065125,141.736969 
z"/>
<path fill="#FBA00D" opacity="1.000000" stroke="none" 
	d="
M71.644974,40.761879 
	C71.931892,44.150616 71.939331,47.830620 71.935867,52.020317 
	C69.734055,48.802094 70.246658,44.942398 71.644974,40.761879 
z"/>
<path fill="#FBA00D" opacity="1.000000" stroke="none" 
	d="
M77.858978,76.393425 
	C79.676651,77.577049 79.024826,79.507431 78.427597,81.662964 
	C78.049477,80.224419 77.915497,78.520248 77.858978,76.393425 
z"/>
<path fill="#FBA00D" opacity="1.000000" stroke="none" 
	d="
M120.580688,39.066986 
	C120.158180,40.110550 119.275291,40.190277 118.137802,39.198914 
	C118.721489,38.951519 119.469223,38.961597 120.580688,39.066986 
z"/>
<path fill="#FBA00D" opacity="1.000000" stroke="none" 
	d="
M115.673920,38.795021 
	C115.350189,40.020336 114.441856,40.219082 113.143089,39.176880 
	C113.734367,38.844669 114.511688,38.781425 115.673920,38.795021 
z"/>
<path fill="#FBA00D" opacity="1.000000" stroke="none" 
	d="
M74.767372,35.245331 
	C74.795189,35.645248 74.564613,36.178642 74.049789,36.815834 
	C74.013359,36.406021 74.261169,35.892418 74.767372,35.245331 
z"/>
<path fill="#FBA00D" opacity="1.000000" stroke="none" 
	d="
M78.080566,70.365738 
	C78.821587,70.503937 79.034950,71.042938 78.260124,71.856476 
	C78.025085,71.551628 78.011024,71.117149 78.080566,70.365738 
z"/>
<path fill="#FBA00D" opacity="1.000000" stroke="none" 
	d="
M76.226074,59.235542 
	C76.622696,59.211349 77.163757,59.441448 77.805420,59.961212 
	C77.394188,59.997192 76.882355,59.743511 76.226074,59.235542 
z"/>
<path fill="#FBA00D" opacity="1.000000" stroke="none" 
	d="
M73.815582,56.371281 
	C74.150345,56.494308 74.536789,56.906090 74.970917,57.618225 
	C74.634811,57.499069 74.251045,57.079552 73.815582,56.371281 
z"/>
<path fill="#FBA00D" opacity="1.000000" stroke="none" 
	d="
M71.995499,53.296379 
	C72.295952,53.486740 72.604813,53.978390 72.936348,54.777634 
	C72.640648,54.589375 72.322281,54.093521 71.995499,53.296379 
z"/>
<path fill="#FBA00D" opacity="1.000000" stroke="none" 
	d="
M110.672760,38.961952 
	C110.634949,39.702316 110.141678,40.030796 109.215103,39.364197 
	C109.486542,39.081688 109.916321,39.001526 110.672760,38.961952 
z"/>
<path fill="#FBA00D" opacity="1.000000" stroke="none" 
	d="
M72.744370,38.133690 
	C72.808952,38.510708 72.647957,39.085682 72.236984,39.832977 
	C72.164268,39.447418 72.341530,38.889534 72.744370,38.133690 
z"/>
<path fill="#FBA00D" opacity="1.000000" stroke="none" 
	d="
M77.609421,32.789314 
	C77.500900,33.136295 77.104172,33.530136 76.409744,33.974815 
	C76.515099,33.629158 76.918152,33.232666 77.609421,32.789314 
z"/>
<path fill="#FBA00D" opacity="1.000000" stroke="none" 
	d="
M77.860077,60.385040 
	C78.100021,60.274681 78.419998,60.443806 78.857544,60.864132 
	C78.630119,60.965069 78.285118,60.814800 77.860077,60.385040 
z"/>
<path fill="#FBA00D" opacity="1.000000" stroke="none" 
	d="
M72.967262,55.304878 
	C73.199844,55.241467 73.480469,55.459194 73.835312,55.941750 
	C73.611458,55.999722 73.313385,55.792866 72.967262,55.304878 
z"/>
<path fill="#EF6E04" opacity="1.000000" stroke="none" 
	d="
M67.680420,146.462601 
	C67.834740,146.520432 67.866112,146.735870 67.889519,147.118546 
	C67.654839,147.125565 67.546806,146.903702 67.680420,146.462601 
z"/>
<path fill="#FBA00D" opacity="1.000000" stroke="none" 
	d="
M73.634460,36.879021 
	C73.745308,37.108730 73.587067,37.426056 73.186234,37.863907 
	C73.084221,37.645164 73.224800,37.305901 73.634460,36.879021 
z"/>
<path fill="#FBA00D" opacity="1.000000" stroke="none" 
	d="
M78.696243,31.960529 
	C78.759346,32.193760 78.538521,32.474400 78.050949,32.826351 
	C77.993576,32.601089 78.202942,32.304512 78.696243,31.960529 
z"/>
<path fill="#F47F18" opacity="1.000000" stroke="none" 
	d="
M141.250214,34.989052 
	C148.798569,35.096138 153.228729,38.852692 153.882233,45.340454 
	C154.346085,49.945415 149.669159,55.868351 144.753677,56.900993 
	C138.677185,58.177547 134.009308,55.244839 131.516556,49.091473 
	C129.564163,44.271938 133.409500,35.259914 141.250214,34.989052 
z"/>
<path fill="#F47F17" opacity="1.000000" stroke="none" 
	d="
M95.938950,51.553951 
	C92.334114,56.521088 87.217491,58.318584 82.288780,56.584743 
	C77.683746,54.964764 74.664986,50.098259 75.003517,44.840317 
	C75.265053,40.778389 79.166649,36.078594 83.059746,35.135929 
	C88.474030,33.824917 93.715233,35.918102 96.070908,40.712738 
	C97.731827,44.093330 97.447632,47.711697 95.938950,51.553951 
z"/>
<path fill="#D94515" opacity="1.000000" stroke="none" 
	d="
M116.570358,95.882545 
	C112.308617,96.242020 109.290131,94.836548 107.696785,91.216194 
	C106.343033,88.140244 106.499672,85.101410 108.787415,82.373833 
	C111.900047,78.662773 116.974739,78.254898 120.680969,81.460167 
	C123.904846,84.248276 124.030083,90.461288 120.764771,93.559204 
	C119.721161,94.549316 118.239914,95.078156 116.570358,95.882545 
z"/>
<path fill="#D94515" opacity="1.000000" stroke="none" 
	d="
M131.899323,65.372238 
	C132.194138,68.917206 130.876190,70.899506 127.586197,71.030083 
	C124.862221,71.138199 123.300377,69.666344 123.006638,66.932693 
	C122.721153,64.275955 124.356056,62.895279 126.557777,62.311485 
	C128.926361,61.683445 130.632339,62.975018 131.899323,65.372238 
z"/>
<path fill="#D94515" opacity="1.000000" stroke="none" 
	d="
M98.049660,66.998817 
	C98.530029,63.809994 100.153320,62.131157 103.021568,62.113968 
	C105.044945,62.101841 106.396561,63.397308 106.882065,65.327782 
	C107.467926,67.657310 106.819382,69.784401 104.504707,70.653915 
	C101.395157,71.822060 99.029617,70.800407 98.049660,66.998817 
z"/>
<path fill="#FD9000" opacity="1.000000" stroke="none" 
	d="
M94.074562,191.301971 
	C83.497017,197.190170 69.137291,182.501007 68.961342,173.721588 
	C68.862122,168.770630 68.892067,164.151779 73.809608,161.025497 
	C79.145798,157.633057 84.117935,159.003494 88.737747,161.977646 
	C94.971825,165.990982 99.182480,171.638428 99.953148,179.284683 
	C100.454651,184.260269 99.055939,188.478058 94.074562,191.301971 
z"/>
<path fill="#FE9000" opacity="1.000000" stroke="none" 
	d="
M151.903030,189.030182 
	C147.428711,191.027298 143.696991,194.054504 138.542358,192.087418 
	C131.904541,189.554306 128.593155,183.480499 130.673584,176.628372 
	C133.239319,168.177826 138.194107,161.968842 147.031723,159.498215 
	C154.224030,157.487564 160.589447,162.448547 161.081604,169.930023 
	C161.612534,178.000961 158.059036,183.900497 151.903030,189.030182 
z"/>
<path fill="#FE9000" opacity="1.000000" stroke="none" 
	d="
M59.086109,128.704895 
	C57.759144,121.994583 60.102886,116.435905 65.301025,113.443985 
	C69.813759,110.846565 76.110756,111.719070 79.996338,115.480164 
	C85.610619,120.914536 85.830750,128.849472 80.510185,134.001434 
	C74.654442,139.671616 67.340477,139.364502 61.735100,133.283600 
	C60.579315,132.029770 59.738850,130.648026 59.086109,128.704895 
z"/>
<path fill="#FE9000" opacity="1.000000" stroke="none" 
	d="
M161.325897,113.269936 
	C169.950165,120.749825 170.850403,127.655609 164.379425,134.142914 
	C160.141769,138.391266 153.541077,139.302261 148.914963,136.277267 
	C143.687347,132.858948 141.321045,125.738815 143.522324,120.051048 
	C145.571869,114.755424 151.921677,111.154312 157.638901,112.115433 
	C158.773941,112.306252 159.862671,112.772636 161.325897,113.269936 
z"/>
</svg>